<svg version="1.1" xmlns="http://www.w3.org/2000/svg" viewBox="0 0 120 208.75" width="120" height="208.75">
  <!-- svg-source:excalidraw -->
  
  <defs>
    <style>
      @font-face {
        font-family: "Virgil";
        src: url("https://excalidraw.com/Virgil.woff2");
      }
      @font-face {
        font-family: "Cascadia";
        src: url("https://excalidraw.com/Cascadia.woff2");
      }
    </style>
  </defs>
  <rect x="0" y="0" width="120" height="208.75" fill="#ffffff"></rect><g transform="translate(10 10) rotate(0 50 94.375)"><path d="M1.165694311261177 1.2300988882780075 C27.421478688716892 -0.23942772299051285, 57.80331592261792 2.1903308257460594, 98.04213674366474 -0.017246559262275696 M-0.5703884735703468 0.7779922857880592 C27.922316528856754 -0.13386011123657227, 54.7815605327487 -1.413501501083374, 100.29865273088217 0.26597241312265396 M101.22967870533466 1.8207852095365524 C98.01750279841944 69.93352211732417, 99.3692460197024 142.79398546554148, 99.32934196293354 187.41589276492596 M100.47200211137533 0.013918198645114899 C98.32806869866326 68.68559878598899, 98.06968137146904 137.05580384843051, 100.80352958291769 187.92649701982737 M99.38883216679096 187.06752316653728 C64.2843310534954 188.13929940015078, 27.424046859145164 188.03808260709047, -0.6588892191648483 187.50850169360638 M100.2957876548171 188.71588567644358 C71.09122724086046 189.4540262967348, 43.405061297118664 188.80193312466145, 0.5680728778243065 188.19588545709848 M1.2217679768800735 188.7120119780302 C-2.6270092505030336 124.889724153094, -0.5855992811731994 62.806373706087484, -1.3908185213804245 -0.20084555447101593 M0.18588026612997055 189.37632635980844 C1.0462792414240538 122.44585820008069, 1.8270917433314025 57.1323715467006, 0.27563222497701645 -0.9568681344389915" stroke="#000000" stroke-width="1" fill="none"></path></g><g><g transform="translate(30.19058916332267 71.98577079557367) rotate(0 29.06092945245274 46.63122098083129)"><path d="M0.5883876387029887 0.45970783196389675 C1.9944775054757582 14.519985926390094, 0.31864393635299404 69.44240118930938, 8.003060815799108 85.52655407519879 C15.68747769524522 101.6107069610882, 38.24811463714238 111.82651026792448, 46.69488891537967 96.96462514730038 C55.141663193616964 82.10274002667629, 58.83400896534577 11.865496143555825, 58.683706485222864 -3.6447566485458083 C58.53340400509996 -19.15500944064744, 53.809633023225764 3.0388281546439275, 45.79307403464227 3.903108394690571 C37.77651504605877 4.767388634737214, 17.902012864968462 3.995702202131179, 10.584352553721875 1.540924791734051 C3.266692242475287 -0.9138526186630769, 3.2245327178391863 -8.885524154387273, 1.8871121671627407 -10.825556067692196 M-0.5618475803174079 -0.344549501594156 C0.7378665701267406 14.393525693972062, -0.5809733744280372 70.92519247812108, 7.1373126350334495 86.85612033609168 C14.855598644494936 102.78704819406228, 37.626416867362664 110.22346523144836, 45.747868476451515 95.24101764622942 C53.869320085540366 80.25857006101049, 56.07705322725951 12.08506298201773, 55.86602228956654 -3.0385651752219562 C55.65499135187356 -18.16219333246164, 51.80049241787667 3.8326673485431124, 44.48168285029365 4.499248702791301 C37.162873282710635 5.16583005703949, 18.91374157250179 3.1721435434903467, 11.953164884068428 0.960922950267177 C4.992588195635066 -1.2502976429559927, 4.364521466251766 -6.888649530771978, 2.7182227196934763 -8.768074856547718" stroke="#000000" stroke-width="1" fill="none"></path></g></g><g><g transform="translate(31.587824740246447 61.44265180518937) rotate(0 -1.6490067606650314 4.264360656109204)"><path d="M0.10473321117460732 1.1768366094678642 C-0.46821688208256085 2.2863034645047415, -2.955997124476926 5.779896733327026, -3.402746732504602 6.712986101181286 M-1.2994205822981895 0.749071884099394 C-1.5039525571976993 1.9795299816642333, -0.825323453130768 6.62868628370967, -1.173804993917729 7.779649428118992" stroke="#000000" stroke-width="1" fill="none"></path></g></g><g><g transform="translate(32.10239805755407 59.98907608403556) rotate(0 0 0.1220703125)"><path d="M0 0 C0 0.040690104166666664, 0 0.20345052083333334, 0 0.244140625 M0 0 C0 0.040690104166666664, 0 0.20345052083333334, 0 0.244140625" stroke="#000000" stroke-width="1.5" fill="none"></path></g></g><g><g transform="translate(29.236562721015048 61.17597512249699) rotate(0 30.01615084134619 -4.158743990384508)"><path d="M0 0 C4.562299679487296 -1.4892578125, 20.520958533654568 -7.632837540064126, 27.373798076923777 -8.935546875 C34.22663762019298 -10.238256209935875, 35.673953325320475 -9.518354366987069, 41.117037259615245 -7.816256009615245 C46.560121193910014 -6.114157652243421, 56.879757612179525 -0.23850661057675393, 60.03230168269238 1.2770432692309441 M0 0 C4.562299679487296 -1.4892578125, 20.520958533654568 -7.632837540064126, 27.373798076923777 -8.935546875 C34.22663762019298 -10.238256209935875, 35.673953325320475 -9.518354366987069, 41.117037259615245 -7.816256009615245 C46.560121193910014 -6.114157652243421, 56.879757612179525 -0.23850661057675393, 60.03230168269238 1.2770432692309441" stroke="#000000" stroke-width="1.5" fill="none"></path></g></g><g><g transform="translate(88.82941127870743 82.22044627634318) rotate(0 3.915960223858633 29.072563288761927)"><path d="M0 0 C0.42881109775650356 -0.28796073717952214, 1.7384064503210843 -1.4398036858976109, 2.5728665865390212 -1.727764423077133 C3.407326722756958 -2.0157251602566553, 3.9625901442307923 -2.0401392227566553, 5.006760817307622 -1.727764423077133 C6.050931490384452 -1.4153896233976109, 7.649739583333333 -1.1418269230769813, 8.837890625 0.146484375 C10.026041666666666 1.4347956730769813, 11.184144631410163 0.30674078525657933, 12.135667067307622 6.002103365384755 C13.087189503205082 11.697465945512931, 14.200220352564125 27.279271834935724, 14.547025240384755 34.318659855769056 C14.893830128205385 41.35804787660239, 14.799929887821085 44.71404246794881, 14.216496394231399 48.238431490384755 C13.633062900641713 51.7628205128207, 12.98389923878267 53.597005208333485, 11.046424278846644 55.464993990384755 C9.108949318910618 57.332982772436026, 5.030548878205082 58.78280248397444, 2.5916466346152447 59.44636418269238 C0.15274439102540782 60.10992588141031, -2.0132211538463407 60.51244491185904, -3.5869891826923777 59.44636418269238 C-5.160757211538415 58.38028345352571, -7.322340745191771 54.207982772436026, -6.850961538460979 53.04987980769238 C-6.3795823317301865 51.89177684294873, -2.328099959935723 53.333458533653584, -0.7587139423076223 52.49774639423049 C0.8106720753204779 51.662034254807395, 1.4892578124998483 50.85324018429477, 2.5653545673076223 48.03560697115381 C3.6414513221153966 45.21797375801285, 5.071238982372354 42.243840144230944, 5.697866586539021 35.591947115384755 C6.324494190705688 28.940054086538566, 6.745793269230792 13.994265825320326, 6.325120192307622 8.124248798076678 C5.904447115384452 2.25423177083303, 4.228014823717937 1.7258864182689801, 3.173828125 0.37184495192286704 C2.1196414262820626 -0.9821965144232461, 0.5289713541666666 0.06197415865381117, 0 0 M0 0 C0.42881109775650356 -0.28796073717952214, 1.7384064503210843 -1.4398036858976109, 2.5728665865390212 -1.727764423077133 C3.407326722756958 -2.0157251602566553, 3.9625901442307923 -2.0401392227566553, 5.006760817307622 -1.727764423077133 C6.050931490384452 -1.4153896233976109, 7.649739583333333 -1.1418269230769813, 8.837890625 0.146484375 C10.026041666666666 1.4347956730769813, 11.184144631410163 0.30674078525657933, 12.135667067307622 6.002103365384755 C13.087189503205082 11.697465945512931, 14.200220352564125 27.279271834935724, 14.547025240384755 34.318659855769056 C14.893830128205385 41.35804787660239, 14.799929887821085 44.71404246794881, 14.216496394231399 48.238431490384755 C13.633062900641713 51.7628205128207, 12.98389923878267 53.597005208333485, 11.046424278846644 55.464993990384755 C9.108949318910618 57.332982772436026, 5.030548878205082 58.78280248397444, 2.5916466346152447 59.44636418269238 C0.15274439102540782 60.10992588141031, -2.0132211538463407 60.51244491185904, -3.5869891826923777 59.44636418269238 C-5.160757211538415 58.38028345352571, -7.322340745191771 54.207982772436026, -6.850961538460979 53.04987980769238 C-6.3795823317301865 51.89177684294873, -2.328099959935723 53.333458533653584, -0.7587139423076223 52.49774639423049 C0.8106720753204779 51.662034254807395, 1.4892578124998483 50.85324018429477, 2.5653545673076223 48.03560697115381 C3.6414513221153966 45.21797375801285, 5.071238982372354 42.243840144230944, 5.697866586539021 35.591947115384755 C6.324494190705688 28.940054086538566, 6.745793269230792 13.994265825320326, 6.325120192307622 8.124248798076678 C5.904447115384452 2.25423177083303, 4.228014823717937 1.7258864182689801, 3.173828125 0.37184495192286704 C2.1196414262820626 -0.9821965144232461, 0.5289713541666666 0.06197415865381117, 0 0" stroke="#000000" stroke-width="1.5" fill="none"></path></g></g><g><g transform="translate(65.55341969216931 61.96053041095843) rotate(0 4.0509418194110935 -20.220477764423094)"><path d="M0 0 C-0.04945412660254078 -0.9296123798076982, -1.5362079326920746 -2.5666065705128553, -0.2967247596152447 -5.577674278846189 C0.9427584134615852 -8.588741987179523, 6.089117588140501 -12.956981169871824, 7.436899038460979 -18.06640625 C8.784680488781456 -23.175831330128176, 7.8926282051281005 -33.085436698717785, 7.789963942307622 -36.234224759615245 C7.687299679487144 -39.383012820512704, 6.637494991986841 -36.25801282051293, 6.820913461538112 -36.959134615384755 C7.004331931089382 -37.66025641025658, 8.54554787660239 -39.86065204326928, 8.890474759615245 -40.44095552884619 M0 0 C-0.04945412660254078 -0.9296123798076982, -1.5362079326920746 -2.5666065705128553, -0.2967247596152447 -5.577674278846189 C0.9427584134615852 -8.588741987179523, 6.089117588140501 -12.956981169871824, 7.436899038460979 -18.06640625 C8.784680488781456 -23.175831330128176, 7.8926282051281005 -33.085436698717785, 7.789963942307622 -36.234224759615245 C7.687299679487144 -39.383012820512704, 6.637494991986841 -36.25801282051293, 6.820913461538112 -36.959134615384755 C7.004331931089382 -37.66025641025658, 8.54554787660239 -39.86065204326928, 8.890474759615245 -40.44095552884619" stroke="#000000" stroke-width="1.5" fill="none"></path></g></g><g><g transform="translate(57.399122817169314 63.93994747826605) rotate(0 1.0234074519232195 -14.729191706730717)"><path d="M0 0 C-0.15024038461539627 -1.8542167467948427, -1.3477814503206293 -7.9633663862177855, -0.9014423076923777 -11.125300480769056 C-0.4551031650641259 -14.287234575320326, 2.0814553285258626 -16.759314903846114, 2.6780348557695106 -18.971604567307622 C3.2746143830131587 -21.18389423076913, 3.0411157852568067 -22.651241987179144, 2.6780348557695106 -24.39903846153811 C2.3149539262822145 -26.14683493589708, 0.8626302083330302 -28.615159254807548, 0.4995492788457341 -29.458383413461434 M0 0 C-0.15024038461539627 -1.8542167467948427, -1.3477814503206293 -7.9633663862177855, -0.9014423076923777 -11.125300480769056 C-0.4551031650641259 -14.287234575320326, 2.0814553285258626 -16.759314903846114, 2.6780348557695106 -18.971604567307622 C3.2746143830131587 -21.18389423076913, 3.0411157852568067 -22.651241987179144, 2.6780348557695106 -24.39903846153811 C2.3149539262822145 -26.14683493589708, 0.8626302083330302 -28.615159254807548, 0.4995492788457341 -29.458383413461434" stroke="#000000" stroke-width="1.5" fill="none"></path></g></g><g><g transform="translate(48.15933916332267 62.49388377634318) rotate(0 -3.9381760817304894 -19.645808293269283)"><path d="M0 0 C-0.6316356169871445 -0.6929837740384907, -3.4799429086536597 0.9471404246792945, -3.789813701922867 -4.157902644230944 C-4.099684495192075 -9.262945713141182, -1.9593850160255595 -24.953049879807622, -1.8592247596152447 -30.630258413461434 C-1.75906450320493 -36.307466947115245, -2.1859975961533564 -36.77759415064096, -3.1888521634609788 -38.22115384615381 C-4.191706730768601 -39.664713541666664, -7.095102163460979 -39.11320612980777, -7.876352163460979 -39.29161658653857 M0 0 C-0.6316356169871445 -0.6929837740384907, -3.4799429086536597 0.9471404246792945, -3.789813701922867 -4.157902644230944 C-4.099684495192075 -9.262945713141182, -1.9593850160255595 -24.953049879807622, -1.8592247596152447 -30.630258413461434 C-1.75906450320493 -36.307466947115245, -2.1859975961533564 -36.77759415064096, -3.1888521634609788 -38.22115384615381 C-4.191706730768601 -39.664713541666664, -7.095102163460979 -39.11320612980777, -7.876352163460979 -39.29161658653857" stroke="#000000" stroke-width="1.5" fill="none"></path></g></g><g><g transform="translate(83.04004829793882 75.14292223788175) rotate(0 -23.50584716796891 45.921364182692145)"><path d="M0 0 C0 6.451572516025635, 0.5502554086539627 29.72506009615381, 0 38.70943509615381 C-0.5502554086539627 47.69381009615381, -1.1649889823723547 49.19308393429492, -3.3015324519237765 53.90625 C-5.438075921475198 58.61941606570508, -10.849859775641866 72.93544671474326, -12.819260817308532 66.9884314903843 C-14.788661858975198 61.04141626602533, -14.495693108975198 27.555338541666664, -15.117938701923777 18.22415865384619 C-15.740184294872355 8.892978766025712, -15.938626802884604 12.329727564102464, -16.552734375 11.001352163461434 C-17.166841947115397 9.672976762820403, -18.345602964744256 -0.12269631410254078, -18.802584134616154 10.25390625 C-19.259565304488053 20.63050881410254, -18.832632211539174 60.28395432692287, -19.2946213942314 73.26096754807668 C-19.756610576923624 86.23798076923049, -20.855243389423322 85.08801582532033, -21.57451923076951 88.11598557692287 C-22.2937950721157 91.14395532852541, -22.96299078525726 92.64698517628169, -23.610276442308532 91.42878605769192 C-24.257562099359802 90.21058693910216, -24.896709735577133 89.05623998397398, -25.458233173077133 80.8067908653843 C-26.019756610577133 72.55734174679462, -26.180639022436633 52.82013721955119, -26.979417067308532 41.93209134615381 C-27.77819511218043 31.04404547275643, -29.37011718750091 19.777894631410316, -30.250901442308532 15.478515625 C-31.131685697116154 11.179136618589684, -31.616210937500455 9.932767427884226, -32.264122596154266 16.135817307691923 C-32.91203425480808 22.33886718749962, -33.36338141025711 44.29837740384619, -34.1383713942314 52.69681490384619 C-34.913361378205686 61.09525240384619, -36.18727463942317 63.65121694711502, -36.9140625 66.52644230769192 C-37.64085036057683 69.40166766826883, -38.03523137019238 69.29524739583326, -38.49909855769238 69.94816706730762 C-38.96296574519238 70.60108673878199, -39.36548477564096 79.98923277243557, -39.697265625 70.44396033653811 C-40.02904647435904 60.89868790064065, -40.064102564102996 22.768304286858744, -40.489783653846644 12.676532451922867 C-40.91546474359029 2.5847606169869923, -41.540840344551576 10.357196514422867, -42.25135216346189 9.893329326922867 C-42.9618639823722 9.429462139422867, -44.00227864583409 9.565304487179295, -44.75285456730853 9.893329326922867 C-45.503430488782975 10.221354166666439, -46.33789062500091 10.140599959935571, -46.75480769230853 11.8614783653843 C-47.171724759616154 13.58235677083303, -47.17109875801331 18.82574619391009, -47.254356971154266 20.218599759615245 M0 0 C0 6.451572516025635, 0.5502554086539627 29.72506009615381, 0 38.70943509615381 C-0.5502554086539627 47.69381009615381, -1.1649889823723547 49.19308393429492, -3.3015324519237765 53.90625 C-5.438075921475198 58.61941606570508, -10.849859775641866 72.93544671474326, -12.819260817308532 66.9884314903843 C-14.788661858975198 61.04141626602533, -14.495693108975198 27.555338541666664, -15.117938701923777 18.22415865384619 C-15.740184294872355 8.892978766025712, -15.938626802884604 12.329727564102464, -16.552734375 11.001352163461434 C-17.166841947115397 9.672976762820403, -18.345602964744256 -0.12269631410254078, -18.802584134616154 10.25390625 C-19.259565304488053 20.63050881410254, -18.832632211539174 60.28395432692287, -19.2946213942314 73.26096754807668 C-19.756610576923624 86.23798076923049, -20.855243389423322 85.08801582532033, -21.57451923076951 88.11598557692287 C-22.2937950721157 91.14395532852541, -22.96299078525726 92.64698517628169, -23.610276442308532 91.42878605769192 C-24.257562099359802 90.21058693910216, -24.896709735577133 89.05623998397398, -25.458233173077133 80.8067908653843 C-26.019756610577133 72.55734174679462, -26.180639022436633 52.82013721955119, -26.979417067308532 41.93209134615381 C-27.77819511218043 31.04404547275643, -29.37011718750091 19.777894631410316, -30.250901442308532 15.478515625 C-31.131685697116154 11.179136618589684, -31.616210937500455 9.932767427884226, -32.264122596154266 16.135817307691923 C-32.91203425480808 22.33886718749962, -33.36338141025711 44.29837740384619, -34.1383713942314 52.69681490384619 C-34.913361378205686 61.09525240384619, -36.18727463942317 63.65121694711502, -36.9140625 66.52644230769192 C-37.64085036057683 69.40166766826883, -38.03523137019238 69.29524739583326, -38.49909855769238 69.94816706730762 C-38.96296574519238 70.60108673878199, -39.36548477564096 79.98923277243557, -39.697265625 70.44396033653811 C-40.02904647435904 60.89868790064065, -40.064102564102996 22.768304286858744, -40.489783653846644 12.676532451922867 C-40.91546474359029 2.5847606169869923, -41.540840344551576 10.357196514422867, -42.25135216346189 9.893329326922867 C-42.9618639823722 9.429462139422867, -44.00227864583409 9.565304487179295, -44.75285456730853 9.893329326922867 C-45.503430488782975 10.221354166666439, -46.33789062500091 10.140599959935571, -46.75480769230853 11.8614783653843 C-47.171724759616154 13.58235677083303, -47.17109875801331 18.82574619391009, -47.254356971154266 20.218599759615245" stroke="#000000" stroke-width="1.5" fill="none"></path></g></g></svg>