<svg version="1.1" xmlns="http://www.w3.org/2000/svg" viewBox="0 0 118.75 104.87465588711825" width="118.75" height="104.87465588711825">
  <!-- svg-source:excalidraw -->
  
  <defs>
    <style>
      @font-face {
        font-family: "Virgil";
        src: url("https://excalidraw.com/Virgil.woff2");
      }
      @font-face {
        font-family: "Cascadia";
        src: url("https://excalidraw.com/Cascadia.woff2");
      }
    </style>
  </defs>
  <rect x="0" y="0" width="118.75" height="104.87465588711825" fill="#ffffff"></rect><g transform="translate(10 13.624655887118251) rotate(0 49.375 40.625)"><path d="M0.027836397290229797 -0.3092664033174515 C21.088263352401555 -1.2921431426890195, 41.54573925770819 1.1409570808522402, 97.10299403965473 1.3752881735563278 M-0.8412384167313576 0.5803859606385231 C22.20437056105584 0.8902284150011838, 44.54742674343288 -0.027680491935461737, 98.12925084680319 -0.18237396329641342 M98.68177135288715 -1.465024784207344 C100.3840272729285 28.979808027856055, 99.07984092878178 60.06543368659914, 97.64177091419697 81.92379920184612 M98.7310059890151 -0.8599042519927025 C98.95205262256786 28.440969509072605, 99.40236738277599 55.86492829211057, 98.64957722276449 81.74212006479502 M100.00265271961689 80.04942862689495 C76.95872760843486 81.794610393513, 57.148765509948134 81.98482121275738, -1.913736268877983 79.2865649908781 M97.95891293138266 80.68611077219248 C74.42400328535587 82.20256688250228, 49.72902131266892 81.30722572458907, -0.3758498802781105 80.60042909532785 M1.8034687787294388 80.49141804873943 C-1.3814943139441311 53.53633472789079, -1.6122248475439847 22.994505191221833, -1.7974142283201218 1.017784759402275 M-0.36479298025369644 80.32805017381907 C0.11551646934822202 51.71352622192353, -0.0009259725920855999 20.49991932325065, -0.005868352949619293 0.7287347689270973" stroke="#000000" stroke-width="1" fill="none"></path></g><g><g transform="translate(34.055372817169314 41.337740384615245) rotate(0 21.406469726562534 13.535422926682635)"><path d="M0 0 C0.03693409455127039 3.076171875, -7.40309495192317 12.483723958333332, 0.22160456730762235 18.45703125 C7.846304086538415 24.430338541666668, 42.35213842147444 39.789913862179525, 45.748197115384755 35.83984375 C49.14425580929507 31.88977363782048, 25.245392628205384 2.0382612179485022, 20.59795673076951 -5.243389423077133 C15.950520833333638 -12.525040064102768, 21.23773036859014 -8.186222956730793, 17.86358173076951 -7.850060096153811 C14.48943309294888 -7.51389723557683, 3.553185096153508 -4.421449318910088, 0.3530649038457341 -3.2264122596152447 C-2.8470552884620397 -2.0313752003204018, -2.0150991586541145 -1.3552934695514218, -1.337139423077133 -0.6798377403847553 C-0.6591796875001515 -0.004382011218088677, -2.6705228365385665 -5.007386818910163, 4.420823317307622 0.8263221153847553 C11.512169471153811 6.660031049679674, 35.079251802884606 28.739733573718087, 41.2109375 34.322415865384755 M0 0 C0.03693409455127039 3.076171875, -7.40309495192317 12.483723958333332, 0.22160456730762235 18.45703125 C7.846304086538415 24.430338541666668, 42.35213842147444 39.789913862179525, 45.748197115384755 35.83984375 C49.14425580929507 31.88977363782048, 25.245392628205384 2.0382612179485022, 20.59795673076951 -5.243389423077133 C15.950520833333638 -12.525040064102768, 21.23773036859014 -8.186222956730793, 17.86358173076951 -7.850060096153811 C14.48943309294888 -7.51389723557683, 3.553185096153508 -4.421449318910088, 0.3530649038457341 -3.2264122596152447 C-2.8470552884620397 -2.0313752003204018, -2.0150991586541145 -1.3552934695514218, -1.337139423077133 -0.6798377403847553 C-0.6591796875001515 -0.004382011218088677, -2.6705228365385665 -5.007386818910163, 4.420823317307622 0.8263221153847553 C11.512169471153811 6.660031049679674, 35.079251802884606 28.739733573718087, 41.2109375 34.322415865384755" stroke="#000000" stroke-width="1.5" fill="none"></path></g></g><g><g transform="translate(48.215529067169314 37.49909855769192) rotate(0 -0.12394831730762235 0)"><path d="M0 0 C-0.04131610576920745 0, -0.20658052884603725 0, -0.2478966346152447 0 M0 0 C-0.04131610576920745 0, -0.20658052884603725 0, -0.2478966346152447 0" stroke="#000000" stroke-width="1.5" fill="none"></path></g></g><g><g transform="translate(52.23821536524645 43.189453125) rotate(0 0 0.1220703125)"><path d="M0 0 C0 0.040690104166666664, 0 0.20345052083333334, 0 0.244140625 M0 0 C0 0.040690104166666664, 0 0.20345052083333334, 0 0.244140625" stroke="#000000" stroke-width="1.5" fill="none"></path></g></g><g><g transform="translate(59.26570935563029 49.9239783653843) rotate(0 0 0.1220703125)"><path d="M0 0 C0 0.040690104166666664, 0 0.20345052083333334, 0 0.244140625 M0 0 C0 0.040690104166666664, 0 0.20345052083333334, 0 0.244140625" stroke="#000000" stroke-width="1.5" fill="none"></path></g></g><g><g transform="translate(46.37508435563029 44.77073317307668) rotate(0 0 -0.11643629807690559)"><path d="M0 0 C0 -0.03881209935896853, 0 -0.19406049679484264, 0 -0.23287259615381117 M0 0 C0 -0.03881209935896853, 0 -0.19406049679484264, 0 -0.23287259615381117" stroke="#000000" stroke-width="1.5" fill="none"></path></g></g><g><g transform="translate(62.96537882678456 54.33353365384619) rotate(0 0 0.11643629807690559)"><path d="M0 0 C0 0.03881209935896853, 0 0.19406049679484264, 0 0.23287259615381117 M0 0 C0 0.03881209935896853, 0 0.19406049679484264, 0 0.23287259615381117" stroke="#000000" stroke-width="1.5" fill="none"></path></g></g><g><g transform="translate(64.72319132678456 59.92623197115381) rotate(0 0.12394831730762235 0.12394831730762235)"><path d="M0 0 C0.04131610576920745 0.04131610576920745, 0.20658052884603725 0.20658052884603725, 0.2478966346152447 0.2478966346152447 M0 0 C0.04131610576920745 0.04131610576920745, 0.20658052884603725 0.20658052884603725, 0.2478966346152447 0.2478966346152447" stroke="#000000" stroke-width="1.5" fill="none"></path></g></g><g><g transform="translate(49.64656873063029 53.52974759615381) rotate(0 0 -0.1183143028847553)"><path d="M0 0 C0 -0.0394381009615851, 0 -0.19719050480792552, 0 -0.2366286057695106 M0 0 C0 -0.0394381009615851, 0 -0.19719050480792552, 0 -0.2366286057695106" stroke="#000000" stroke-width="1.5" fill="none"></path></g></g><g><g transform="translate(27.880493009476936 52.77103365384619) rotate(0 0.1220703125 0)"><path d="M0 0 C0.040690104166666664 0, 0.20345052083333334 0, 0.244140625 0 M0 0 C0.040690104166666664 0, 0.20345052083333334 0, 0.244140625 0" stroke="#000000" stroke-width="1.5" fill="none"></path></g></g><g><g transform="translate(70.07790887486169 52.05153245192287) rotate(0 -14.651946551983684 14.492210975060118)"><path d="M0 0 C0.9665464743588927 0, 3.852413862179067 -0.776867988782063, 5.799278846153356 0 C7.746143830127646 0.776867988782063, 9.141501402243193 1.9499949919872201, 11.681189903845734 4.661207932692378 C14.220878405448275 7.372420873397536, 19.43734975961479 13.986127804487372, 21.0374098557686 16.267277644230944 C22.637469951922412 18.548427483974518, 21.789237780447973 17.07732371794873, 21.2815504807686 18.34810697115381 C20.77386318108923 19.618890224358893, 19.99949919871794 21.985802283653737, 17.991286057692378 23.891977163461434 C15.983072916666819 25.79815204326913, 11.599809695512704 28.521885016025635, 9.232271634615245 29.78515625 C6.8647335737177855 31.048427483974365, 8.539913862179372 31.289438100961434, 3.7860576923076223 31.471604567307622 C-0.9677984775641262 31.65377103365381, -12.034254807692076 32.3066907051284, -19.290865384615245 30.878155048077133 C-26.547475961538414 29.449619391025863, -34.55528846153902 25.920222355769283, -39.7536057692314 22.900390625 C-44.95192307692378 19.880558894230717, -48.828751001602846 15.5586438301281, -50.48076923076951 12.759164663461434 C-52.132787459936175 9.959685496794767, -50.89017427884679 8.695788261217936, -49.6657151442314 6.103515625 C-48.441256009616005 3.511242988782063, -44.222631209936175 -1.311473357371824, -43.13401442307713 -2.794471153846189 M0 0 C0.9665464743588927 0, 3.852413862179067 -0.776867988782063, 5.799278846153356 0 C7.746143830127646 0.776867988782063, 9.141501402243193 1.9499949919872201, 11.681189903845734 4.661207932692378 C14.220878405448275 7.372420873397536, 19.43734975961479 13.986127804487372, 21.0374098557686 16.267277644230944 C22.637469951922412 18.548427483974518, 21.789237780447973 17.07732371794873, 21.2815504807686 18.34810697115381 C20.77386318108923 19.618890224358893, 19.99949919871794 21.985802283653737, 17.991286057692378 23.891977163461434 C15.983072916666819 25.79815204326913, 11.599809695512704 28.521885016025635, 9.232271634615245 29.78515625 C6.8647335737177855 31.048427483974365, 8.539913862179372 31.289438100961434, 3.7860576923076223 31.471604567307622 C-0.9677984775641262 31.65377103365381, -12.034254807692076 32.3066907051284, -19.290865384615245 30.878155048077133 C-26.547475961538414 29.449619391025863, -34.55528846153902 25.920222355769283, -39.7536057692314 22.900390625 C-44.95192307692378 19.880558894230717, -48.828751001602846 15.5586438301281, -50.48076923076951 12.759164663461434 C-52.132787459936175 9.959685496794767, -50.89017427884679 8.695788261217936, -49.6657151442314 6.103515625 C-48.441256009616005 3.511242988782063, -44.222631209936175 -1.311473357371824, -43.13401442307713 -2.794471153846189" stroke="#000000" stroke-width="1.5" fill="none"></path></g></g><g><g transform="translate(40.82805911524645 17.132662259615245) rotate(0 -6.640507624699865 3.7322519155649942)"><path d="M0 0 C-1.0598207131411073 -0.03943810096150931, -4.816456330128706 -0.36996694711516886, -6.358924278846644 -0.23662860576905587 C-7.901392227564581 -0.10329026442294284, -8.176832932692227 -0.041316105769434786, -9.254807692307622 0.8000300480766782 C-10.332782451923018 1.641376201922791, -12.272761418269662 3.7078074919870687, -12.826772836539021 4.811448317307622 C-13.38078425480838 5.915089142628176, -13.566706730769965 6.937975761217937, -12.578876201923777 7.421875 C-11.591045673077588 7.905774238782063, -7.846304086538869 7.666015625, -6.899789663461888 7.71484375 M0 0 C-1.0598207131411073 -0.03943810096150931, -4.816456330128706 -0.36996694711516886, -6.358924278846644 -0.23662860576905587 C-7.901392227564581 -0.10329026442294284, -8.176832932692227 -0.041316105769434786, -9.254807692307622 0.8000300480766782 C-10.332782451923018 1.641376201922791, -12.272761418269662 3.7078074919870687, -12.826772836539021 4.811448317307622 C-13.38078425480838 5.915089142628176, -13.566706730769965 6.937975761217937, -12.578876201923777 7.421875 C-11.591045673077588 7.905774238782063, -7.846304086538869 7.666015625, -6.899789663461888 7.71484375" stroke="#000000" stroke-width="1.5" fill="none"></path></g></g><g><g transform="translate(37.710571134476936 24.618389423076678) rotate(0 0.9840745192309441 -3.232046274038339)"><path d="M0 0 C0.32802483974364804 -1.0773487580127796, 1.9681490384618883 -6.464092548076678, 1.9681490384618883 -6.464092548076678 C1.9681490384618883 -6.464092548076678, 0.32802483974364804 -1.0773487580127796, 0 0 M0 0 C0.32802483974364804 -1.0773487580127796, 1.9681490384618883 -6.464092548076678, 1.9681490384618883 -6.464092548076678 C1.9681490384618883 -6.464092548076678, 0.32802483974364804 -1.0773487580127796, 0 0" stroke="#000000" stroke-width="1.5" fill="none"></path></g></g><g><g transform="translate(38.82986199986169 25.102914663461434) rotate(0 1.3559194711538112 -0.12582632211547207)"><path d="M0 0 C0.4519731570512704 -0.04194210737182402, 2.259865785256352 -0.2097105368591201, 2.7118389423076223 -0.25165264423094413 M0 0 C0.4519731570512704 -0.04194210737182402, 2.259865785256352 -0.2097105368591201, 2.7118389423076223 -0.25165264423094413" stroke="#000000" stroke-width="1.5" fill="none"></path></g></g><g><g transform="translate(39.98295695178456 15.851862980769056) rotate(0 3.938176081730944 4.839618389423094)"><path d="M0 0 C1.3127253605769813 1.613206129807698, 6.563626802884907 8.06603064903849, 7.876352163461888 9.679236778846189 M0 0 C1.3127253605769813 1.613206129807698, 6.563626802884907 8.06603064903849, 7.876352163461888 9.679236778846189" stroke="#000000" stroke-width="1.5" fill="none"></path></g></g><g><g transform="translate(37.80071536524645 21.376953125) rotate(0 2.44140625 -0.12394831730784972)"><path d="M0 0 C0.8138020833333334 -0.04131610576928324, 4.069010416666667 -0.2065805288464162, 4.8828125 -0.24789663461569944 M0 0 C0.8138020833333334 -0.04131610576928324, 4.069010416666667 -0.2065805288464162, 4.8828125 -0.24789663461569944" stroke="#000000" stroke-width="1.5" fill="none"></path></g></g><g><g transform="translate(49.78238603832267 18.48106971153811) rotate(0 0 3.7053034855769056)"><path d="M0 0 C0 1.2351011618589685, 0 6.175505809294843, 0 7.410606971153811 M0 0 C0 1.2351011618589685, 0 6.175505809294843, 0 7.410606971153811" stroke="#000000" stroke-width="1.5" fill="none"></path></g></g><g><g transform="translate(51.682926903707425 22.68404447115381) rotate(0 1.0779747596156994 -1.0911207932692832)"><path d="M0 0 C0.3593249198718998 -0.3637069310897611, 1.7966245993594991 -1.8185346554488053, 2.155949519231399 -2.1822415865385665 M0 0 C0.3593249198718998 -0.3637069310897611, 1.7966245993594991 -1.8185346554488053, 2.155949519231399 -2.1822415865385665" stroke="#000000" stroke-width="1.5" fill="none"></path></g></g><g><g transform="translate(51.58902666332267 20.501802884615245) rotate(0 3.404822716346189 1.8423227163461888)"><path d="M0 0 C1.1349409054487296 0.6141075721153962, 5.674704527243648 3.0705378605769815, 6.809645432692378 3.6846454326923777 M0 0 C1.1349409054487296 0.6141075721153962, 5.674704527243648 3.0705378605769815, 6.809645432692378 3.6846454326923777" stroke="#000000" stroke-width="1.5" fill="none"></path></g></g><g><g transform="translate(59.063485797938824 14.165414663461434) rotate(0 -5.015902944711655 1.3557936448318344)"><path d="M0 0 C-1.557491987179522 1.1449569310897612, -7.787459935897611 7.563977363782139, -9.344951923077133 6.8697415865385665 C-10.902443910256656 6.175505809294994, -9.344951923077133 -2.3262219551281005, -9.344951923077133 -4.1654146634614335 M0 0 C-1.557491987179522 1.1449569310897612, -7.787459935897611 7.563977363782139, -9.344951923077133 6.8697415865385665 C-10.902443910256656 6.175505809294994, -9.344951923077133 -2.3262219551281005, -9.344951923077133 -4.1654146634614335" stroke="#000000" stroke-width="1.5" fill="none"></path></g></g><g><g transform="translate(65.95200743255407 16.48287259615381) rotate(0 6.629356971153811 6.9437669020432224)"><path d="M0 0 C1.5086638621793707 0, 8.808468549678764 -0.04757612179484264, 9.051983173076223 0 C9.295497796473683 0.04757612179484264, 2.4664463141026927 -2.1171374198719755, 1.4610877403847553 0.28545673076905587 C0.4557291666668182 2.688050881410087, 1.05356069711479 12.740384615384679, 3.019831730768601 14.415564903846189 C4.986102764422412 16.090745192307697, 11.552233573717785 11.01637620192279, 13.258713942307622 10.336538461538112 M0 0 C1.5086638621793707 0, 8.808468549678764 -0.04757612179484264, 9.051983173076223 0 C9.295497796473683 0.04757612179484264, 2.4664463141026927 -2.1171374198719755, 1.4610877403847553 0.28545673076905587 C0.4557291666668182 2.688050881410087, 1.05356069711479 12.740384615384679, 3.019831730768601 14.415564903846189 C4.986102764422412 16.090745192307697, 11.552233573717785 11.01637620192279, 13.258713942307622 10.336538461538112" stroke="#000000" stroke-width="1.5" fill="none"></path></g></g><g><g transform="translate(68.32956151909218 22.92442908653811) rotate(0 3.9945162259614335 -0.244140625)"><path d="M0 0 C1.3315054086538112 -0.08138020833333333, 6.657527043269056 -0.4069010416666667, 7.989032451922867 -0.48828125 M0 0 C1.3315054086538112 -0.08138020833333333, 6.657527043269056 -0.4069010416666667, 7.989032451922867 -0.48828125" stroke="#000000" stroke-width="1.5" fill="none"></path></g></g></svg>