<svg version="1.1" xmlns="http://www.w3.org/2000/svg" viewBox="0 0 117.5 105" width="117.5" height="105">
  <!-- svg-source:excalidraw -->
  
  <defs>
    <style>
      @font-face {
        font-family: "Virgil";
        src: url("https://excalidraw.com/Virgil.woff2");
      }
      @font-face {
        font-family: "Cascadia";
        src: url("https://excalidraw.com/Cascadia.woff2");
      }
    </style>
  </defs>
  <rect x="0" y="0" width="117.5" height="105" fill="#ffffff"></rect><g transform="translate(10 10) rotate(0 48.75 42.5)"><path d="M1.8232428282499313 1.7545624524354935 C24.346748283132914 -0.09784248229116199, 50.759581740945585 -0.10536744948476551, 97.29667679965496 1.385796144604683 M0.4528978243470192 -0.16912094503641129 C38.2206311840564 -0.8213993409648538, 75.88952573761344 0.018426527641713597, 96.90849117189646 -0.7226413860917091 M98.47931306064129 0.4207502156496048 C96.0760482620448 18.99365881457925, 98.02314079515637 39.307366363704205, 97.533969566226 84.7449312955141 M97.58276752382517 -0.7288574352860451 C97.22558639980852 23.75455004349351, 97.25954364277422 46.61352972686291, 98.13654354959726 85.5936826094985 M99.10442321002483 84.11277110874653 C72.20507005788386 85.43480493780226, 45.49875584617257 85.24487640615553, -0.303154781460762 83.41554410755634 M96.84640339761972 85.23840650171041 C64.81336678378284 85.92667896244674, 32.44369839504361 86.43705231640487, 0.7896218672394753 84.8371535167098 M-0.7316025048494339 85.81548841297626 C-0.22311993949115283 66.31589901074767, -1.7601277481764557 46.39402262121439, 1.152002975344658 0.3356228619813919 M0.9471745863556862 84.06445797532797 C0.9349843677133322 56.58246264979243, 1.198052328452468 26.018519997596748, 0.2976577654480934 0.237995944917202" stroke="#000000" stroke-width="1" fill="none"></path></g><g><g transform="translate(72.40813724024645 47.49463497826605) rotate(0 -7.3476947490989915 16.636495267428018)"><path d="M0 0 C-3.761643629807774 -0.11017628205127039, -17.793469551282517 -0.8200620993588927, -22.569861778846644 -0.6610576923076223 C-27.34625400641077 -0.502053285256352, -27.289913862179674 0.38060897435889274, -28.658353365384755 0.9540264423076223 C-30.026792868589837 1.527443910256352, -30.434319911859195 -0.6397736378204022, -30.780498798077133 2.7794471153847553 C-31.12667768429507 6.198667868589913, -31.198667868589837 17.432892628205234, -30.735426682692378 21.469350961538566 C-30.27218549679492 25.5058092948719, -30.56139823717952 24.927383814102694, -28.001051682692378 26.998197115384755 C-25.440705128205234 29.069010416666817, -19.220753205128403 32.45004507211555, -15.37334735576951 33.894230769230944 C-11.525941506410618 35.33841646634634, -8.78029847756458 35.45673076923102, -4.916616586539021 35.66331129807713 C-1.052934695513462 35.869891826923244, 4.78953826121718 36.12717848557683, 7.808743990383846 35.13371394230762 C10.827949719550512 34.14024939903842, 11.89277844551225 32.24221254006443, 13.198617788460979 29.70252403846189 C14.504457131409708 27.162835536859347, 15.236253004807017 23.00618489583341, 15.643780048076223 19.895582932692378 C16.051307091345432 16.784980969551345, 17.044145633012096 14.046849959936177, 15.643780048076223 11.0389122596157 C14.243414463140349 8.030974559295222, 10.776617588140349 4.067132411859271, 7.241586538460979 1.8479567307695106 C3.7065554887816083 -0.3712189503202503, -2.0007011217949184 -1.588792067307471, -5.56640625 -2.276141826922867 C-9.132111378205082 -2.963491586538263, -12.721604567307926 -2.276141826922867, -14.15264423076951 -2.276141826922867 M0 0 C-3.761643629807774 -0.11017628205127039, -17.793469551282517 -0.8200620993588927, -22.569861778846644 -0.6610576923076223 C-27.34625400641077 -0.502053285256352, -27.289913862179674 0.38060897435889274, -28.658353365384755 0.9540264423076223 C-30.026792868589837 1.527443910256352, -30.434319911859195 -0.6397736378204022, -30.780498798077133 2.7794471153847553 C-31.12667768429507 6.198667868589913, -31.198667868589837 17.432892628205234, -30.735426682692378 21.469350961538566 C-30.27218549679492 25.5058092948719, -30.56139823717952 24.927383814102694, -28.001051682692378 26.998197115384755 C-25.440705128205234 29.069010416666817, -19.220753205128403 32.45004507211555, -15.37334735576951 33.894230769230944 C-11.525941506410618 35.33841646634634, -8.78029847756458 35.45673076923102, -4.916616586539021 35.66331129807713 C-1.052934695513462 35.869891826923244, 4.78953826121718 36.12717848557683, 7.808743990383846 35.13371394230762 C10.827949719550512 34.14024939903842, 11.89277844551225 32.24221254006443, 13.198617788460979 29.70252403846189 C14.504457131409708 27.162835536859347, 15.236253004807017 23.00618489583341, 15.643780048076223 19.895582932692378 C16.051307091345432 16.784980969551345, 17.044145633012096 14.046849959936177, 15.643780048076223 11.0389122596157 C14.243414463140349 8.030974559295222, 10.776617588140349 4.067132411859271, 7.241586538460979 1.8479567307695106 C3.7065554887816083 -0.3712189503202503, -2.0007011217949184 -1.588792067307471, -5.56640625 -2.276141826922867 C-9.132111378205082 -2.963491586538263, -12.721604567307926 -2.276141826922867, -14.15264423076951 -2.276141826922867" stroke="#000000" stroke-width="1.5" fill="none"></path></g></g><g><g transform="translate(59.65648459601505 60.26882368018937) rotate(0 -0.2516526442304894 -0.25165264423071676)"><path d="M0 0 C-0.08388421474349646 -0.08388421474357226, -0.41942107371748233 -0.41942107371786125, -0.5033052884609788 -0.5033052884614335 M0 0 C-0.08388421474349646 -0.08388421474357226, -0.41942107371748233 -0.41942107371786125, -0.5033052884609788 -0.5033052884614335" stroke="#000000" stroke-width="1.5" fill="none"></path></g></g><g><g transform="translate(73.45606392293882 68.44565661288175) rotate(0 -0.1239483173080771 0.1220703125)"><path d="M0 0 C-0.041316105769359034 0.040690104166666664, -0.20658052884679515 0.20345052083333334, -0.2478966346161542 0.244140625 M0 0 C-0.041316105769359034 0.040690104166666664, -0.20658052884679515 0.20345052083333334, -0.2478966346161542 0.244140625" stroke="#000000" stroke-width="1.5" fill="none"></path></g></g><g><g transform="translate(30.906184115246447 19.205121757112238) rotate(0 -4.8776292067308304 5.528259277344034)"><path d="M0 0 C-0.005008012820629422 1.0541866987179371, -0.14398036859044322 5.42618189102556, -0.030048076923776534 6.325120192307622 C0.08388421474289014 7.224058493589685, 1.0222606169871444 6.601812900641032, 0.68359375 5.393629807692378 C0.3449268830128555 4.1854467147437235, -0.5277193509620399 0.1708984375003031, -2.0620492788466436 -0.9239783653843006 C-3.596379206731247 -2.018855168268904, -7.182116386217937 -1.66140825320493, -8.522385817307622 -1.1756310096152447 C-9.862655248397308 -0.6898537660255595, -9.839493189102692 0.5183293269230187, -10.103665865384755 1.9906850961538112 C-10.367838541666819 3.4630408653846034, -10.856119791666666 6.051557491987448, -10.107421875 7.658503605769511 C-9.358723958333334 9.265449719551574, -7.378054887820629 10.792267628205158, -5.611478365384755 11.632361778846189 C-3.8449018429488815 12.47245592948722, -0.525215344551422 12.521284054487447, 0.4920372596152447 12.6990685096157 M0 0 C-0.005008012820629422 1.0541866987179371, -0.14398036859044322 5.42618189102556, -0.030048076923776534 6.325120192307622 C0.08388421474289014 7.224058493589685, 1.0222606169871444 6.601812900641032, 0.68359375 5.393629807692378 C0.3449268830128555 4.1854467147437235, -0.5277193509620399 0.1708984375003031, -2.0620492788466436 -0.9239783653843006 C-3.596379206731247 -2.018855168268904, -7.182116386217937 -1.66140825320493, -8.522385817307622 -1.1756310096152447 C-9.862655248397308 -0.6898537660255595, -9.839493189102692 0.5183293269230187, -10.103665865384755 1.9906850961538112 C-10.367838541666819 3.4630408653846034, -10.856119791666666 6.051557491987448, -10.107421875 7.658503605769511 C-9.358723958333334 9.265449719551574, -7.378054887820629 10.792267628205158, -5.611478365384755 11.632361778846189 C-3.8449018429488815 12.47245592948722, -0.525215344551422 12.521284054487447, 0.4920372596152447 12.6990685096157" stroke="#000000" stroke-width="1.5" fill="none"></path></g></g><g><g transform="translate(43.41745214409218 18.24733930518937) rotate(0 2.7252356896034087 5.2869666466345535)"><path d="M0 0 C-0.12144431089745922 0, -0.3843649839744406 -1.7277644230769056, -0.7286658653847553 0 C-1.07296674679507 1.7277644230769056, -2.9152894631414106 8.561197916666591, -2.0658052884618883 10.366586538461434 C-1.216321113782366 12.171975160256276, 2.7688050881409554 10.920597956730566, 4.368239182692378 10.832331730769056 C5.9676732772438 10.744065504807546, 7.086964142628706 10.955028044871824, 7.530799278846644 9.836989182692378 C7.974634415064581 8.718950320512931, 7.654747596153963 5.480644030448805, 7.03125 4.124098557692378 C6.407752403846037 2.76755308493595, 4.961688701922867 2.3850661057692073, 3.789813701922867 1.6977163461538112 C2.617938701922867 1.010366586538415, 0.6316356169871445 0.2829527243589685, 0 0 M0 0 C-0.12144431089745922 0, -0.3843649839744406 -1.7277644230769056, -0.7286658653847553 0 C-1.07296674679507 1.7277644230769056, -2.9152894631414106 8.561197916666591, -2.0658052884618883 10.366586538461434 C-1.216321113782366 12.171975160256276, 2.7688050881409554 10.920597956730566, 4.368239182692378 10.832331730769056 C5.9676732772438 10.744065504807546, 7.086964142628706 10.955028044871824, 7.530799278846644 9.836989182692378 C7.974634415064581 8.718950320512931, 7.654747596153963 5.480644030448805, 7.03125 4.124098557692378 C6.407752403846037 2.76755308493595, 4.961688701922867 2.3850661057692073, 3.789813701922867 1.6977163461538112 C2.617938701922867 1.010366586538415, 0.6316356169871445 0.2829527243589685, 0 0" stroke="#000000" stroke-width="1.5" fill="none"></path></g></g><g><g transform="translate(55.831063922938824 19.163805651343182) rotate(0 2.3580585186295195 5.764130108173006)"><path d="M0 0 C-0.225986578525711 1.886768830128176, -1.5180538862182402 9.228515624999849, -1.355919471154266 11.320612980769056 C-1.1937850560902916 13.412710336538263, -0.03255208333409132 12.393579727563974, 0.9728064903838458 12.552584134615245 C1.978165064101783 12.711588541666515, 3.8530398637814565 12.569486177884377, 4.676231971153356 12.274639423076678 C5.499424078525256 11.97979266826898, 5.713516626602389 12.482471955128025, 5.911959134615245 10.783503605769056 C6.1104016426281005 9.084535256410087, 6.175505809294616 4.05711638621771, 5.866887019230489 2.080829326922867 C5.558268229166363 0.10454226762802432, 5.038060897435571 -0.7274138621795221, 4.060246394230489 -1.07421875 C3.082431891025408 -1.421023637820478, 0.6767077323717482 -0.17903645833333334, 0 0 M0 0 C-0.225986578525711 1.886768830128176, -1.5180538862182402 9.228515624999849, -1.355919471154266 11.320612980769056 C-1.1937850560902916 13.412710336538263, -0.03255208333409132 12.393579727563974, 0.9728064903838458 12.552584134615245 C1.978165064101783 12.711588541666515, 3.8530398637814565 12.569486177884377, 4.676231971153356 12.274639423076678 C5.499424078525256 11.97979266826898, 5.713516626602389 12.482471955128025, 5.911959134615245 10.783503605769056 C6.1104016426281005 9.084535256410087, 6.175505809294616 4.05711638621771, 5.866887019230489 2.080829326922867 C5.558268229166363 0.10454226762802432, 5.038060897435571 -0.7274138621795221, 4.060246394230489 -1.07421875 C3.082431891025408 -1.421023637820478, 0.6767077323717482 -0.17903645833333334, 0 0" stroke="#000000" stroke-width="1.5" fill="none"></path></g></g><g><g transform="translate(67.16670094216931 16.418162622496993) rotate(0 -0.11268028846143352 7.151442307692378)"><path d="M0 0 C-0.03756009615381117 2.3838141025641257, -0.18780048076905587 11.91907051282063, -0.22536057692286704 14.302884615384755 M0 0 C-0.03756009615381117 2.3838141025641257, -0.18780048076905587 11.91907051282063, -0.22536057692286704 14.302884615384755" stroke="#000000" stroke-width="1.5" fill="none"></path></g></g><g><g transform="translate(67.36576945178456 22.56299435326605) rotate(0 1.6075721153847553 -1.0422926682690559)"><path d="M0 0 C0.5358573717949184 -0.34743088942301864, 2.679286858974592 -1.737154447115093, 3.2151442307695106 -2.0845853365381117 M0 0 C0.5358573717949184 -0.34743088942301864, 2.679286858974592 -1.737154447115093, 3.2151442307695106 -2.0845853365381117" stroke="#000000" stroke-width="1.5" fill="none"></path></g></g><g><g transform="translate(68.85690526909218 20.478409016727937) rotate(0 4.877178485577133 5.54011418269215)"><path d="M0 0 C1.6257261618590444 1.84670472756405, 8.128630809295222 9.23352363782025, 9.754356971154266 11.0802283653843 M0 0 C1.6257261618590444 1.84670472756405, 8.128630809295222 9.23352363782025, 9.754356971154266 11.0802283653843" stroke="#000000" stroke-width="1.5" fill="none"></path></g></g><g><g transform="translate(79.58406873063029 14.510109737881749) rotate(0 0.8375901442309441 6.208683894230717)"><path d="M0 0 C0.27919671474364804 2.0695612980769056, 1.3959835737182402 10.347806490384528, 1.6751802884618883 12.417367788461434 M0 0 C0.27919671474364804 2.0695612980769056, 1.3959835737182402 10.347806490384528, 1.6751802884618883 12.417367788461434" stroke="#000000" stroke-width="1.5" fill="none"></path></g></g><g><g transform="translate(83.32881031716931 19.520626564804616) rotate(0 6.399178372896841 6.791374323918262)"><path d="M0 0 C1.3177333733974592 -0.13834635416666666, 7.405598958333485 -0.785632011217937, 7.906400240384755 -0.830078125 C8.407201522436026 -0.874524238782063, 4.355719150640955 -0.7893880208334091, 3.0048076923076223 -0.26667668269237765 C1.653896233974289 0.2560346554486538, 0.33491085737189985 1.307717347756428, -0.1990685096152447 2.306189903846189 C-0.7330478766023892 3.3046624599359498, -1.0585687099357224 3.884339943910315, -0.1990685096152447 5.724158653846189 C0.6604316907052331 7.563977363782063, 2.9910356570512704 11.951622596153735, 4.957932692307622 13.345102163461434 C6.924829727563974 14.738581730769132, 10.248898237179219 14.538887219551347, 11.602313701922867 14.085036057692378 C12.955729166666515 13.631184895833409, 14.228390424679825 11.199168669871748, 13.07842548076951 10.621995192307622 C11.928460536859196 10.044821714743497, 6.628104967948275 10.87990785256405, 4.702524038460979 10.621995192307622 C2.7769431089736827 10.364082532051194, 2.0545372596149414 9.995367588140804, 1.524939903845734 9.074519230769056 C0.9953425480765267 8.153670873397308, 0.3918770032046268 6.158603766025787, 1.524939903845734 5.096905048077133 C2.6580028044868413 4.035206330128479, 6.41463842147444 3.1030899439104664, 8.323317307692378 2.704326923077133 C10.231996193910314 2.3055639022437995, 12.201397235576527 2.704326923077133, 12.977013221153356 2.704326923077133 M0 0 C1.3177333733974592 -0.13834635416666666, 7.405598958333485 -0.785632011217937, 7.906400240384755 -0.830078125 C8.407201522436026 -0.874524238782063, 4.355719150640955 -0.7893880208334091, 3.0048076923076223 -0.26667668269237765 C1.653896233974289 0.2560346554486538, 0.33491085737189985 1.307717347756428, -0.1990685096152447 2.306189903846189 C-0.7330478766023892 3.3046624599359498, -1.0585687099357224 3.884339943910315, -0.1990685096152447 5.724158653846189 C0.6604316907052331 7.563977363782063, 2.9910356570512704 11.951622596153735, 4.957932692307622 13.345102163461434 C6.924829727563974 14.738581730769132, 10.248898237179219 14.538887219551347, 11.602313701922867 14.085036057692378 C12.955729166666515 13.631184895833409, 14.228390424679825 11.199168669871748, 13.07842548076951 10.621995192307622 C11.928460536859196 10.044821714743497, 6.628104967948275 10.87990785256405, 4.702524038460979 10.621995192307622 C2.7769431089736827 10.364082532051194, 2.0545372596149414 9.995367588140804, 1.524939903845734 9.074519230769056 C0.9953425480765267 8.153670873397308, 0.3918770032046268 6.158603766025787, 1.524939903845734 5.096905048077133 C2.6580028044868413 4.035206330128479, 6.41463842147444 3.1030899439104664, 8.323317307692378 2.704326923077133 C10.231996193910314 2.3055639022437995, 12.201397235576527 2.704326923077133, 12.977013221153356 2.704326923077133" stroke="#000000" stroke-width="1.5" fill="none"></path></g></g><g><g transform="translate(68.17331151909218 57.51641983403556) rotate(0 3.4110304612378286 -2.4065805288462627)"><path d="M0 0 C0 0.11330629006405009, -0.8031600560896853 0.6084735576919987, 0 0.6798377403843006 C0.8031600560896853 0.7512019230766024, 3.6333133012817598 1.3665614983973833, 4.818960336538112 0.4281850961538112 C6.004607371794464 -0.510191306089761, 7.503255208332878 -4.008288261218165, 7.113882211538112 -4.950420673077133 C6.724509214743345 -5.892553084936101, 3.6683693910258626 -6.049679487179522, 2.4827223557695106 -5.224609375 C1.2970753205131587 -4.399539262820478, 0.41378705929491844 -0.8707682291666666, 0 0 M0 0 C0 0.11330629006405009, -0.8031600560896853 0.6084735576919987, 0 0.6798377403843006 C0.8031600560896853 0.7512019230766024, 3.6333133012817598 1.3665614983973833, 4.818960336538112 0.4281850961538112 C6.004607371794464 -0.510191306089761, 7.503255208332878 -4.008288261218165, 7.113882211538112 -4.950420673077133 C6.724509214743345 -5.892553084936101, 3.6683693910258626 -6.049679487179522, 2.4827223557695106 -5.224609375 C1.2970753205131587 -4.399539262820478, 0.41378705929491844 -0.8707682291666666, 0 0" stroke="#000000" stroke-width="1.5" fill="none"></path></g></g><g><g transform="translate(57.825505028707425 56.72014579557367) rotate(0 3.6770197941709455 -3.9718120868387103)"><path d="M0 0 C0.8970602964744406 -0.09202223557690559, 4.131610576923474 0.3756009615385665, 5.382361778846644 -0.5521334134614335 C6.6331129807698135 -1.4798677884614335, 7.232196514423625 -4.393279246794918, 7.504507211539021 -5.56640625 C7.776817908654418 -6.739533253205082, 7.629707532051877 -7.253480568909936, 7.016225961539021 -7.590895432691923 C6.402744391026165 -7.92831029647391, 4.992988782051725 -8.268855168268828, 3.8236177884618883 -7.590895432691923 C2.6542467948720514 -6.912935697115017, 0.6372696314103147 -4.7882862580124765, 0 -3.5231370192304894 C-0.6372696314103147 -2.2579877804485022, 0 -0.5871895032050816, 0 0 M0 0 C0.8970602964744406 -0.09202223557690559, 4.131610576923474 0.3756009615385665, 5.382361778846644 -0.5521334134614335 C6.6331129807698135 -1.4798677884614335, 7.232196514423625 -4.393279246794918, 7.504507211539021 -5.56640625 C7.776817908654418 -6.739533253205082, 7.629707532051877 -7.253480568909936, 7.016225961539021 -7.590895432691923 C6.402744391026165 -7.92831029647391, 4.992988782051725 -8.268855168268828, 3.8236177884618883 -7.590895432691923 C2.6542467948720514 -6.912935697115017, 0.6372696314103147 -4.7882862580124765, 0 -3.5231370192304894 C-0.6372696314103147 -2.2579877804485022, 0 -0.5871895032050816, 0 0" stroke="#000000" stroke-width="1.5" fill="none"></path></g></g><g><g transform="translate(64.28959757678456 65.58432848788175) rotate(0 6.812272761418171 1.7284536508411037)"><path d="M0 0 C0.18216646634618883 0.4669971955127797, -0.5940755208331818 2.0889673477562005, 1.092998798077133 2.801983173076678 C2.780073116987448 3.514998998397156, 8.093574719551725 4.415189302884376, 10.122445913461888 4.278094951922867 C12.151317107372051 4.141000600961358, 12.784204727563823 2.7950971554486537, 13.266225961538112 1.9794170673076223 C13.7482471955124 1.163736979166591, 13.883463541666515 -0.18341846955149776, 13.014573317307622 -0.6159855769233218 C12.14568309294873 -1.0485526842951458, 10.22198016826936 -0.7186498397438754, 8.052884615384755 -0.6159855769233218 C5.883789062500151 -0.5133213141027682, 1.3421474358974592 -0.10266426282055363, 0 0 M0 0 C0.18216646634618883 0.4669971955127797, -0.5940755208331818 2.0889673477562005, 1.092998798077133 2.801983173076678 C2.780073116987448 3.514998998397156, 8.093574719551725 4.415189302884376, 10.122445913461888 4.278094951922867 C12.151317107372051 4.141000600961358, 12.784204727563823 2.7950971554486537, 13.266225961538112 1.9794170673076223 C13.7482471955124 1.163736979166591, 13.883463541666515 -0.18341846955149776, 13.014573317307622 -0.6159855769233218 C12.14568309294873 -1.0485526842951458, 10.22198016826936 -0.7186498397438754, 8.052884615384755 -0.6159855769233218 C5.883789062500151 -0.5133213141027682, 1.3421474358974592 -0.10266426282055363, 0 0" stroke="#000000" stroke-width="1.5" fill="none"></path></g></g><g><g transform="translate(53.54741007678456 66.91019988211224) rotate(0 5.182889498197255 -1.1466975285456442)"><path d="M0 0 C0 -0.2785707131410315, -0.8125500801282518 -1.0692107371795223, 0 -1.6714242788461888 C0.8125500801282518 -2.2736378205128553, 3.354742588141259 -3.4129607371795223, 4.875300480769511 -3.61328125 C6.395858373397762 -3.8136017628204777, 8.252579126602845 -3.6952874599357224, 9.12334735576951 -2.873347355769056 C9.994115584936177 -2.0514072516023893, 11.620467748397763 0.8394681490384908, 10.09990985576951 1.318359375 C8.579351963141258 1.7972506009615092, 1.6833183092949184 0.2197265625, 0 0 M0 0 C0 -0.2785707131410315, -0.8125500801282518 -1.0692107371795223, 0 -1.6714242788461888 C0.8125500801282518 -2.2736378205128553, 3.354742588141259 -3.4129607371795223, 4.875300480769511 -3.61328125 C6.395858373397762 -3.8136017628204777, 8.252579126602845 -3.6952874599357224, 9.12334735576951 -2.873347355769056 C9.994115584936177 -2.0514072516023893, 11.620467748397763 0.8394681490384908, 10.09990985576951 1.318359375 C8.579351963141258 1.7972506009615092, 1.6833183092949184 0.2197265625, 0 0" stroke="#000000" stroke-width="1.5" fill="none"></path></g></g><g><g transform="translate(50.020517047938824 57.88075276672794) rotate(0 -1.5762723482575325 -2.998392427884909)"><path d="M0 0 C0 -0.6090995592949184, 0.31487880608983687 -2.593524639423322, 0 -3.6545973557695106 C-0.31487880608983687 -4.715670072115699, -1.0172526041671213 -5.8725210336540385, -1.8892728365390212 -6.366436298077133 C-2.761293068910921 -6.860351562500227, -4.290614983975047 -6.951121794872203, -5.232121394231399 -6.618088942308077 C-6.173627804487751 -6.285056089743951, -7.153946314102844 -5.1620092147437235, -7.538311298077133 -4.368239182692378 C-7.922676282051422 -3.5744691506410313, -8.472305689102692 -2.710586939102541, -7.538311298077133 -1.85546875 C-6.604316907051573 -1.0003505608974592, -3.8793319310904435 0.4926632612177855, -1.9343449519237765 0.762469951922867 C0.010642027242890206 1.0322766426279486, 3.081805889422867 0.3536909054484264, 4.131610576922867 -0.2366286057695106 C5.181415264422867 -0.8269481169874476, 5.053084935896702 -2.8188852163463403, 4.3644831730762235 -2.7794471153847553 C3.6758814102557458 -2.7400090144231704, 0.7274138621793705 -0.4632411858974592, 0 0 M0 0 C0 -0.6090995592949184, 0.31487880608983687 -2.593524639423322, 0 -3.6545973557695106 C-0.31487880608983687 -4.715670072115699, -1.0172526041671213 -5.8725210336540385, -1.8892728365390212 -6.366436298077133 C-2.761293068910921 -6.860351562500227, -4.290614983975047 -6.951121794872203, -5.232121394231399 -6.618088942308077 C-6.173627804487751 -6.285056089743951, -7.153946314102844 -5.1620092147437235, -7.538311298077133 -4.368239182692378 C-7.922676282051422 -3.5744691506410313, -8.472305689102692 -2.710586939102541, -7.538311298077133 -1.85546875 C-6.604316907051573 -1.0003505608974592, -3.8793319310904435 0.4926632612177855, -1.9343449519237765 0.762469951922867 C0.010642027242890206 1.0322766426279486, 3.081805889422867 0.3536909054484264, 4.131610576922867 -0.2366286057695106 C5.181415264422867 -0.8269481169874476, 5.053084935896702 -2.8188852163463403, 4.3644831730762235 -2.7794471153847553 C3.6758814102557458 -2.7400090144231704, 0.7274138621793705 -0.4632411858974592, 0 0" stroke="#000000" stroke-width="1.5" fill="none"></path></g></g><g><g transform="translate(71.13680310563029 71.78550036288175) rotate(0 -0.30617206280012965 2.5002112755406927)"><path d="M0 0 C-0.8056640625 0.040690104166666664, -4.019556290064126 -0.3054887820512704, -4.833984375 0.244140625 C-5.648412459935874 0.7937700320512704, -5.447465945512704 2.525290464743572, -4.886568509615245 3.2977764423076223 C-4.3256710737177855 4.070262419871672, -2.8739733573717485 4.615509815704854, -1.4685997596152447 4.879056490384301 C-0.06322616185874108 5.142603165063747, 2.546574519231399 5.122571113781684, 3.5456730769237765 4.879056490384301 C4.544771634616154 4.635541866986917, 5.11693709935965 4.231144831730717, 4.525991586539021 3.41796875 C3.9350460737183917 2.6047926682692832, 0.7543319310898369 0.5696614583333334, 0 0 M0 0 C-0.8056640625 0.040690104166666664, -4.019556290064126 -0.3054887820512704, -4.833984375 0.244140625 C-5.648412459935874 0.7937700320512704, -5.447465945512704 2.525290464743572, -4.886568509615245 3.2977764423076223 C-4.3256710737177855 4.070262419871672, -2.8739733573717485 4.615509815704854, -1.4685997596152447 4.879056490384301 C-0.06322616185874108 5.142603165063747, 2.546574519231399 5.122571113781684, 3.5456730769237765 4.879056490384301 C4.544771634616154 4.635541866986917, 5.11693709935965 4.231144831730717, 4.525991586539021 3.41796875 C3.9350460737183917 2.6047926682692832, 0.7543319310898369 0.5696614583333334, 0 0" stroke="#000000" stroke-width="1.5" fill="none"></path></g></g></svg>