<svg version="1.1" xmlns="http://www.w3.org/2000/svg" viewBox="0 0 117.5 216.25" width="117.5" height="216.25">
  <!-- svg-source:excalidraw -->
  
  <defs>
    <style>
      @font-face {
        font-family: "Virgil";
        src: url("https://excalidraw.com/Virgil.woff2");
      }
      @font-face {
        font-family: "Cascadia";
        src: url("https://excalidraw.com/Cascadia.woff2");
      }
    </style>
  </defs>
  <rect x="0" y="0" width="117.5" height="216.25" fill="#ffffff"></rect><g transform="translate(10 10) rotate(0 48.75 98.125)"><path d="M-1.7656053751707077 0.462935134768486 C29.912350872531537 1.14588102158159, 62.502981070429094 -2.2408429736271502, 96.3080874234438 1.1880170553922653 M-0.6687606945633888 0.25251273065805435 C22.30201569013298 -0.29336414244025943, 46.18742677941919 1.210357809998095, 97.32980474084616 0.5046453848481178 M96.57045848667622 -1.8983896523714066 C97.67540258327499 53.82665054406971, 98.29260295787826 108.42685858719051, 96.79461820423603 194.76533667743206 M97.49601300805807 -0.45608802884817123 C98.3071422859095 76.51629423443228, 97.72254493674264 154.1195740196854, 96.55984791368246 196.16864136606455 M97.21409375965595 195.2698723524809 C61.31885891221464 197.31175576988608, 23.173212077468634 194.33839237038046, -0.6725100725889206 197.51628606021404 M96.74613674730062 196.516928948462 C64.8170098233968 196.87109714951367, 30.844998072832823 196.81926185097547, 0.42382510751485825 196.71176484972239 M0.4782887250185013 195.72504536807537 C-1.190086092147976 139.44630883727223, -1.6556799069978294 84.81520109064876, -0.32718412578105927 -1.5049355775117874 M0.6243351325392723 195.5311828032136 C-1.4521804108284413 144.4466657852754, -1.275409962143749 93.77087832055985, 0.11289843171834946 -0.27980252355337143" stroke="#000000" stroke-width="1" fill="none"></path></g><g><g transform="translate(27.650474980630406 52.97074675711224) rotate(0 32.469125600961796 62.818644831730865)"><path d="M0 0 C5.635892427884755 1.8360627003205536, 25.748697916667425 9.130233373397687, 33.81535456730853 11.016376201923322 C41.88201121794964 12.902519030448957, 44.00916466346204 11.859600360576906, 48.399939903846644 11.316856971153811 C52.79071514423125 10.774113581730717, 57.36741286057774 8.943058894230868, 60.160006009616154 7.759915865384755 C62.95259915865457 6.576772836538642, 65.10041065705157 0.19030448717967374, 65.15549879807713 4.217998798077133 C65.2105869391027 8.245693108974592, 61.73627804487205 13.056515424679748, 60.49053485576951 31.92608173076951 C59.24479166666697 50.795648036859276, 65.25190304487205 102.82013721955165, 57.68103966346189 117.4353966346157 C50.110176282051725 132.05065604967976, 23.135141225962343 123.50636017628206, 15.065354567308532 119.61763822115381 C6.995567908654721 115.72891626602556, 11.66553986378267 108.97060296474358, 9.262319711539021 94.10306490384619 C6.859099559295373 79.2355268429488, 2.1897536057698135 46.09625400641054, 0.6460336538466436 30.41240985576951 C-0.8976862980765266 14.72856570512848, 0.10767227564110726 5.068734975961585, 0 0 M0 0 C5.635892427884755 1.8360627003205536, 25.748697916667425 9.130233373397687, 33.81535456730853 11.016376201923322 C41.88201121794964 12.902519030448957, 44.00916466346204 11.859600360576906, 48.399939903846644 11.316856971153811 C52.79071514423125 10.774113581730717, 57.36741286057774 8.943058894230868, 60.160006009616154 7.759915865384755 C62.95259915865457 6.576772836538642, 65.10041065705157 0.19030448717967374, 65.15549879807713 4.217998798077133 C65.2105869391027 8.245693108974592, 61.73627804487205 13.056515424679748, 60.49053485576951 31.92608173076951 C59.24479166666697 50.795648036859276, 65.25190304487205 102.82013721955165, 57.68103966346189 117.4353966346157 C50.110176282051725 132.05065604967976, 23.135141225962343 123.50636017628206, 15.065354567308532 119.61763822115381 C6.995567908654721 115.72891626602556, 11.66553986378267 108.97060296474358, 9.262319711539021 94.10306490384619 C6.859099559295373 79.2355268429488, 2.1897536057698135 46.09625400641054, 0.6460336538466436 30.41240985576951 C-0.8976862980765266 14.72856570512848, 0.10767227564110726 5.068734975961585, 0 0" stroke="#000000" stroke-width="1.5" fill="none"></path></g></g><g><g transform="translate(56.05717570178467 88.40869747826605) rotate(0 -3.0070453350362243 15.130516639122632)"><path d="M0 0 C0.050080128205081564 1.462965745192302, -1.014748597756655 4.027068309294843, 0.3004807692304894 8.777794471153811 C1.6157101362176338 13.528520633012779, 8.682642227563823 25.092648237179446, 7.891376201922867 28.50435697115381 C7.100110176281912 31.916065705128176, -1.1662409855768296 29.634915865384603, -4.447115384615245 29.248046875 C-7.72798978365366 28.861177884615397, -10.262044270833181 27.08708934294873, -11.793870192307622 26.18314302884619 C-13.325696113782064 25.279196714743648, -13.360752203526014 27.333107972756505, -13.638070913461888 23.824368990384755 C-13.915389623397763 20.315630008013006, -14.174554286858893 9.033203125000304, -13.457782451922867 5.130709134615699 C-12.741010616986841 1.2282151442310956, -11.58040364583288 1.2645232371797497, -9.337439903845734 0.40940504807713296 C-7.094476161858589 -0.44571314102548365, -1.556239983974289 0.06823417467952216, 0 0 M0 0 C0.050080128205081564 1.462965745192302, -1.014748597756655 4.027068309294843, 0.3004807692304894 8.777794471153811 C1.6157101362176338 13.528520633012779, 8.682642227563823 25.092648237179446, 7.891376201922867 28.50435697115381 C7.100110176281912 31.916065705128176, -1.1662409855768296 29.634915865384603, -4.447115384615245 29.248046875 C-7.72798978365366 28.861177884615397, -10.262044270833181 27.08708934294873, -11.793870192307622 26.18314302884619 C-13.325696113782064 25.279196714743648, -13.360752203526014 27.333107972756505, -13.638070913461888 23.824368990384755 C-13.915389623397763 20.315630008013006, -14.174554286858893 9.033203125000304, -13.457782451922867 5.130709134615699 C-12.741010616986841 1.2282151442310956, -11.58040364583288 1.2645232371797497, -9.337439903845734 0.40940504807713296 C-7.094476161858589 -0.44571314102548365, -1.556239983974289 0.06823417467952216, 0 0" stroke="#000000" stroke-width="1.5" fill="none"></path></g></g><g><g transform="translate(54.130342769092294 94.84274194941986) rotate(0 -5.658428485576678 -0.4770132211538112)"><path d="M0 0 C-1.8861428285255595 -0.1590044070512704, -9.430714142627798 -0.795022035256352, -11.316856971153356 -0.9540264423076223 M0 0 C-1.8861428285255595 -0.1590044070512704, -9.430714142627798 -0.795022035256352, -11.316856971153356 -0.9540264423076223" stroke="#000000" stroke-width="1.5" fill="none"></path></g></g><g><g transform="translate(56.90978988447705 100.82982127634318) rotate(0 -6.204927884615245 0)"><path d="M0 0 C-2.068309294871748 0, -10.341546474358742 0, -12.40985576923049 0 M0 0 C-2.068309294871748 0, -10.341546474358742 0, -12.40985576923049 0" stroke="#000000" stroke-width="1.5" fill="none"></path></g></g><g><g transform="translate(54.50969974024656 102.62894988211224) rotate(0 -5.080003004808077 3.1437800480769056)"><path d="M0 0 C-1.6933343349360257 1.047926682692302, -8.466671674680128 5.239633413461509, -10.160006009616154 6.287560096153811 M0 0 C-1.6933343349360257 1.047926682692302, -8.466671674680128 5.239633413461509, -10.160006009616154 6.287560096153811" stroke="#000000" stroke-width="1.5" fill="none"></path></g></g><g><g transform="translate(54.23175502870754 108.91650997826605) rotate(0 -0.6505981445309423 1.6284649188703924)"><path d="M0 0 C-0.9083283253204778 1.355919471153887, -4.828350360576678 7.717973758013007, -5.449969951922867 8.135516826923322 C-6.071589543269056 8.553059895833636, -4.979842748397611 4.556039663461888, -3.729717548077133 2.5052584134618883 C-2.479592347756655 0.45447716346188827, 0.8112980769230187 -3.0148237179484267, 2.05078125 -4.169170673076678 C3.290264423076981 -5.32351762820493, 3.3923026842949184 -4.822716346153736, 3.7071814903847553 -4.420823317307622 C4.022060296474592 -4.018930288461509, 4.80018028846204 -2.7437650240384905, 3.9400540865390212 -1.7578125 C3.0799278846160028 -0.7718599759615093, -0.7969000400635196 1.2019230769233218, -1.4535757211533564 1.4948918269233218 C-2.1102514022431933 1.7878605769233218, -0.24226262019222608 0.24914863782055363, 0 0 M0 0 C-0.9083283253204778 1.355919471153887, -4.828350360576678 7.717973758013007, -5.449969951922867 8.135516826923322 C-6.071589543269056 8.553059895833636, -4.979842748397611 4.556039663461888, -3.729717548077133 2.5052584134618883 C-2.479592347756655 0.45447716346188827, 0.8112980769230187 -3.0148237179484267, 2.05078125 -4.169170673076678 C3.290264423076981 -5.32351762820493, 3.3923026842949184 -4.822716346153736, 3.7071814903847553 -4.420823317307622 C4.022060296474592 -4.018930288461509, 4.80018028846204 -2.7437650240384905, 3.9400540865390212 -1.7578125 C3.0799278846160028 -0.7718599759615093, -0.7969000400635196 1.2019230769233218, -1.4535757211533564 1.4948918269233218 C-2.1102514022431933 1.7878605769233218, -0.24226262019222608 0.24914863782055363, 0 0" stroke="#000000" stroke-width="1.5" fill="none"></path></g></g><g><g transform="translate(81.04966368255418 116.5299414686508) rotate(0 -7.98841646634645 14.849461012620111)"><path d="M0 0 C-3.3747746394231704 4.745092147435874, -19.15439703525696 23.408703926281913, -20.24864783653902 28.470552884615245 C-21.342898637821083 33.53240184294858, -9.48955829326936 30.44746594551278, -6.565504807692378 30.37109375 C-3.641451322115396 30.29472155448722, -4.336313100961736 30.090645032051423, -2.704326923077133 28.012319711538566 C-1.0723407451925293 25.93399439102571, 2.108373397435723 21.955754206730564, 3.2264122596152447 17.901141826922867 C4.344451121794767 13.84652944711517, 4.512219551282063 6.9242037259615845, 4.00390625 3.6846454326923777 C3.495592948717937 0.44508713942317035, 0.8438501602562004 -0.9221003605769814, 0.17653245192286704 -1.5362079326923777 C-0.49078525641046633 -2.150315504807774, 0.02942207532047784 -0.2560346554487296, 0 0 M0 0 C-3.3747746394231704 4.745092147435874, -19.15439703525696 23.408703926281913, -20.24864783653902 28.470552884615245 C-21.342898637821083 33.53240184294858, -9.48955829326936 30.44746594551278, -6.565504807692378 30.37109375 C-3.641451322115396 30.29472155448722, -4.336313100961736 30.090645032051423, -2.704326923077133 28.012319711538566 C-1.0723407451925293 25.93399439102571, 2.108373397435723 21.955754206730564, 3.2264122596152447 17.901141826922867 C4.344451121794767 13.84652944711517, 4.512219551282063 6.9242037259615845, 4.00390625 3.6846454326923777 C3.495592948717937 0.44508713942317035, 0.8438501602562004 -0.9221003605769814, 0.17653245192286704 -1.5362079326923777 C-0.49078525641046633 -2.150315504807774, 0.02942207532047784 -0.2560346554487296, 0 0" stroke="#000000" stroke-width="1.5" fill="none"></path></g></g><g><g transform="translate(68.61351584601516 132.654490747497) rotate(0 1.9539184570313637 4.351337139423094)"><path d="M0 0 C0 0.6666917067307926, -0.6197415865385665 2.5497045272437235, 0 4.000150240384755 C0.6197415865385665 5.450595953525787, 3.0993339342955246 8.802208533653888, 3.718449519231399 8.702674278846189 C4.337565104167273 8.60314002403849, 4.334435096153811 4.853390424679598, 3.7146935096152447 3.4029447115385665 C3.094951923076678 1.952498998397535, 0.6191155849358742 0.5671574519230944, 0 0 M0 0 C0 0.6666917067307926, -0.6197415865385665 2.5497045272437235, 0 4.000150240384755 C0.6197415865385665 5.450595953525787, 3.0993339342955246 8.802208533653888, 3.718449519231399 8.702674278846189 C4.337565104167273 8.60314002403849, 4.334435096153811 4.853390424679598, 3.7146935096152447 3.4029447115385665 C3.094951923076678 1.952498998397535, 0.6191155849358742 0.5671574519230944, 0 0" stroke="#000000" stroke-width="1.5" fill="none"></path></g></g><g><g transform="translate(72.14416488447705 127.89938257441986) rotate(0 3.644230769230525 1.0901029146636034)"><path d="M0 0 C0.7512019230769814 0.4244290865384907, 3.390424679487599 2.28490584935912, 4.507211538461888 2.546574519230944 C5.623998397436178 2.808243189102768, 6.335136217948427 2.052033253205309, 6.700721153845734 1.5700120192309441 C7.066306089743041 1.0879907852565793, 7.817508012820023 -0.08388421474342067, 6.700721153845734 -0.3455528846152447 C5.583934294871445 -0.6072215544870687, 1.116786858974289 -0.05759214743587412, 0 0 M0 0 C0.7512019230769814 0.4244290865384907, 3.390424679487599 2.28490584935912, 4.507211538461888 2.546574519230944 C5.623998397436178 2.808243189102768, 6.335136217948427 2.052033253205309, 6.700721153845734 1.5700120192309441 C7.066306089743041 1.0879907852565793, 7.817508012820023 -0.08388421474342067, 6.700721153845734 -0.3455528846152447 C5.583934294871445 -0.6072215544870687, 1.116786858974289 -0.05759214743587412, 0 0" stroke="#000000" stroke-width="1.5" fill="none"></path></g></g><g><g transform="translate(75.87388243255418 70.3873633436508) rotate(0 4.2125150240378275 11.661647385817176)"><path d="M0 0 C-0.05508814102571099 2.001327123397459, 0.2197265624996968 8.10734675480785, -0.3305288461542659 12.007962740384755 C-0.8807842548082286 15.908578725961661, -3.6808894230775877 21.750425681089684, -3.3015324519237765 23.403695913461434 C-2.9221754807699654 25.056966145833183, -0.28232672275711 22.928560697115245, 1.9456129807686011 21.927584134615245 C4.173552684294313 20.926607572115245, 8.47919170673049 20.117187499999847, 10.06610576923049 17.397836538461434 C11.65301983173049 14.678485576923018, 12.115635016024953 8.410331530448806, 11.467097355768601 5.611478365384755 C10.81855969551225 2.812625200320705, 8.253831129807773 1.6532702323720514, 6.174879807692378 0.604717548077133 C4.095928485576982 -0.4438351362177855, -0.6172375801288581 -0.665439703525711, -1.0066105769237765 -0.6798377403847553 C-1.395983573718695 -0.6942357772437996, 2.374424078525408 -0.33866686698744763, 3.838641826922867 0.518329326922867 C5.302859575320326 1.3753255208331816, 7.122020232371294 3.323442508013007, 7.778695913460979 4.462139423077133 C8.435371594550665 5.600836338141259, 9.289237780448124 4.55603966346151, 7.778695913460979 7.350510817307622 C6.268154046473835 10.144981971153735, 0.2723106971149416 20.64803685897429, -1.2845552884618883 21.22896634615381 C-2.8414212740387184 21.809895833333332, -1.839818709935874 12.928185096153962, -1.5625 10.836087740384755 C-1.285181290064126 8.743990384615548, 0.25666065705081564 9.315529847756503, 0.3793569711533564 8.676382211538566 C0.5020532852558972 8.03723457532063, -0.995342548077133 7.645983573718165, -0.8263221153847553 7.001201923077133 C-0.6573016826923777 6.356420272436101, 1.2739132612179371 5.37672776442317, 1.3934795673076223 4.807692307692378 C1.5130458733973076 4.238656850961585, 0.12332231570462682 4.38827123397444, -0.10892427884664357 3.5869891826923777 C-0.34117087339791397 2.7857071314103146, -0.018154046474440595 0.5978315304487296, 0 0 M0 0 C-0.05508814102571099 2.001327123397459, 0.2197265624996968 8.10734675480785, -0.3305288461542659 12.007962740384755 C-0.8807842548082286 15.908578725961661, -3.6808894230775877 21.750425681089684, -3.3015324519237765 23.403695913461434 C-2.9221754807699654 25.056966145833183, -0.28232672275711 22.928560697115245, 1.9456129807686011 21.927584134615245 C4.173552684294313 20.926607572115245, 8.47919170673049 20.117187499999847, 10.06610576923049 17.397836538461434 C11.65301983173049 14.678485576923018, 12.115635016024953 8.410331530448806, 11.467097355768601 5.611478365384755 C10.81855969551225 2.812625200320705, 8.253831129807773 1.6532702323720514, 6.174879807692378 0.604717548077133 C4.095928485576982 -0.4438351362177855, -0.6172375801288581 -0.665439703525711, -1.0066105769237765 -0.6798377403847553 C-1.395983573718695 -0.6942357772437996, 2.374424078525408 -0.33866686698744763, 3.838641826922867 0.518329326922867 C5.302859575320326 1.3753255208331816, 7.122020232371294 3.323442508013007, 7.778695913460979 4.462139423077133 C8.435371594550665 5.600836338141259, 9.289237780448124 4.55603966346151, 7.778695913460979 7.350510817307622 C6.268154046473835 10.144981971153735, 0.2723106971149416 20.64803685897429, -1.2845552884618883 21.22896634615381 C-2.8414212740387184 21.809895833333332, -1.839818709935874 12.928185096153962, -1.5625 10.836087740384755 C-1.285181290064126 8.743990384615548, 0.25666065705081564 9.315529847756503, 0.3793569711533564 8.676382211538566 C0.5020532852558972 8.03723457532063, -0.995342548077133 7.645983573718165, -0.8263221153847553 7.001201923077133 C-0.6573016826923777 6.356420272436101, 1.2739132612179371 5.37672776442317, 1.3934795673076223 4.807692307692378 C1.5130458733973076 4.238656850961585, 0.12332231570462682 4.38827123397444, -0.10892427884664357 3.5869891826923777 C-0.34117087339791397 2.7857071314103146, -0.018154046474440595 0.5978315304487296, 0 0" stroke="#000000" stroke-width="1.5" fill="none"></path></g></g><g><g transform="translate(81.1172718556304 114.52423233403556) rotate(0 -8.812273700420509 16.639317908653652)"><path d="M0 0 C0.09139623397444059 3.0417417868589687, 2.3450020032055363 12.906275040064127, 0.5483774038466436 18.25045072115381 C-1.2482471955122492 23.594626402243495, -7.636593549678915 29.681239983974063, -10.779747596153356 32.06505408653811 C-13.922901642627798 34.448868189102164, -17.055413661858893 32.59465144230732, -18.310546875 32.55333533653811 C-19.565680088141107 32.51201923076891, -18.310546875 31.939853766025408, -18.310546875 31.817157451922867 M0 0 C0.09139623397444059 3.0417417868589687, 2.3450020032055363 12.906275040064127, 0.5483774038466436 18.25045072115381 C-1.2482471955122492 23.594626402243495, -7.636593549678915 29.681239983974063, -10.779747596153356 32.06505408653811 C-13.922901642627798 34.448868189102164, -17.055413661858893 32.59465144230732, -18.310546875 32.55333533653811 C-19.565680088141107 32.51201923076891, -18.310546875 31.939853766025408, -18.310546875 31.817157451922867" stroke="#000000" stroke-width="1.5" fill="none"></path></g></g><g><g transform="translate(59.828209355630406 116.47735733403556) rotate(0 -12.441235351562426 -15.34345609224765)"><path d="M0 0 C-2.3700420673076223 0, -10.377228565704778 1.7966245993589685, -14.220252403845734 0 C-18.06327624198669 -1.7966245993589685, -21.395482772435418 -7.7730618990384155, -23.058143028845734 -10.779747596153811 C-24.72080328525605 -13.786433293269207, -25.597205528846036 -14.947040264423094, -24.196213942307622 -18.040114182692378 C-22.79522235576921 -21.13318810096166, -17.349634415063974 -27.122771434295146, -14.652193509615245 -29.33819110576951 C-11.954752604166515 -31.553610777243875, -8.988757011217785 -31.00022536057706, -8.011568509615245 -31.332632211538566 C-7.034380008012704 -31.665039062500075, -8.659480168269207 -31.332632211538566, -8.7890625 -31.332632211538566 M0 0 C-2.3700420673076223 0, -10.377228565704778 1.7966245993589685, -14.220252403845734 0 C-18.06327624198669 -1.7966245993589685, -21.395482772435418 -7.7730618990384155, -23.058143028845734 -10.779747596153811 C-24.72080328525605 -13.786433293269207, -25.597205528846036 -14.947040264423094, -24.196213942307622 -18.040114182692378 C-22.79522235576921 -21.13318810096166, -17.349634415063974 -27.122771434295146, -14.652193509615245 -29.33819110576951 C-11.954752604166515 -31.553610777243875, -8.988757011217785 -31.00022536057706, -8.011568509615245 -31.332632211538566 C-7.034380008012704 -31.665039062500075, -8.659480168269207 -31.332632211538566, -8.7890625 -31.332632211538566" stroke="#000000" stroke-width="1.5" fill="none"></path></g></g><g><g transform="translate(47.741370413322784 32.64697872826605) rotate(0 8.295147235577133 62.880513822115574)"><path d="M0 0 C1.8285506810898369 -0.1765324519230186, 9.26795372596204 -0.48452524038430056, 10.971304086539021 -1.0591947115381117 C12.674654447116003 -1.633864182691923, 11.827048277243952 -3.3253205128202503, 10.220102163461888 -3.448016826922867 C8.613156049679825 -3.5707131410254838, 2.6479867788466436 -2.304937900640956, 1.3296274038466436 -1.7953725961538112 C0.011268028846643574 -1.2858072916666665, 1.3565454727568067 -0.4181690705128555, 2.3099459134618883 -0.390625 C3.26334635416697 -0.3630809294871445, 6.825921474359196 -1.7352764423074707, 7.050030048077133 -1.6301081730766782 C7.27413862179507 -1.5249399038458857, 3.7810496794874475 -7.203400440705006, 3.6545973557695106 0.2403846153847553 C3.5281450320515737 7.684169671474517, 4.1353665865387175 21.51191907051316, 6.291316105769511 43.03260216346189 C8.447265625000304 64.55328525641062, 14.873798076923473 114.97583633814126, 16.590294471154266 129.36448317307713 M0 0 C1.8285506810898369 -0.1765324519230186, 9.26795372596204 -0.48452524038430056, 10.971304086539021 -1.0591947115381117 C12.674654447116003 -1.633864182691923, 11.827048277243952 -3.3253205128202503, 10.220102163461888 -3.448016826922867 C8.613156049679825 -3.5707131410254838, 2.6479867788466436 -2.304937900640956, 1.3296274038466436 -1.7953725961538112 C0.011268028846643574 -1.2858072916666665, 1.3565454727568067 -0.4181690705128555, 2.3099459134618883 -0.390625 C3.26334635416697 -0.3630809294871445, 6.825921474359196 -1.7352764423074707, 7.050030048077133 -1.6301081730766782 C7.27413862179507 -1.5249399038458857, 3.7810496794874475 -7.203400440705006, 3.6545973557695106 0.2403846153847553 C3.5281450320515737 7.684169671474517, 4.1353665865387175 21.51191907051316, 6.291316105769511 43.03260216346189 C8.447265625000304 64.55328525641062, 14.873798076923473 114.97583633814126, 16.590294471154266 129.36448317307713" stroke="#000000" stroke-width="1.5" fill="none"></path></g></g><g><g transform="translate(58.337073538322784 31.726756372496993) rotate(0 7.350802847055441 66.3029597355769)"><path d="M0 0 C-0.19155649038460373 7.466947115384603, -3.7190755208333335 26.295823317307622, -1.1493389423076223 44.80168269230762 C1.4203976362180888 63.30754206730762, 12.736628605769662 97.02023237179485, 15.418419471154266 111.03515625 C18.10021033653887 125.05008012820515, 16.202173477564127 125.29609875801293, 14.94140625 128.89122596153857 C13.680639022435875 132.4863531650642, 9.035081129807926 131.98680388621793, 7.853816105769511 132.6059194711538 M0 0 C-0.19155649038460373 7.466947115384603, -3.7190755208333335 26.295823317307622, -1.1493389423076223 44.80168269230762 C1.4203976362180888 63.30754206730762, 12.736628605769662 97.02023237179485, 15.418419471154266 111.03515625 C18.10021033653887 125.05008012820515, 16.202173477564127 125.29609875801293, 14.94140625 128.89122596153857 C13.680639022435875 132.4863531650642, 9.035081129807926 131.98680388621793, 7.853816105769511 132.6059194711538" stroke="#000000" stroke-width="1.5" fill="none"></path></g></g><g><g transform="translate(29.693744211399917 51.27678642057367) rotate(0 10.347806490384755 -2.4282602163459615)"><path d="M0 0 C3.449268830128252 -0.8094200721153205, 17.24634415064126 -4.047100360576603, 20.69561298076951 -4.856520432691923 M0 0 C3.449268830128252 -0.8094200721153205, 17.24634415064126 -4.047100360576603, 20.69561298076951 -4.856520432691923" stroke="#000000" stroke-width="1.5" fill="none"></path></g></g><g><g transform="translate(90.50353988447705 54.58583089172794) rotate(0 -16.158353365384755 -3.8718900240386347)"><path d="M0 0 C-1.1055188301282517 -0.14147636217952217, -1.2469951923079252 0.4438351362177855, -6.633112980769511 -0.848858173077133 C-12.019230769231097 -2.1415514823720514, -28.03610777243618 -6.604942908654114, -32.31670673076951 -7.756159855769511 M0 0 C-1.1055188301282517 -0.14147636217952217, -1.2469951923079252 0.4438351362177855, -6.633112980769511 -0.848858173077133 C-12.019230769231097 -2.1415514823720514, -28.03610777243618 -6.604942908654114, -32.31670673076951 -7.756159855769511" stroke="#000000" stroke-width="1.5" fill="none"></path></g></g></svg>