<svg version="1.1" xmlns="http://www.w3.org/2000/svg" viewBox="0 0 255 108.75" width="255" height="108.75">
  <!-- svg-source:excalidraw -->
  
  <defs>
    <style>
      @font-face {
        font-family: "Virgil";
        src: url("https://excalidraw.com/Virgil.woff2");
      }
      @font-face {
        font-family: "Cascadia";
        src: url("https://excalidraw.com/Cascadia.woff2");
      }
    </style>
  </defs>
  <rect x="0" y="0" width="255" height="108.75" fill="#ffffff"></rect><g transform="translate(10 10) rotate(0 117.5 44.375)"><path d="M0.9478201929271817 0.8955727879888414 C80.86243503596884 -0.14724241937106403, 160.84820931925708 -0.4221757811931923, 234.53656875010378 0.39501625916308164 M0.6120995982953011 0.18629331248417497 C67.18104944568239 0.13202385160641816, 133.29021119355167 0.5339882840891376, 235.1278145227557 0.5429479409870207 M235.6062708646059 1.300905391573906 C234.75583192436025 28.273302194662392, 233.68016120521352 56.198991844430566, 233.25181730091572 90.22293250262737 M235.83955701440573 0.2566423788666725 C235.24127005310729 25.401807497255504, 234.81170200081542 52.01380763761699, 234.11847981065512 88.88894013315439 M235.5814224375599 87.71515545406169 C145.98835886349636 89.70653976128513, 56.32919573358566 88.28034143278819, 0.7553531545265316 87.36405815021152 M235.2219840361291 88.4318559871687 C175.54138699642976 89.86702735669618, 116.69920894900949 89.078133869196, -0.6770189249695837 89.09535279322282 M1.1928120404481888 86.98000447452068 C0.05961365373805161 67.92808166425675, 1.182398745138198 49.60191263817251, -0.34752409160137177 0.6645743101835251 M0.7925861701369286 89.67701867967844 C0.5986065658740699 62.73328155744821, 0.03978131143376229 38.53421148844063, 0.8243623599410057 0.7954767122864723" stroke="#000000" stroke-width="1" fill="none"></path></g><g><g transform="translate(30.729535150372044 23.293144225715196) rotate(0 0.49824617346939704 10.048628826530603)"><path d="M0 0 C0.16608205782313235 3.3495429421768677, 0.8304102891156617 16.74771471088434, 0.9964923469387941 20.097257653061206 M0 0 C0.16608205782313235 3.3495429421768677, 0.8304102891156617 16.74771471088434, 0.9964923469387941 20.097257653061206" stroke="#000000" stroke-width="1.5" fill="none"></path></g></g><g><g transform="translate(53.493406323841896 26.24276157265399) rotate(0 -6.860083506058658 9.144144610969228)"><path d="M0 0 C-1.4675010629251422 0.04384566326530148, -6.523038903061055 -0.8217740221088359, -8.805006377550853 0.2630739795918089 C-11.086973852040652 1.3479219812924537, -12.682025935374137 4.607116284013425, -13.691804846938794 6.509088010203868 C-14.701583758503451 8.411059736394312, -14.847071641156466 10.326318027210618, -14.863679846938794 11.674904336734471 C-14.880288052721122 13.023490646258324, -14.556095875850437 13.624043367346985, -13.791454081632764 14.600605867346985 C-13.026812287415092 15.577168367346985, -12.263499149659916 16.996837797618884, -10.275829081632764 17.53427933673447 C-8.288159013605613 18.07172087585006, -3.740832270408646 19.434922406462267, -1.8654336734698518 17.8252551020405 C0.009964923468942288 16.215587797618735, 0.544749149659765 10.232647746598408, 0.9765625 7.876275510203868 C1.408375850340235 5.519903273809328, 0.8882068452382251 4.999734268707243, 0.7254464285715585 3.687021683673265 C0.5626860119048919 2.374309098639287, 0.12090773809525975 0.6145036139455442, 0 0 M0 0 C-1.4675010629251422 0.04384566326530148, -6.523038903061055 -0.8217740221088359, -8.805006377550853 0.2630739795918089 C-11.086973852040652 1.3479219812924537, -12.682025935374137 4.607116284013425, -13.691804846938794 6.509088010203868 C-14.701583758503451 8.411059736394312, -14.847071641156466 10.326318027210618, -14.863679846938794 11.674904336734471 C-14.880288052721122 13.023490646258324, -14.556095875850437 13.624043367346985, -13.791454081632764 14.600605867346985 C-13.026812287415092 15.577168367346985, -12.263499149659916 16.996837797618884, -10.275829081632764 17.53427933673447 C-8.288159013605613 18.07172087585006, -3.740832270408646 19.434922406462267, -1.8654336734698518 17.8252551020405 C0.009964923468942288 16.215587797618735, 0.544749149659765 10.232647746598408, 0.9765625 7.876275510203868 C1.408375850340235 5.519903273809328, 0.8882068452382251 4.999734268707243, 0.7254464285715585 3.687021683673265 C0.5626860119048919 2.374309098639287, 0.12090773809525975 0.6145036139455442, 0 0" stroke="#000000" stroke-width="1.5" fill="none"></path></g></g><g><g transform="translate(85.08221372180049 35.82901795020484) rotate(0 21.91532505580365 27.16993482940046)"><path d="M0 0 C1.4249840561225635 0.9652689200680319, 4.593165391157072 4.416454081632689, 8.54990433673538 5.791613520408191 C12.50664328231369 7.166772959183693, 19.74449936224543 7.841066113945544, 23.740433673469852 8.250956632653015 C27.736367984694272 8.660847151360485, 29.281595450680623 9.254092261904665, 32.52551020408191 8.250956632653015 C35.7694249574832 7.2478210034013655, 48.31858524659871 3.516289328231551, 43.20392219387759 2.232142857143117 C38.08925914115647 0.9479963860546832, 8.106797406462647 -0.5420918367346985, 1.8375318877551763 0.5460778061224119 C-4.431733630952294 1.6342474489795222, 3.360172193877588 -0.025908801020326777, 5.588329081632764 8.76116071428578 C7.816485969387941 17.548230229591887, 10.117718962585514 46.477731717686915, 15.206473214286234 53.268494897959044 C20.295227465986954 60.059258078231174, 32.59194302721122 54.06901041666682, 36.12085459183709 49.505739795918544 C39.64976615646295 44.94246917517027, 35.833864795919 34.46867028061229, 36.37994260204141 25.888871173469397 C36.92602040816382 17.309072066326507, 38.8944249574832 2.6705994897959044, 39.39732142857156 -1.973054846938794 M0 0 C1.4249840561225635 0.9652689200680319, 4.593165391157072 4.416454081632689, 8.54990433673538 5.791613520408191 C12.50664328231369 7.166772959183693, 19.74449936224543 7.841066113945544, 23.740433673469852 8.250956632653015 C27.736367984694272 8.660847151360485, 29.281595450680623 9.254092261904665, 32.52551020408191 8.250956632653015 C35.7694249574832 7.2478210034013655, 48.31858524659871 3.516289328231551, 43.20392219387759 2.232142857143117 C38.08925914115647 0.9479963860546832, 8.106797406462647 -0.5420918367346985, 1.8375318877551763 0.5460778061224119 C-4.431733630952294 1.6342474489795222, 3.360172193877588 -0.025908801020326777, 5.588329081632764 8.76116071428578 C7.816485969387941 17.548230229591887, 10.117718962585514 46.477731717686915, 15.206473214286234 53.268494897959044 C20.295227465986954 60.059258078231174, 32.59194302721122 54.06901041666682, 36.12085459183709 49.505739795918544 C39.64976615646295 44.94246917517027, 35.833864795919 34.46867028061229, 36.37994260204141 25.888871173469397 C36.92602040816382 17.309072066326507, 38.8944249574832 2.6705994897959044, 39.39732142857156 -1.973054846938794" stroke="#000000" stroke-width="1.5" fill="none"></path></g></g><g><g transform="translate(122.4187889769031 50.632908256327255) rotate(0 6.901903300382656 3.7650151466837514)"><path d="M0 0 C0.8324032738094805 -0.4251700680272279, 3.0931122448976867 -2.037494685374289, 4.994419642856883 -2.5510204081633674 C6.895727040816079 -3.0645461309524458, 9.859959608843534 -3.6464976615644296, 11.407844387755176 -3.081154336734471 C12.955729166666819 -2.5158110119045127, 13.802747661564808 -0.29097576530602964, 14.281728316326735 0.8410395408163822 C14.760708971088661 1.973054846938794, 15.203151573129466 2.2407791241496398, 14.281728316326735 3.7109375 C13.360305059524004 5.18109587585036, 11.209210246598863 8.622316113945772, 8.753188775510353 9.661989795918544 C6.297167304421842 10.701663477891316, 1.004464285714069 11.559311224489724, -0.4544005102043229 9.948979591836633 C-1.913265306122715 8.338647959183541, -0.07573341836738716 1.6581632653061054, 0 0 M0 0 C0.8324032738094805 -0.4251700680272279, 3.0931122448976867 -2.037494685374289, 4.994419642856883 -2.5510204081633674 C6.895727040816079 -3.0645461309524458, 9.859959608843534 -3.6464976615644296, 11.407844387755176 -3.081154336734471 C12.955729166666819 -2.5158110119045127, 13.802747661564808 -0.29097576530602964, 14.281728316326735 0.8410395408163822 C14.760708971088661 1.973054846938794, 15.203151573129466 2.2407791241496398, 14.281728316326735 3.7109375 C13.360305059524004 5.18109587585036, 11.209210246598863 8.622316113945772, 8.753188775510353 9.661989795918544 C6.297167304421842 10.701663477891316, 1.004464285714069 11.559311224489724, -0.4544005102043229 9.948979591836633 C-1.913265306122715 8.338647959183541, -0.07573341836738716 1.6581632653061054, 0 0" stroke="#000000" stroke-width="1.5" fill="none"></path></g></g><g><g transform="translate(96.35054918098501 31.332844480817357) rotate(0 -3.3203125 -7.089046556122639)"><path d="M0 0 C-0.18136160714296543 -1.1844972363946151, 0.018601190475540763 -4.743967899660143, -1.0881696428577925 -7.10698341836769 C-2.1949404761911255 -9.469998937075237, -5.715215773809632 -12.999574829932348, -6.640625 -14.178093112245278 M0 0 C-0.18136160714296543 -1.1844972363946151, 0.018601190475540763 -4.743967899660143, -1.0881696428577925 -7.10698341836769 C-2.1949404761911255 -9.469998937075237, -5.715215773809632 -12.999574829932348, -6.640625 -14.178093112245278" stroke="#000000" stroke-width="1.5" fill="none"></path></g></g><g><g transform="translate(102.37733489527034 31.257111062449667) rotate(0 2.2260652503187544 -7.732780612244824)"><path d="M0 0 C0 -0.397932610544179, -0.7088382227890785 -0.9466677295916572, 0 -2.387595663265074 C0.7088382227890785 -3.828523596938491, 3.5441911139453928 -7.2504783163262045, 4.253029336734471 -8.6455676020405 C4.96186755952355 -10.040656887754798, 4.9087213010200985 -9.621465773809328, 4.253029336734471 -10.758131377550853 C3.5973373724488433 -11.894796981292378, 0.9745695153063328 -14.680989583333181, 0.31887755102070514 -15.465561224489647 M0 0 C0 -0.397932610544179, -0.7088382227890785 -0.9466677295916572, 0 -2.387595663265074 C0.7088382227890785 -3.828523596938491, 3.5441911139453928 -7.2504783163262045, 4.253029336734471 -8.6455676020405 C4.96186755952355 -10.040656887754798, 4.9087213010200985 -9.621465773809328, 4.253029336734471 -10.758131377550853 C3.5973373724488433 -11.894796981292378, 0.9745695153063328 -14.680989583333181, 0.31887755102070514 -15.465561224489647" stroke="#000000" stroke-width="1.5" fill="none"></path></g></g><g><g transform="translate(115.27991780343325 34.56147968489881) rotate(0 0.04748385682412959 -8.11941964285711)"><path d="M0 0 C-0.267059948979598 -0.5779655612244975, -1.9378454506803184 -1.9723905187075463, -1.6023596938775881 -3.467793367346985 C-1.2668739370748578 -4.963196215986424, 1.410368835034054 -7.575999149659765, 2.012914540816382 -8.972417091836633 C2.6154602465987105 -10.3688350340135, 2.7350393282313235 -10.929528061224497, 2.012914540816382 -11.846301020408191 C1.290789753401441 -12.763073979591885, -1.8076371173468337 -13.740965136054456, -2.319834183673265 -14.473054846938794 C-2.8320312499996967 -15.205144557823132, -1.270195578230717 -15.94454187925165, -1.0602678571422075 -16.23883928571422 M0 0 C-0.267059948979598 -0.5779655612244975, -1.9378454506803184 -1.9723905187075463, -1.6023596938775881 -3.467793367346985 C-1.2668739370748578 -4.963196215986424, 1.410368835034054 -7.575999149659765, 2.012914540816382 -8.972417091836633 C2.6154602465987105 -10.3688350340135, 2.7350393282313235 -10.929528061224497, 2.012914540816382 -11.846301020408191 C1.290789753401441 -12.763073979591885, -1.8076371173468337 -13.740965136054456, -2.319834183673265 -14.473054846938794 C-2.8320312499996967 -15.205144557823132, -1.270195578230717 -15.94454187925165, -1.0602678571422075 -16.23883928571422" stroke="#000000" stroke-width="1.5" fill="none"></path></g></g><g><g transform="translate(167.48851584601505 41.268673439804616) rotate(0 -7.6117487980768175 9.540946138822221)"><path d="M0 0 C-1.0372846554487296 0, -4.27809495192317 -0.8400941506410314, -6.223707932692378 0 C-8.169320913461585 0.8400941506410314, -10.328400440705082 2.374424078525635, -11.673677884615245 5.040564903846189 C-13.018955328525408 7.7067057291667425, -13.897235576922563 13.743865184295146, -14.295372596153356 15.996844951923322 C-14.69350961538415 18.249824719551498, -16.294821714743495 17.982522035256277, -14.0625 18.558443509615245 C-11.830178285256503 19.134364983974212, -3.0949519230769815 19.303385416666817, -0.9014423076923777 19.452373798077133 M0 0 C-1.0372846554487296 0, -4.27809495192317 -0.8400941506410314, -6.223707932692378 0 C-8.169320913461585 0.8400941506410314, -10.328400440705082 2.374424078525635, -11.673677884615245 5.040564903846189 C-13.018955328525408 7.7067057291667425, -13.897235576922563 13.743865184295146, -14.295372596153356 15.996844951923322 C-14.69350961538415 18.249824719551498, -16.294821714743495 17.982522035256277, -14.0625 18.558443509615245 C-11.830178285256503 19.134364983974212, -3.0949519230769815 19.303385416666817, -0.9014423076923777 19.452373798077133" stroke="#000000" stroke-width="1.5" fill="none"></path></g></g><g><g transform="translate(175.8907093556303 45.71578882441986) rotate(0 4.341346153846544 7.014067195012174)"><path d="M0 0 C-0.22223056891016313 1.508663862179522, -1.1937850560892305 6.937975761218164, -1.3333834134609788 9.051983173077133 C-1.472981770832727 11.165990584936102, -2.1415514823714448 11.958508613781987, -0.8375901442304894 12.684044471153811 C0.4663711939104662 13.409580328525635, 4.73006810897444 14.860026041667046, 6.490384615384755 13.405198317308077 C8.25070112179507 11.950370592949108, 9.185321514423626 6.141075721153888, 9.724308894231399 3.955078125 C10.263296274039172 1.7690805288461129, 11.59793169070584 0.8576221955129313, 9.724308894231399 0.2892127403847553 C7.850686097756959 -0.27919671474342067, 0.10329026442332179 0.5928235176284034, -1.5174278846152447 0.5446213942309441 C-3.138146033653811 0.4964192708334849, -0.2529046474358741 0.09077023237182402, 0 0 M0 0 C-0.22223056891016313 1.508663862179522, -1.1937850560892305 6.937975761218164, -1.3333834134609788 9.051983173077133 C-1.472981770832727 11.165990584936102, -2.1415514823714448 11.958508613781987, -0.8375901442304894 12.684044471153811 C0.4663711939104662 13.409580328525635, 4.73006810897444 14.860026041667046, 6.490384615384755 13.405198317308077 C8.25070112179507 11.950370592949108, 9.185321514423626 6.141075721153888, 9.724308894231399 3.955078125 C10.263296274039172 1.7690805288461129, 11.59793169070584 0.8576221955129313, 9.724308894231399 0.2892127403847553 C7.850686097756959 -0.27919671474342067, 0.10329026442332179 0.5928235176284034, -1.5174278846152447 0.5446213942309441 C-3.138146033653811 0.4964192708334849, -0.2529046474358741 0.09077023237182402, 0 0" stroke="#000000" stroke-width="1.5" fill="none"></path></g></g><g><g transform="translate(191.09503627870743 41.65178642057367) rotate(0 0 8.173076923077133)"><path d="M0 0 C0 2.724358974359044, 0 13.621794871795222, 0 16.346153846154266 M0 0 C0 2.724358974359044, 0 13.621794871795222, 0 16.346153846154266" stroke="#000000" stroke-width="1.5" fill="none"></path></g></g><g><g transform="translate(190.40768651909218 42.68093305518937) rotate(0 5.339167668269056 -0.7549579326923777)"><path d="M0 0 C1.7797225560896852 -0.25165264423079253, 8.898612780448426 -1.2582632211539628, 10.678335336538112 -1.5099158653847553 M0 0 C1.7797225560896852 -0.25165264423079253, 8.898612780448426 -1.2582632211539628, 10.678335336538112 -1.5099158653847553" stroke="#000000" stroke-width="1.5" fill="none"></path></g></g><g><g transform="translate(192.77397257678456 53.34424435326605) rotate(0 5.021784855769056 -1.4704777644230944)"><path d="M0 0 C1.673928285256352 -0.4901592548076981, 8.36964142628176 -2.4507962740384905, 10.043569711538112 -2.940955528846189 M0 0 C1.673928285256352 -0.4901592548076981, 8.36964142628176 -2.4507962740384905, 10.043569711538112 -2.940955528846189" stroke="#000000" stroke-width="1.5" fill="none"></path></g></g><g><g transform="translate(206.43833555755407 38.72585493018937) rotate(0 0 10.528094951923094)"><path d="M0 0 C0 3.509364983974365, 0 17.546824919871824, 0 21.05618990384619 M0 0 C0 3.509364983974365, 0 17.546824919871824, 0 21.05618990384619" stroke="#000000" stroke-width="1.5" fill="none"></path></g></g><g><g transform="translate(205.36411680755407 41.08087295903556) rotate(0 2.867713341346189 -0.1183143028847553)"><path d="M0 0 C0.9559044471153962 -0.0394381009615851, 4.779522235576981 -0.19719050480792552, 5.735426682692378 -0.2366286057695106 M0 0 C0.9559044471153962 -0.0394381009615851, 4.779522235576981 -0.19719050480792552, 5.735426682692378 -0.2366286057695106" stroke="#000000" stroke-width="1.5" fill="none"></path></g></g><g><g transform="translate(206.07775863447694 49.325314064804616) rotate(0 3.1099759615385665 -1.102388822115472)"><path d="M0 0 C1.0366586538461888 -0.36746294070515734, 5.183293269230944 -1.8373147035257869, 6.219951923077133 -2.204777644230944 M0 0 C1.0366586538461888 -0.36746294070515734, 5.183293269230944 -1.8373147035257869, 6.219951923077133 -2.204777644230944" stroke="#000000" stroke-width="1.5" fill="none"></path></g></g><g><g transform="translate(224.1667009421693 37.508907814804616) rotate(0 -3.939493502103261 9.60835618239188)"><path d="M0 0 C-0.8081680689103147 0.16088241185896854, -3.55005508814141 -2.183493589743648, -4.849008413461888 0.9652944711538112 C-6.147961738782366 4.11408253205127, -8.339593349358742 16.102013221153964, -7.793719951922867 18.892728365384755 C-7.247846554486993 21.683443509615547, -2.6104266826926805 17.906775841346263, -1.5737680288466436 17.709585336538566 M0 0 C-0.8081680689103147 0.16088241185896854, -3.55005508814141 -2.183493589743648, -4.849008413461888 0.9652944711538112 C-6.147961738782366 4.11408253205127, -8.339593349358742 16.102013221153964, -7.793719951922867 18.892728365384755 C-7.247846554486993 21.683443509615547, -2.6104266826926805 17.906775841346263, -1.5737680288466436 17.709585336538566" stroke="#000000" stroke-width="1.5" fill="none"></path></g></g><g><g transform="translate(217.27442329793882 49.178829689804616) rotate(0 2.6123046875 -0.9033203125)"><path d="M0 0 C0.8707682291666666 -0.3011067708333333, 4.353841145833333 -1.5055338541666667, 5.224609375 -1.806640625 M0 0 C0.8707682291666666 -0.3011067708333333, 4.353841145833333 -1.5055338541666667, 5.224609375 -1.806640625" stroke="#000000" stroke-width="1.5" fill="none"></path></g></g><g><g transform="translate(234.70606392293882 38.90614339172794) rotate(0 -3.5409780649043228 10.605368276742702)"><path d="M0 0 C-0.23725460737189982 0, -0.8814102564107694 -0.3561949118589685, -1.4235276442313989 0 C-1.9656450320520285 0.3561949118589685, -2.2767678285263173 -0.12019230769230171, -3.2527043269237765 2.137169471153811 C-4.228640825321236 4.394531249999924, -6.646885016026469 10.573167067307471, -7.279146634616154 13.544170673076678 C-7.911408253205839 16.515174278845887, -8.181840945513159 18.67550580929469, -7.046274038461888 19.963191105769056 C-5.910707131410618 21.25087640224342, -1.764072516026469 21.55636518429469, -0.46574519230853184 21.270282451922867 C0.8325821314094053 20.984199719551043, 0.5421173878200231 18.75062600160224, 0.7436899038457341 18.24669471153811 M0 0 C-0.23725460737189982 0, -0.8814102564107694 -0.3561949118589685, -1.4235276442313989 0 C-1.9656450320520285 0.3561949118589685, -2.2767678285263173 -0.12019230769230171, -3.2527043269237765 2.137169471153811 C-4.228640825321236 4.394531249999924, -6.646885016026469 10.573167067307471, -7.279146634616154 13.544170673076678 C-7.911408253205839 16.515174278845887, -8.181840945513159 18.67550580929469, -7.046274038461888 19.963191105769056 C-5.910707131410618 21.25087640224342, -1.764072516026469 21.55636518429469, -0.46574519230853184 21.270282451922867 C0.8325821314094053 20.984199719551043, 0.5421173878200231 18.75062600160224, 0.7436899038457341 18.24669471153811" stroke="#000000" stroke-width="1.5" fill="none"></path></g></g><g><g transform="translate(226.63815526909218 51.87940060326605) rotate(0 3.1268780048076223 -0.11455829326905587)"><path d="M0 0 C1.0422926682692075 -0.038186097756351955, 5.211463341346037 -0.19093048878175978, 6.253756009615245 -0.22911658653811173 M0 0 C1.0422926682692075 -0.038186097756351955, 5.211463341346037 -0.19093048878175978, 6.253756009615245 -0.22911658653811173" stroke="#000000" stroke-width="1.5" fill="none"></path></g></g></svg>