<svg version="1.1" xmlns="http://www.w3.org/2000/svg" viewBox="0 0 246.25 98.75" width="246.25" height="98.75">
  <!-- svg-source:excalidraw -->
  
  <defs>
    <style>
      @font-face {
        font-family: "Virgil";
        src: url("https://excalidraw.com/Virgil.woff2");
      }
      @font-face {
        font-family: "Cascadia";
        src: url("https://excalidraw.com/Cascadia.woff2");
      }
    </style>
  </defs>
  <rect x="0" y="0" width="246.25" height="98.75" fill="#ffffff"></rect><g><g transform="translate(85.66072216904524 40.288979304211125) rotate(0 -20.355502574680713 9.160758931696094)"><path d="M-15.724706765321478 -0.7147638601115208 C-15.79076756530451 -0.7808231481289836, -15.52654250895931 -1.3753537163549587, -16.121071565219662 -1.1111195882162974 C-16.715600621480014 -0.8468854600776361, -17.9046466382761 -1.1771819001648556, -19.291881102883593 0.8706409087204473 C-20.67911556749109 2.91846371760575, -23.58571214453445 9.12799294424465, -24.44447835286462 11.17581726509552 C-25.30324456119479 13.223641585946389, -25.039007409124974 11.770352369218172, -24.44447835286462 13.157586833825672 C-23.84994929660427 14.544821298433172, -21.471833071562855 18.442284516254716, -20.877304015302503 19.499224052740523 M-15.724706765321478 -0.7147638601115208 C-15.79076756530451 -0.7808231481289836, -15.52654250895931 -1.3753537163549587, -16.121071565219662 -1.1111195882162974 C-16.715600621480014 -0.8468854600776361, -17.9046466382761 -1.1771819001648556, -19.291881102883593 0.8706409087204473 C-20.67911556749109 2.91846371760575, -23.58571214453445 9.12799294424465, -24.44447835286462 11.17581726509552 C-25.30324456119479 13.223641585946389, -25.039007409124974 11.770352369218172, -24.44447835286462 13.157586833825672 C-23.84994929660427 14.544821298433172, -21.471833071562855 18.442284516254716, -20.877304015302503 19.499224052740523" stroke="#e67700" stroke-width="1.5" fill="none"></path></g></g><g><g transform="translate(91.78169200900413 123.23920682865833) rotate(0 -15.337584459144239 -74.92234147552605)"><path d="M-25.01652243011845 -61.46923390297653 C-23.695342717631682 -60.74258929461242, -20.788740092726027 -57.637834509069236, -17.089444155197846 -57.109366252791915 C-13.390148217669667 -56.580897996514594, -5.9915684383379215 -57.57177975694848, -2.820746804949371 -58.298424365312584 C0.35007482843918014 -59.02506897367669, 0.6143119805090003 -60.41229436649072, 1.935485645133463 -61.46923390297653 C3.256659309757926 -62.52617343946233, 4.181474222346513 -63.1867663196369, 5.106295182797405 -64.64006158422744 C6.031116143248297 -66.09335684881798, 7.021997903682214 -68.66965244987733, 7.484411407838811 -70.18900549051973 C7.946824911995408 -71.70835853116213, 8.1450133598068 -72.03865194731821, 7.880776207736989 -73.75617982808183 C7.616539055667179 -75.47370770884544, 7.088046607940652 -78.3802921901642, 5.898988495419945 -80.49417277510138 C4.7099303828992385 -82.60805336003855, 2.1997167493409675 -84.98616958507994, 0.7464275326127482 -86.43946333770488 C-0.706861684115471 -87.89275709032982, -1.499567092462604 -88.42122988250387, -2.820746804949371 -89.21393529085101 C-4.141926517436138 -90.00664069919816, -5.5291791256305505 -90.66722601954486, -7.180650742307854 -91.19569578778776 C-8.832122358985158 -91.72416555603066, -10.747812984145352 -92.31869461229098, -12.729576505013192 -92.38475390030844 C-14.711340025881032 -92.4508131883259, -17.221583898750804 -92.05446350808347, -19.071231867514893 -91.59205151589245 C-20.92087983627898 -91.12963952370143, -21.38329334043559 -91.32781133989148, -23.827464317597727 -89.6102819471623 C-26.271635294759864 -87.89275255443313, -31.75449420961987 -83.07046232829845, -33.736257730487715 -81.28687515951738 C-35.71802125135556 -79.50328799073631, -35.18957113866517 -79.96569847096174, -35.7180454428048 -78.90875893447593 C-36.24651974694443 -77.85181939799011, -36.77498800322174 -76.66276733333167, -36.90710355532549 -74.9452379406025 C-37.03921910742924 -73.22770854787332, -37.03921305956693 -70.78352245105549, -36.510738755427305 -68.60358257810086 C-35.982264451287676 -66.42364270514622, -34.72713949092164 -63.51706729562088, -33.736257730487715 -61.86559870287472 C-32.74537597005379 -60.21413011012856, -31.82056105746522 -59.6856527820578, -30.565448192823787 -58.694771021623886 C-29.310335328182354 -57.70388926118997, -28.51763596769751 -56.6469557725665, -26.20558054263913 -55.92030814027123 C-23.893525117580747 -55.19366050797596, -19.929998075845067 -54.53306157993909, -16.69311564247349 -54.3348852278523 C-13.456233209101914 -54.13670887576551, -9.624815671607683 -54.3348973235769, -6.784285942409674 -54.73125002775047 C-3.9437562132116653 -55.12760273192404, -1.63170078815328 -55.52394334037302, 0.35006273271456667 -56.71300145289373 C2.3318262535824132 -57.90205956541443, 3.785121518172943 -58.76083484553804, 5.106295182797405 -61.86559870287472 C6.427468847421867 -64.9703625602114, 8.27710472046134 -71.37805755517812, 8.27710472046134 -75.3415845969138 C8.27710472046134 -79.30511163864949, 6.295353295318113 -83.20258544023001, 5.106295182797405 -85.64676095328888 C3.9172370702766974 -88.09093646634774, 2.529990509944588 -88.81757956274626, 1.1427560453370949 -90.00663767526697 C-0.24447841927039837 -91.19569578778768, -1.5656460360325568 -91.92234493204853, -3.2171116048475543 -92.78110962841313 C-4.868577173662552 -93.63987432477774, -6.784273846685051 -94.69681537322911, -8.76603736755289 -95.15922585345457 C-10.74780088842073 -95.62163633368003, -13.059868409203714 -95.62163179778331, -15.107692730054591 -95.55557250976585 C-17.155517050905466 -95.4895132217484, -19.137280571773335 -95.3573991816102, -21.05298329265815 -94.76287012534985 C-22.968686013542968 -94.1683410690895, -24.421969182408866 -93.37563263681122, -26.60190905536349 -91.98839817220372 C-28.781848928318112 -90.60116370759621, -32.481150913708596 -87.89275557836424, -34.1326225303859 -86.43946333770488 C-35.78409414706321 -84.98617109704551, -35.718033347080166 -85.18434896109792, -36.510738755427305 -83.26864472824752 C-37.303444163774444 -81.35294049539712, -38.62461782839893 -77.05912003750525, -38.88885498046875 -74.9452379406025 C-39.15309213253857 -72.83135584369974, -38.558575172002804 -72.10470518747341, -38.096161667846204 -70.58535214683101 C-37.6337481636896 -69.06599910618861, -37.43555366801589 -67.7448254415641, -36.114373955529125 -65.82911969674812 C-34.79319424304236 -63.91341395193215, -32.61325437008774 -60.94076262276812, -30.169083392925604 -59.09111767793517 C-27.72491241576347 -57.24147273310223, -23.761403517614713 -55.45789463611459, -21.44934809255633 -54.73125002775047 C-19.13729266749795 -54.00460541938635, -17.948222459252616 -54.400958123559924, -16.296750842575307 -54.73125002775047 C-14.645279225897998 -55.061541931941015, -12.333223800839612 -56.38270954870318, -11.540518392492473 -56.71300145289373 M-25.01652243011845 -61.46923390297653 C-23.695342717631682 -60.74258929461242, -20.788740092726027 -57.637834509069236, -17.089444155197846 -57.109366252791915 C-13.390148217669667 -56.580897996514594, -5.9915684383379215 -57.57177975694848, -2.820746804949371 -58.298424365312584 C0.35007482843918014 -59.02506897367669, 0.6143119805090003 -60.41229436649072, 1.935485645133463 -61.46923390297653 C3.256659309757926 -62.52617343946233, 4.181474222346513 -63.1867663196369, 5.106295182797405 -64.64006158422744 C6.031116143248297 -66.09335684881798, 7.021997903682214 -68.66965244987733, 7.484411407838811 -70.18900549051973 C7.946824911995408 -71.70835853116213, 8.1450133598068 -72.03865194731821, 7.880776207736989 -73.75617982808183 C7.616539055667179 -75.47370770884544, 7.088046607940652 -78.3802921901642, 5.898988495419945 -80.49417277510138 C4.7099303828992385 -82.60805336003855, 2.1997167493409675 -84.98616958507994, 0.7464275326127482 -86.43946333770488 C-0.706861684115471 -87.89275709032982, -1.499567092462604 -88.42122988250387, -2.820746804949371 -89.21393529085101 C-4.141926517436138 -90.00664069919816, -5.5291791256305505 -90.66722601954486, -7.180650742307854 -91.19569578778776 C-8.832122358985158 -91.72416555603066, -10.747812984145352 -92.31869461229098, -12.729576505013192 -92.38475390030844 C-14.711340025881032 -92.4508131883259, -17.221583898750804 -92.05446350808347, -19.071231867514893 -91.59205151589245 C-20.92087983627898 -91.12963952370143, -21.38329334043559 -91.32781133989148, -23.827464317597727 -89.6102819471623 C-26.271635294759864 -87.89275255443313, -31.75449420961987 -83.07046232829845, -33.736257730487715 -81.28687515951738 C-35.71802125135556 -79.50328799073631, -35.18957113866517 -79.96569847096174, -35.7180454428048 -78.90875893447593 C-36.24651974694443 -77.85181939799011, -36.77498800322174 -76.66276733333167, -36.90710355532549 -74.9452379406025 C-37.03921910742924 -73.22770854787332, -37.03921305956693 -70.78352245105549, -36.510738755427305 -68.60358257810086 C-35.982264451287676 -66.42364270514622, -34.72713949092164 -63.51706729562088, -33.736257730487715 -61.86559870287472 C-32.74537597005379 -60.21413011012856, -31.82056105746522 -59.6856527820578, -30.565448192823787 -58.694771021623886 C-29.310335328182354 -57.70388926118997, -28.51763596769751 -56.6469557725665, -26.20558054263913 -55.92030814027123 C-23.893525117580747 -55.19366050797596, -19.929998075845067 -54.53306157993909, -16.69311564247349 -54.3348852278523 C-13.456233209101914 -54.13670887576551, -9.624815671607683 -54.3348973235769, -6.784285942409674 -54.73125002775047 C-3.9437562132116653 -55.12760273192404, -1.63170078815328 -55.52394334037302, 0.35006273271456667 -56.71300145289373 C2.3318262535824132 -57.90205956541443, 3.785121518172943 -58.76083484553804, 5.106295182797405 -61.86559870287472 C6.427468847421867 -64.9703625602114, 8.27710472046134 -71.37805755517812, 8.27710472046134 -75.3415845969138 C8.27710472046134 -79.30511163864949, 6.295353295318113 -83.20258544023001, 5.106295182797405 -85.64676095328888 C3.9172370702766974 -88.09093646634774, 2.529990509944588 -88.81757956274626, 1.1427560453370949 -90.00663767526697 C-0.24447841927039837 -91.19569578778768, -1.5656460360325568 -91.92234493204853, -3.2171116048475543 -92.78110962841313 C-4.868577173662552 -93.63987432477774, -6.784273846685051 -94.69681537322911, -8.76603736755289 -95.15922585345457 C-10.74780088842073 -95.62163633368003, -13.059868409203714 -95.62163179778331, -15.107692730054591 -95.55557250976585 C-17.155517050905466 -95.4895132217484, -19.137280571773335 -95.3573991816102, -21.05298329265815 -94.76287012534985 C-22.968686013542968 -94.1683410690895, -24.421969182408866 -93.37563263681122, -26.60190905536349 -91.98839817220372 C-28.781848928318112 -90.60116370759621, -32.481150913708596 -87.89275557836424, -34.1326225303859 -86.43946333770488 C-35.78409414706321 -84.98617109704551, -35.718033347080166 -85.18434896109792, -36.510738755427305 -83.26864472824752 C-37.303444163774444 -81.35294049539712, -38.62461782839893 -77.05912003750525, -38.88885498046875 -74.9452379406025 C-39.15309213253857 -72.83135584369974, -38.558575172002804 -72.10470518747341, -38.096161667846204 -70.58535214683101 C-37.6337481636896 -69.06599910618861, -37.43555366801589 -67.7448254415641, -36.114373955529125 -65.82911969674812 C-34.79319424304236 -63.91341395193215, -32.61325437008774 -60.94076262276812, -30.169083392925604 -59.09111767793517 C-27.72491241576347 -57.24147273310223, -23.761403517614713 -55.45789463611459, -21.44934809255633 -54.73125002775047 C-19.13729266749795 -54.00460541938635, -17.948222459252616 -54.400958123559924, -16.296750842575307 -54.73125002775047 C-14.645279225897998 -55.061541931941015, -12.333223800839612 -56.38270954870318, -11.540518392492473 -56.71300145289373" stroke="#e67700" stroke-width="1.5" fill="none"></path></g></g><g><g transform="translate(73.89951825400999 46.95564597087767) rotate(0 1.5854229124188919 -2.030673556331635)"><path d="M0 -5.003314301736676 C0.13212159996606124 -3.550022061077308, 0.6606079998303062 3.9146154943063123, 0.7927295997963674 3.716439142219532 C0.9248511997624286 3.5182627901327517, 0.5284984955888552 -5.267549941840893, 0.7927295997963674 -6.192372414257357 C1.0569607040038795 -7.117194886673821, 2.1138851208339284 -3.1536723808348697, 2.3781162250414405 -1.8324956922792506 C2.6423473292489525 -0.5113190037236317, 2.6423473292489525 2.263157485319261, 2.3781162250414405 1.7346877170763568 C2.1138851208339284 1.2062179488334526, 1.0569607040038795 -3.4179019730768143, 0.7927295997963674 -5.003314301736676 C0.5284984955888552 -6.588726630396538, 0.5945532477095806 -7.843844030934694, 0.7927295997963674 -7.7777862548828125 C0.9909059518831541 -7.711728478830931, 1.5854350081435142 -6.45661410222391, 1.9817877123170877 -4.606967645425387 C2.378140416490661 -2.7573211886268636, 2.9726694727510212 1.9989157973527074, 3.1708458248378077 3.3200924859083263 M0 -5.003314301736676 C0.13212159996606124 -3.550022061077308, 0.6606079998303062 3.9146154943063123, 0.7927295997963674 3.716439142219532 C0.9248511997624286 3.5182627901327517, 0.5284984955888552 -5.267549941840893, 0.7927295997963674 -6.192372414257357 C1.0569607040038795 -7.117194886673821, 2.1138851208339284 -3.1536723808348697, 2.3781162250414405 -1.8324956922792506 C2.6423473292489525 -0.5113190037236317, 2.6423473292489525 2.263157485319261, 2.3781162250414405 1.7346877170763568 C2.1138851208339284 1.2062179488334526, 1.0569607040038795 -3.4179019730768143, 0.7927295997963674 -5.003314301736676 C0.5284984955888552 -6.588726630396538, 0.5945532477095806 -7.843844030934694, 0.7927295997963674 -7.7777862548828125 C0.9909059518831541 -7.711728478830931, 1.5854350081435142 -6.45661410222391, 1.9817877123170877 -4.606967645425387 C2.378140416490661 -2.7573211886268636, 2.9726694727510212 1.9989157973527074, 3.1708458248378077 3.3200924859083263" stroke="#e67700" stroke-width="1.5" fill="none"></path></g></g><g><g transform="translate(87.14168128740715 56.084979630842156) rotate(0 -2.3445382275201325 -12.943589849180412)"><path d="M-2.144275220812577 -12.15088746476438 C-2.342451572899357 -12.415123104868623, -3.465448885437014 -14.06659472154595, -3.3333333333332575 -13.73630130538984 C-3.2012177812295013 -13.40600788923373, -1.48369746029379 -9.310363783428707, -1.3515819081900406 -10.169126967827722 C-1.2194663560862913 -11.027890152226737, -2.5406400207107613 -19.020998987818842, -2.5406400207107613 -18.88888041178393 C-2.5406400207107613 -18.756761835749018, -1.285527156069322 -10.103061631947934, -1.3515819081900406 -9.37641551161825 C-1.4176366603107593 -8.649769391288565, -2.672737429227568 -13.33994557728512, -2.9369685334350732 -14.529003689805824 C-3.2011996376425786 -15.71806180232653, -2.9369685334350732 -17.76588158728064, -2.9369685334350732 -16.51076418674248 C-2.9369685334350732 -15.255646786204325, -2.9369685334350732 -8.583710103271155, -2.9369685334350732 -6.99829928657689 M-2.144275220812577 -12.15088746476438 C-2.342451572899357 -12.415123104868623, -3.465448885437014 -14.06659472154595, -3.3333333333332575 -13.73630130538984 C-3.2012177812295013 -13.40600788923373, -1.48369746029379 -9.310363783428707, -1.3515819081900406 -10.169126967827722 C-1.2194663560862913 -11.027890152226737, -2.5406400207107613 -19.020998987818842, -2.5406400207107613 -18.88888041178393 C-2.5406400207107613 -18.756761835749018, -1.285527156069322 -10.103061631947934, -1.3515819081900406 -9.37641551161825 C-1.4176366603107593 -8.649769391288565, -2.672737429227568 -13.33994557728512, -2.9369685334350732 -14.529003689805824 C-3.2011996376425786 -15.71806180232653, -2.9369685334350732 -17.76588158728064, -2.9369685334350732 -16.51076418674248 C-2.9369685334350732 -15.255646786204325, -2.9369685334350732 -8.583710103271155, -2.9369685334350732 -6.99829928657689" stroke="#e67700" stroke-width="1.5" fill="none"></path></g></g><g><g transform="translate(65.9724762662633 72.66048328530076) rotate(0 13.189032874377062 -17.908835921940252)"><path d="M0 -16.43945426591123 C1.3872344646074868 -16.10915933778954, 6.011351362586536 -14.65586104926787, 8.32340678764492 -14.457684697181076 C10.635462212703304 -14.259508345094282, 11.2960399732221 -13.86316168878298, 13.8723325503503 -15.250396153390469 C16.4486251274785 -16.637630617997957, 23.12057239417074 -22.450796556704308, 23.781162250414123 -22.781091484826 C24.441752106657507 -23.11138641294769, 19.55339805660864 -18.355163034658297, 17.83587168781061 -17.23216572212062 C16.11834531901258 -16.109168409582942, 14.92929930221647 -16.241283961686722, 13.476004037625946 -16.043107609599943 C12.022708773035422 -15.844931257513164, 10.965748069031548 -15.64675490542637, 9.116100100267458 -16.043107609599943 C7.2664521315033666 -16.439460313773516, 2.444170977162126 -19.147871466936646, 2.3781162250414005 -18.42122383464138 C2.312061472920675 -17.694576202346116, 6.671947266692226 -13.004398504383968, 8.719771587543104 -11.683221815828349 C10.767595908393982 -10.36204512727273, 12.683298629278822 -9.833576870995431, 14.665062150146667 -10.494163703307667 C16.646825671014515 -11.154750535619902, 18.89282634395215 -13.66497928883392, 20.61035271275018 -15.64674280970176 C22.32787908154821 -17.6285063305696, 24.04539940248396 -20.7332732118374, 24.97022036293485 -22.384744828514712 C25.89504132338574 -24.036216445192025, 26.819868331698906 -25.951925213939184, 26.159278475455523 -25.555572509765625 C25.49868861921214 -25.159219805592066, 22.92238394635935 -21.592039420167634, 21.00668122547454 -20.006628603473352 C19.09097850458973 -18.42121778677907, 16.44864931892773 -16.90187079399896, 14.665062150146667 -16.043107609599943 C12.881474981365606 -15.184344425200928, 11.69239267739567 -15.052225849166042, 10.305158212788177 -14.854049497079263 C8.917923748180684 -14.655873144992484, 7.3985918750563515 -14.457696792905704, 6.341655362501706 -14.854049497079263 C5.284718849947061 -15.250402201252822, 2.840541824922629 -17.430342074207413, 3.9635391374603044 -17.23216572212062 C5.08653644999798 -17.033989370033826, 11.16393651684295 -14.193462664766972, 13.079639237727761 -13.664991384558501 C14.995341958612572 -13.13652010435003, 14.598989254438997 -13.731046136679245, 15.457755462769168 -14.061338040869789 C16.316521671099338 -14.391629945060332, 16.97711757520505 -14.259508345094272, 18.232236487708786 -15.64674280970176 C19.48735540021252 -17.033977274309247, 23.12059053775765 -22.120507676444902, 22.988468937791588 -22.384744828514712 C22.856347337825525 -22.648981980584523, 19.619446760867046 -18.487281610693195, 17.43950688791242 -17.23216572212062 C15.259567014957792 -15.977049833548044, 11.163942564705255 -15.250402201252822, 9.908829700063823 -14.854049497079263 M0 -16.43945426591123 C1.3872344646074868 -16.10915933778954, 6.011351362586536 -14.65586104926787, 8.32340678764492 -14.457684697181076 C10.635462212703304 -14.259508345094282, 11.2960399732221 -13.86316168878298, 13.8723325503503 -15.250396153390469 C16.4486251274785 -16.637630617997957, 23.12057239417074 -22.450796556704308, 23.781162250414123 -22.781091484826 C24.441752106657507 -23.11138641294769, 19.55339805660864 -18.355163034658297, 17.83587168781061 -17.23216572212062 C16.11834531901258 -16.109168409582942, 14.92929930221647 -16.241283961686722, 13.476004037625946 -16.043107609599943 C12.022708773035422 -15.844931257513164, 10.965748069031548 -15.64675490542637, 9.116100100267458 -16.043107609599943 C7.2664521315033666 -16.439460313773516, 2.444170977162126 -19.147871466936646, 2.3781162250414005 -18.42122383464138 C2.312061472920675 -17.694576202346116, 6.671947266692226 -13.004398504383968, 8.719771587543104 -11.683221815828349 C10.767595908393982 -10.36204512727273, 12.683298629278822 -9.833576870995431, 14.665062150146667 -10.494163703307667 C16.646825671014515 -11.154750535619902, 18.89282634395215 -13.66497928883392, 20.61035271275018 -15.64674280970176 C22.32787908154821 -17.6285063305696, 24.04539940248396 -20.7332732118374, 24.97022036293485 -22.384744828514712 C25.89504132338574 -24.036216445192025, 26.819868331698906 -25.951925213939184, 26.159278475455523 -25.555572509765625 C25.49868861921214 -25.159219805592066, 22.92238394635935 -21.592039420167634, 21.00668122547454 -20.006628603473352 C19.09097850458973 -18.42121778677907, 16.44864931892773 -16.90187079399896, 14.665062150146667 -16.043107609599943 C12.881474981365606 -15.184344425200928, 11.69239267739567 -15.052225849166042, 10.305158212788177 -14.854049497079263 C8.917923748180684 -14.655873144992484, 7.3985918750563515 -14.457696792905704, 6.341655362501706 -14.854049497079263 C5.284718849947061 -15.250402201252822, 2.840541824922629 -17.430342074207413, 3.9635391374603044 -17.23216572212062 C5.08653644999798 -17.033989370033826, 11.16393651684295 -14.193462664766972, 13.079639237727761 -13.664991384558501 C14.995341958612572 -13.13652010435003, 14.598989254438997 -13.731046136679245, 15.457755462769168 -14.061338040869789 C16.316521671099338 -14.391629945060332, 16.97711757520505 -14.259508345094272, 18.232236487708786 -15.64674280970176 C19.48735540021252 -17.033977274309247, 23.12059053775765 -22.120507676444902, 22.988468937791588 -22.384744828514712 C22.856347337825525 -22.648981980584523, 19.619446760867046 -18.487281610693195, 17.43950688791242 -17.23216572212062 C15.259567014957792 -15.977049833548044, 11.163942564705255 -15.250402201252822, 9.908829700063823 -14.854049497079263" stroke="#e67700" stroke-width="1.5" fill="none"></path></g></g><g><g transform="translate(84.01723925501341 71.84788601867126) rotate(0 -33.97933023754794 1.3895570360224383)"><path d="M-27.16086308901765 -5.718045442804813 C-27.094808336896925 -5.651984642821783, -25.905768367963137 -6.708915107514117, -26.7645345762933 -5.32168064290663 C-27.623300784623463 -3.934446178299143, -30.06746571392328 -0.10304678439185055, -32.31346033899863 2.605361344840106 C-34.55945496407398 5.313769474072062, -38.85326786213791 9.60759144392949, -40.24050232674541 10.928768132485109 C-41.6277367913529 12.249944821040728, -41.8259252391643 12.58024277309354, -40.636867126643594 10.532421476173818 C-39.44780901412289 8.484600179254096, -35.55033067664562 1.878719760407208, -33.10615365162118 -1.35815964903322 C-30.661976626596733 -4.595039058473648, -24.452448911923376 -10.738499925301678, -25.97180497649693 -8.88885498046875 C-27.491161041070484 -7.039210035635821, -39.51387586196824 6.634949186558835, -42.2222900390625 9.739710019964352 M-27.16086308901765 -5.718045442804813 C-27.094808336896925 -5.651984642821783, -25.905768367963137 -6.708915107514117, -26.7645345762933 -5.32168064290663 C-27.623300784623463 -3.934446178299143, -30.06746571392328 -0.10304678439185055, -32.31346033899863 2.605361344840106 C-34.55945496407398 5.313769474072062, -38.85326786213791 9.60759144392949, -40.24050232674541 10.928768132485109 C-41.6277367913529 12.249944821040728, -41.8259252391643 12.58024277309354, -40.636867126643594 10.532421476173818 C-39.44780901412289 8.484600179254096, -35.55033067664562 1.878719760407208, -33.10615365162118 -1.35815964903322 C-30.661976626596733 -4.595039058473648, -24.452448911923376 -10.738499925301678, -25.97180497649693 -8.88885498046875 C-27.491161041070484 -7.039210035635821, -39.51387586196824 6.634949186558835, -42.2222900390625 9.739710019964352" stroke="#e67700" stroke-width="1.5" fill="none"></path></g></g><g><g transform="translate(95.53790455612926 52.9722882451492) rotate(0 -52.90069941795571 2.061365474870712)"><path d="M-41.456009415073005 -0.7147802196330663 C-41.85236211924657 -0.7808410196160969, -40.002714150482475 -2.1680845560170443, -43.834125640114415 -1.11114501953125 C-47.665537129746355 -0.05420548304545547, -63.585712144534455 5.428680647194921, -64.44447835286462 5.626856999281701 C-65.30324456119479 5.825033351368481, -49.91154989840862 0.6724421492497831, -48.98672289009543 0.07791309298942983 C-48.061895881782235 -0.5166159632709234, -57.50828183837794 1.5972691575629776, -58.895516302985435 2.059682661719582 C-60.28275076759293 2.522096165876186, -59.35794795072896 3.2487468221026283, -57.3101296777404 2.852394117929055 C-55.262311404751834 2.4560414137554814, -49.25096004216527 0.2760954929384948, -46.60860666505403 -0.3184335633218587 C-43.9662532879428 -0.9129626195822121, -42.31477562340318 -0.6487224435811983, -41.456009415073005 -0.7147802196330663 M-41.456009415073005 -0.7147802196330663 C-41.85236211924657 -0.7808410196160969, -40.002714150482475 -2.1680845560170443, -43.834125640114415 -1.11114501953125 C-47.665537129746355 -0.05420548304545547, -63.585712144534455 5.428680647194921, -64.44447835286462 5.626856999281701 C-65.30324456119479 5.825033351368481, -49.91154989840862 0.6724421492497831, -48.98672289009543 0.07791309298942983 C-48.061895881782235 -0.5166159632709234, -57.50828183837794 1.5972691575629776, -58.895516302985435 2.059682661719582 C-60.28275076759293 2.522096165876186, -59.35794795072896 3.2487468221026283, -57.3101296777404 2.852394117929055 C-55.262311404751834 2.4560414137554814, -49.25096004216527 0.2760954929384948, -46.60860666505403 -0.3184335633218587 C-43.9662532879428 -0.9129626195822121, -42.31477562340318 -0.6487224435811983, -41.456009415073005 -0.7147802196330663" stroke="#e67700" stroke-width="1.5" fill="none"></path></g></g><g><g transform="translate(104.26430474714579 50.45809720024528) rotate(0 -57.57240284975228 -15.828784141277382)"><path d="M-45.029812356108465 -12.865651324875756 C-46.21887046862917 -13.394121093118661, -49.918160358295026 -15.24376452598604, -52.16416103123269 -16.036469934333187 C-54.41016170417035 -16.829175342680337, -56.59010762498732 -17.291590358802537, -58.50581639373444 -17.621883774958647 C-60.421525162481565 -17.952177191114757, -61.74270789889947 -18.414583135443422, -63.658413643715434 -18.018230431269846 C-65.5741193885314 -17.62187772709627, -70.99093262306417 -16.30070708640299, -70.00005086263025 -15.243767549917196 C-69.00916910219632 -14.186828013431402, -60.685771386344854 -11.874769564441857, -57.713123081111924 -11.676593212355078 C-54.740474775878994 -11.478416860268299, -50.71087181450448 -12.66747497278903, -52.16416103123269 -14.054709437396518 C-53.617450247960896 -15.441943902004006, -65.97044487732458 -19.80182364791322, -66.43285838148118 -20 C-66.89527188563778 -20.19817635208678, -56.85434477705713 -16.03647295826433, -54.93864205617232 -15.243767549917196 M-45.029812356108465 -12.865651324875756 C-46.21887046862917 -13.394121093118661, -49.918160358295026 -15.24376452598604, -52.16416103123269 -16.036469934333187 C-54.41016170417035 -16.829175342680337, -56.59010762498732 -17.291590358802537, -58.50581639373444 -17.621883774958647 C-60.421525162481565 -17.952177191114757, -61.74270789889947 -18.414583135443422, -63.658413643715434 -18.018230431269846 C-65.5741193885314 -17.62187772709627, -70.99093262306417 -16.30070708640299, -70.00005086263025 -15.243767549917196 C-69.00916910219632 -14.186828013431402, -60.685771386344854 -11.874769564441857, -57.713123081111924 -11.676593212355078 C-54.740474775878994 -11.478416860268299, -50.71087181450448 -12.66747497278903, -52.16416103123269 -14.054709437396518 C-53.617450247960896 -15.441943902004006, -65.97044487732458 -19.80182364791322, -66.43285838148118 -20 C-66.89527188563778 -20.19817635208678, -56.85434477705713 -16.03647295826433, -54.93864205617232 -15.243767549917196" stroke="#e67700" stroke-width="1.5" fill="none"></path></g></g><g><g transform="translate(60.81987901628207 16.189399849996732) rotate(0 5.550526752815358 5.156056070817456)"><path d="M0 0 C1.2551189125037376 1.3872344646074872, 5.747126306241365 6.605877394915745, 7.530713475022426 8.323406787644924 C9.314300643803486 10.040936180374104, 10.106993956426011 10.371234132426954, 10.701523012686364 10.305176356375073 C11.296052068946716 10.239118580323192, 11.031827012601514 8.323412835507208, 11.097887812584544 7.927060131333635 M0 0 C1.2551189125037376 1.3872344646074872, 5.747126306241365 6.605877394915745, 7.530713475022426 8.323406787644924 C9.314300643803486 10.040936180374104, 10.106993956426011 10.371234132426954, 10.701523012686364 10.305176356375073 C11.296052068946716 10.239118580323192, 11.031827012601514 8.323412835507208, 11.097887812584544 7.927060131333635" stroke="#e67700" stroke-width="1.5" fill="none"></path></g></g><g><g transform="translate(86.58282897901353 53.81128362495531) rotate(0 7.53069533143551 -32.865651324875756)"><path d="M0 -25.731302649751516 C0.9248209604508896 -26.854301474254775, 3.6332230418205214 -30.421474299851347, 5.548925762705338 -32.46929559677107 C7.464628483590154 -34.51711689369079, 9.908805508614616 -36.76311303073169, 11.494216325308896 -38.01823043126984 C13.079627142003176 -39.273347831807996, 14.466861606610667 -39.669705071878305, 15.061390662871021 -40 M0 -25.731302649751516 C0.9248209604508896 -26.854301474254775, 3.6332230418205214 -30.421474299851347, 5.548925762705338 -32.46929559677107 C7.464628483590154 -34.51711689369079, 9.908805508614616 -36.76311303073169, 11.494216325308896 -38.01823043126984 C13.079627142003176 -39.273347831807996, 14.466861606610667 -39.669705071878305, 15.061390662871021 -40" stroke="#e67700" stroke-width="1.5" fill="none"></path></g></g><g><g transform="translate(98.47341010422048 53.083278917418795) rotate(0 11.890581125207063 -22.823355045329194)"><path d="M0 -17.86894926709075 C2.774468929214981 -19.190124443680787, 12.6832865335542 -24.144531733884826, 16.646813575289887 -25.796000326630974 C20.610340617025575 -27.447468919377123, 22.592104137893415 -27.447467407411523, 23.78116225041412 -27.777760823567633 M0 -17.86894926709075 C2.774468929214981 -19.190124443680787, 12.6832865335542 -24.144531733884826, 16.646813575289887 -25.796000326630974 C20.610340617025575 -27.447468919377123, 22.592104137893415 -27.447467407411523, 23.78116225041412 -27.777760823567633" stroke="#e67700" stroke-width="1.5" fill="none"></path></g></g><g><g transform="translate(99.66246821674116 52.98548730173752) rotate(0 11.334097719235231 -10.15166909335177)"><path d="M0 -7.862337023139084 C3.501113537579096 -8.588983143468768, 17.43950688791245 -11.561625400839384, 21.006681225474576 -12.222213745117188 C24.5738555630367 -12.88280208939499, 21.336985225389732 -11.891924864857781, 21.403046025372763 -11.8258670888059 M0 -7.862337023139084 C3.501113537579096 -8.588983143468768, 17.43950688791245 -11.561625400839384, 21.006681225474576 -12.222213745117188 C24.5738555630367 -12.88280208939499, 21.336985225389732 -11.891924864857781, 21.403046025372763 -11.8258670888059" stroke="#e67700" stroke-width="1.5" fill="none"></path></g></g><g><g transform="translate(89.5462464882554 69.69701491342857) rotate(0 -20.99747159700175 7.877509995449685)"><path d="M-16.439421546867994 0 C-17.69454045937173 2.378116225041414, -22.45078500517916 11.69240477312029, -23.97013502189041 14.268697350248484 C-25.48948503860166 16.844989927376677, -25.291290542927978 15.259579110682385, -25.555521647135492 15.457755462769166 M-16.439421546867994 0 C-17.69454045937173 2.378116225041414, -22.45078500517916 11.69240477312029, -23.97013502189041 14.268697350248484 C-25.48948503860166 16.844989927376677, -25.291290542927978 15.259579110682385, -25.555521647135492 15.457755462769166" stroke="#e67700" stroke-width="1.5" fill="none"></path></g></g><g><g transform="translate(87.375522291636 65.73349391955514) rotate(0 4.359885793771554 4.954405778238481)"><path d="M0 0 C0.9908817604339193 0.8587631843990146, 4.4919952980129985 3.5011105136479266, 5.945290562603516 5.152579106394088 C7.398585827194033 6.8040476991402485, 8.257358083386505 9.116106148129822, 8.719771587543102 9.908811556476968 M0 0 C0.9908817604339193 0.8587631843990146, 4.4919952980129985 3.5011105136479266, 5.945290562603516 5.152579106394088 C7.398585827194033 6.8040476991402485, 8.257358083386505 9.116106148129822, 8.719771587543102 9.908811556476968" stroke="#e67700" stroke-width="1.5" fill="none"></path></g></g><g><g transform="translate(100.4551615293638 57.8064337882214) rotate(0 9.512464900165654 -0.5945290562603418)"><path d="M0 0 C3.170821633388553 -0.19817635208677994, 15.854108166942765 -0.9908817604338996, 19.024929800331318 -1.1890581125206796 M0 0 C3.170821633388553 -0.19817635208677994, 15.854108166942765 -0.9908817604338996, 19.024929800331318 -1.1890581125206796" stroke="#e67700" stroke-width="1.5" fill="none"></path></g></g><g transform="translate(10 10) rotate(0 113.125 39.375)"><path d="M-1.2123223311586602 0.9474866403061374 C59.977726513913794 2.507217747108469, 117.85960200349462 2.224306171290646, 226.66566110863994 1.4186191582139953 M0.020387011342000216 -0.5521505103075616 C81.64823266459811 -1.139233945661732, 163.74272345501169 -2.0399936695497716, 225.86193921364386 0.30988080276953056 M227.8364544659853 -0.2564724236726761 C225.3114869172685 26.09107861388475, 225.90412064148114 49.512039685621865, 225.83066423237324 76.99316088855267 M225.701874576509 -0.5623173341155052 C226.9767579172738 21.411994311027232, 226.38125053392724 43.800894884392626, 226.06110437959433 78.56950739771128 M224.87443924227475 77.24399784391895 C171.32417072243337 79.2157557888445, 116.52015635540114 79.78344681118647, 1.2847840020959154 78.79530917193117 M225.62619290420218 78.52022274316023 C176.51753201084065 77.82266577535837, 127.67107688720496 79.34182380158478, 0.10693801570660992 79.45778217376815 M-0.6506737917661667 78.07539765536785 C-0.019818681012839012 50.950085575692356, -1.9338072712533174 25.10814446769654, -1.9575809687376022 1.609058067202568 M0.759609542787075 77.86223987489939 C0.7953259523026646 60.04699830431491, 0.7512254293076694 40.20542769320309, -0.08631507307291031 -0.5148923024535179" stroke="#000000" stroke-width="1" fill="none"></path></g><g transform="translate(85.6621558779762 54.49158683655753) rotate(0 69 12.5)"><text x="69" y="18" font-family="Virgil, Segoe UI Emoji" font-size="20px" fill="#000000" text-anchor="middle" style="white-space: pre;" direction="ltr">Sunny pancake</text></g></svg>