<svg version="1.1" xmlns="http://www.w3.org/2000/svg" viewBox="0 0 108.24035711801992 159.63851398723068" width="108.24035711801992" height="159.63851398723068">
  <!-- svg-source:excalidraw -->
  
  <defs>
    <style>
      @font-face {
        font-family: "Virgil";
        src: url("https://excalidraw.com/Virgil.woff2");
      }
      @font-face {
        font-family: "Cascadia";
        src: url("https://excalidraw.com/Cascadia.woff2");
      }
    </style>
  </defs>
  <rect x="0" y="0" width="108.24035711801992" height="159.63851398723068" fill="#ffffff"></rect><g><g transform="translate(16.13902238821754 89.67456463080771) rotate(0 26.39240646852167 20.805125513605617)"><path d="M-0.1070424318254224 -1.2844699829920192 C-0.274392863109727 -1.6191593548691086, -0.9437945882469454 -11.659874983256376, -1.11114501953125 -3.292606214254556 C-1.2784954508155546 5.074662554747263, -1.9478665341087251 39.380455315101514, -1.11114501953125 48.9191426310189 C-0.2744235049537749 58.457829946936286, -0.9438252300909866 53.772174910426514, 3.9091840679336007 53.93951768124978 C8.762193365958188 54.10686045207305, 21.98247909344561 52.433379120612976, 28.006910768616272 49.92319925595852 C34.03134244378694 47.41301939130407, 37.04355828137227 42.22533987255498, 40.05577411895759 38.878438493323074 C43.06798995654292 35.531537114091165, 43.737361039836074 36.03357308702203, 46.08020579412823 29.841790980567055 C48.42305054842039 23.650008874112082, 53.10877069884877 8.421563933979089, 54.11284264471055 1.7277458545932438 C55.11691459057232 -4.966072224792601, 52.271987900583206 -7.810937631093553, 52.1046374692989 -10.321117495748009 C51.937287038014595 -12.831297360402464, 52.941389625720426 -12.831297360402573, 53.10874005700473 -13.333333333333485 M-0.1070424318254224 -1.2844699829920192 C-0.274392863109727 -1.6191593548691086, -0.9437945882469454 -11.659874983256376, -1.11114501953125 -3.292606214254556 C-1.2784954508155546 5.074662554747263, -1.9478665341087251 39.380455315101514, -1.11114501953125 48.9191426310189 C-0.2744235049537749 58.457829946936286, -0.9438252300909866 53.772174910426514, 3.9091840679336007 53.93951768124978 C8.762193365958188 54.10686045207305, 21.98247909344561 52.433379120612976, 28.006910768616272 49.92319925595852 C34.03134244378694 47.41301939130407, 37.04355828137227 42.22533987255498, 40.05577411895759 38.878438493323074 C43.06798995654292 35.531537114091165, 43.737361039836074 36.03357308702203, 46.08020579412823 29.841790980567055 C48.42305054842039 23.650008874112082, 53.10877069884877 8.421563933979089, 54.11284264471055 1.7277458545932438 C55.11691459057232 -4.966072224792601, 52.271987900583206 -7.810937631093553, 52.1046374692989 -10.321117495748009 C51.937287038014595 -12.831297360402464, 52.941389625720426 -12.831297360402573, 53.10874005700473 -13.333333333333485" stroke="#343a40" stroke-width="1.5" fill="none"></path></g></g><g><g transform="translate(13.340881614554974 90.78568421902219) rotate(0 27.08627505958256 20.94833270152435)"><path d="M-0.32111749574800363 -1.3915099648853746 C-0.8231534686788887 0.2819445549610764, -3.5006684436955906 -0.220083757508867, -3.3333333333333144 8.649217154193332 C-3.165998222971038 17.51851806589553, -4.337466562883222 44.12641314054119, 0.6828931664256545 51.824295505327825 C5.703252895734531 59.52217787011446, 20.09500696313409 55.338547315844046, 26.788825042519946 54.83651134291313 C33.4826431219058 54.33447536998221, 36.996864290577996 53.16305299283602, 40.8458016427408 48.812079667742324 C44.69473899490361 44.46110634264863, 47.20491885955806 36.09386438526046, 49.8824491554968 28.73067139235096 C52.55997945143554 21.367478399441463, 55.73956104122717 11.494082560494494, 56.91098341837324 4.632921710285348 C58.082405795519314 -2.2282391399237973, 57.24568428094185 -9.25673127026476, 56.91098341837324 -12.43629370890391 C56.57628255580463 -15.615856147543061, 55.237479105530184 -14.109759719441948, 54.902778242961574 -14.444452921549555 M-0.32111749574800363 -1.3915099648853746 C-0.8231534686788887 0.2819445549610764, -3.5006684436955906 -0.220083757508867, -3.3333333333333144 8.649217154193332 C-3.165998222971038 17.51851806589553, -4.337466562883222 44.12641314054119, 0.6828931664256545 51.824295505327825 C5.703252895734531 59.52217787011446, 20.09500696313409 55.338547315844046, 26.788825042519946 54.83651134291313 C33.4826431219058 54.33447536998221, 36.996864290577996 53.16305299283602, 40.8458016427408 48.812079667742324 C44.69473899490361 44.46110634264863, 47.20491885955806 36.09386438526046, 49.8824491554968 28.73067139235096 C52.55997945143554 21.367478399441463, 55.73956104122717 11.494082560494494, 56.91098341837324 4.632921710285348 C58.082405795519314 -2.2282391399237973, 57.24568428094185 -9.25673127026476, 56.91098341837324 -12.43629370890391 C56.57628255580463 -15.615856147543061, 55.237479105530184 -14.109759719441948, 54.902778242961574 -14.444452921549555" stroke="#343a40" stroke-width="1.5" fill="none"></path></g></g><g><g transform="translate(14.023774780981341 82.28423171587087) rotate(0 28.835706516139936 -3.611785354688095)"><path d="M0 -1.9267049744880094 C1.506107918792667 -0.7552864275724354, 5.35504527095547 2.926315814228073, 9.036647512756002 5.101806307005434 C12.718249754556533 7.277296799782795, 17.73862480478747 9.954823265491099, 22.089613450803192 11.126237982176157 C26.440602096818914 12.297652698861215, 30.95894117411892 12.632330580046691, 35.14257938885033 12.130294607115781 C39.32621760358174 11.62825863418487, 43.844541359959734 9.620130063383366, 47.19144273919166 8.1140221445907 C50.53834411842358 6.6079142257980354, 53.550544635086915 4.934448215260032, 55.22398766424186 3.0936470943597922 C56.89743069339681 1.252845973459553, 57.064750482837056 -0.7552979182638895, 57.23210091412135 -2.9307845808107356 C57.39945134540564 -5.106271243357582, 58.570919685317754 -7.114403644389741, 56.22809025194762 -9.959272880921285 C53.885260818577486 -12.804142117452828, 48.86487044742461 -18.32654548015355, 43.17512431390053 -20 C37.48537818037646 -21.67345451984645, 28.448730667620442 -22.00814389172354, 22.089613450803192 -20 C15.730496233985942 -17.99185610827646, 7.865286419298056 -11.298041859121167, 5.020421012997029 -7.951136649658745 C2.175555606696002 -4.6042314401963225, 3.681663525488668 -2.5960952089337104, 5.020421012997029 0.08143125677453047 C6.35917850050539 2.758957722482771, 9.53871412753098 5.771185050759551, 13.052965938047198 8.1140221445907 C16.567217748563415 10.456859238421849, 21.08557214678544 13.803764447884337, 26.10593187609433 14.138453819761427 C31.12629160540322 14.473143191638517, 38.99150142009114 11.96295949675351, 43.17512431390053 10.122158375853237 C47.358747207709925 8.281357254952965, 50.20359729308891 6.105862931945122, 51.20766923895069 3.0936470943597922 C52.211741184812475 0.08143125677446195, 52.37910693701882 -4.436884839142536, 49.199555989071214 -7.951136649658745 C46.02000504112361 -11.465388460174953, 38.48948076808231 -17.489827795806587, 32.13036355126505 -17.991863768737463 C25.77124633444779 -18.49389974166834, 14.559104498683885 -12.134771034159574, 11.044852688167651 -10.963352487243997 M0 -1.9267049744880094 C1.506107918792667 -0.7552864275724354, 5.35504527095547 2.926315814228073, 9.036647512756002 5.101806307005434 C12.718249754556533 7.277296799782795, 17.73862480478747 9.954823265491099, 22.089613450803192 11.126237982176157 C26.440602096818914 12.297652698861215, 30.95894117411892 12.632330580046691, 35.14257938885033 12.130294607115781 C39.32621760358174 11.62825863418487, 43.844541359959734 9.620130063383366, 47.19144273919166 8.1140221445907 C50.53834411842358 6.6079142257980354, 53.550544635086915 4.934448215260032, 55.22398766424186 3.0936470943597922 C56.89743069339681 1.252845973459553, 57.064750482837056 -0.7552979182638895, 57.23210091412135 -2.9307845808107356 C57.39945134540564 -5.106271243357582, 58.570919685317754 -7.114403644389741, 56.22809025194762 -9.959272880921285 C53.885260818577486 -12.804142117452828, 48.86487044742461 -18.32654548015355, 43.17512431390053 -20 C37.48537818037646 -21.67345451984645, 28.448730667620442 -22.00814389172354, 22.089613450803192 -20 C15.730496233985942 -17.99185610827646, 7.865286419298056 -11.298041859121167, 5.020421012997029 -7.951136649658745 C2.175555606696002 -4.6042314401963225, 3.681663525488668 -2.5960952089337104, 5.020421012997029 0.08143125677453047 C6.35917850050539 2.758957722482771, 9.53871412753098 5.771185050759551, 13.052965938047198 8.1140221445907 C16.567217748563415 10.456859238421849, 21.08557214678544 13.803764447884337, 26.10593187609433 14.138453819761427 C31.12629160540322 14.473143191638517, 38.99150142009114 11.96295949675351, 43.17512431390053 10.122158375853237 C47.358747207709925 8.281357254952965, 50.20359729308891 6.105862931945122, 51.20766923895069 3.0936470943597922 C52.211741184812475 0.08143125677446195, 52.37910693701882 -4.436884839142536, 49.199555989071214 -7.951136649658745 C46.02000504112361 -11.465388460174953, 38.48948076808231 -17.489827795806587, 32.13036355126505 -17.991863768737463 C25.77124633444779 -18.49389974166834, 14.559104498683885 -12.134771034159574, 11.044852688167651 -10.963352487243997" stroke="#343a40" stroke-width="1.5" fill="none"></path></g></g><g><g transform="translate(23.167454925833 144.9392564327477) rotate(0 14.063459728273955 0.6676492128822247)"><path d="M-0.10703263209715719 -0.3211174957480165 C-0.2743677424594334 -0.48846026657132013, -3.119187185994373 -1.4925168915111073, -1.1110432942708144 -1.3251741206878385 C0.8971005974527442 -1.1578313498645696, 6.754135878573028 0.8502895604759017, 11.941830718244194 0.6829391291915969 C17.12952555791536 0.5155886979072922, 31.52123366254885 -1.6598979646394865, 30.015125743756183 -2.329276708393667 C28.509017824963518 -2.9986554521478475, 8.092878045159374 -3.5006837646177895, 2.9051832054882087 -3.333333333333485 C-2.282511634182957 -3.1659829020491803, -2.6171512130634786 -2.663939268657235, -1.1110432942708144 -1.3251741206878385 C0.39506462452184987 0.013591027281558032, 6.921470988935313 4.364572012836322, 11.941830718244194 4.6992575544828945 C16.962190447553077 5.033943096129467, 30.182522137806526 0.8502895604759012, 29.01111508158247 0.6829391291915969 C27.839708025358416 0.5155886979072927, 6.084810758045941 3.1931189938461566, 4.913388380899864 3.6951549667770687 C3.741966003753787 4.197190939707981, 19.137715412404987 3.6951549667770687, 21.982580818706012 3.6951549667770687 M-0.10703263209715719 -0.3211174957480165 C-0.2743677424594334 -0.48846026657132013, -3.119187185994373 -1.4925168915111073, -1.1110432942708144 -1.3251741206878385 C0.8971005974527442 -1.1578313498645696, 6.754135878573028 0.8502895604759017, 11.941830718244194 0.6829391291915969 C17.12952555791536 0.5155886979072922, 31.52123366254885 -1.6598979646394865, 30.015125743756183 -2.329276708393667 C28.509017824963518 -2.9986554521478475, 8.092878045159374 -3.5006837646177895, 2.9051832054882087 -3.333333333333485 C-2.282511634182957 -3.1659829020491803, -2.6171512130634786 -2.663939268657235, -1.1110432942708144 -1.3251741206878385 C0.39506462452184987 0.013591027281558032, 6.921470988935313 4.364572012836322, 11.941830718244194 4.6992575544828945 C16.962190447553077 5.033943096129467, 30.182522137806526 0.8502895604759012, 29.01111508158247 0.6829391291915969 C27.839708025358416 0.5155886979072927, 6.084810758045941 3.1931189938461566, 4.913388380899864 3.6951549667770687 C3.741966003753787 4.197190939707981, 19.137715412404987 3.6951549667770687, 21.982580818706012 3.6951549667770687" stroke="#343a40" stroke-width="1.5" fill="none"></path></g></g><g><g transform="translate(63.97260819337464 103.98636884534722) rotate(0 13.116195633781246 11.38867383364311)"><path d="M-0.7492774233214273 -0.5351950096026402 C0.9241809267555411 -1.2045737533568208, 6.279256839555053 -3.714742127319756, 9.291472677140383 -4.551467472127723 C12.303688514725714 -5.388192816935691, 13.475080250027759 -7.731033740997292, 17.32401760219056 -5.555547078450445 C21.172954954353358 -3.3800604159035976, 30.209602467109324 5.656583266621817, 32.38509679011718 8.501452503153363 C34.560591113125035 11.346321739684909, 35.899379242477465 8.668795273976768, 30.3769835402377 11.513668340738828 C24.85458783799793 14.358541407500889, 5.275154251849237 23.227853809894576, -0.7492774233214273 25.570690903725726 C-6.773709098492091 27.913527997556876, -5.769606510786283 25.06865493079485, -5.769606510786283 25.570690903725726 C-5.769606510786283 26.072726876656603, -3.4267923983381494 28.08087076838011, -0.7492774233214273 28.582906741310985 C1.9282375516952945 29.084942714241862, 7.617953043375307 29.754321457996042, 10.295483339314048 28.582906741310985 C12.973013635252789 27.41149202462593, 15.148553921026709 24.73398087983977, 15.315904352311014 21.554418441200653 C15.483254783595319 18.374856002561536, 15.1485386001047 12.517751777292139, 11.299585927019875 9.505532109476288 C7.450633253935049 6.4933124416604375, -6.1043533361209645 5.154554954152037, -7.777811686197936 3.481100434305549 C-9.451270036274906 1.8076459144590609, -2.5901168465267768 -0.5351950096026402, 1.2588358265580484 -0.5351950096026402 C5.107788499642874 -0.5351950096026402, 12.638374056372262 1.8076459144590609, 15.315904352311014 3.481100434305549 C17.993434648249767 5.154554954152037, 19.332161493914107 6.325969670837168, 17.32401760219056 9.505532109476288 C15.315873710467008 12.685094548115408, 5.609870435339851 20.382984573362943, 3.26704100196971 22.558475066140275 M-0.7492774233214273 -0.5351950096026402 C0.9241809267555411 -1.2045737533568208, 6.279256839555053 -3.714742127319756, 9.291472677140383 -4.551467472127723 C12.303688514725714 -5.388192816935691, 13.475080250027759 -7.731033740997292, 17.32401760219056 -5.555547078450445 C21.172954954353358 -3.3800604159035976, 30.209602467109324 5.656583266621817, 32.38509679011718 8.501452503153363 C34.560591113125035 11.346321739684909, 35.899379242477465 8.668795273976768, 30.3769835402377 11.513668340738828 C24.85458783799793 14.358541407500889, 5.275154251849237 23.227853809894576, -0.7492774233214273 25.570690903725726 C-6.773709098492091 27.913527997556876, -5.769606510786283 25.06865493079485, -5.769606510786283 25.570690903725726 C-5.769606510786283 26.072726876656603, -3.4267923983381494 28.08087076838011, -0.7492774233214273 28.582906741310985 C1.9282375516952945 29.084942714241862, 7.617953043375307 29.754321457996042, 10.295483339314048 28.582906741310985 C12.973013635252789 27.41149202462593, 15.148553921026709 24.73398087983977, 15.315904352311014 21.554418441200653 C15.483254783595319 18.374856002561536, 15.1485386001047 12.517751777292139, 11.299585927019875 9.505532109476288 C7.450633253935049 6.4933124416604375, -6.1043533361209645 5.154554954152037, -7.777811686197936 3.481100434305549 C-9.451270036274906 1.8076459144590609, -2.5901168465267768 -0.5351950096026402, 1.2588358265580484 -0.5351950096026402 C5.107788499642874 -0.5351950096026402, 12.638374056372262 1.8076459144590609, 15.315904352311014 3.481100434305549 C17.993434648249767 5.154554954152037, 19.332161493914107 6.325969670837168, 17.32401760219056 9.505532109476288 C15.315873710467008 12.685094548115408, 5.609870435339851 20.382984573362943, 3.26704100196971 22.558475066140275" stroke="#343a40" stroke-width="1.5" fill="none"></path></g></g><g><g transform="translate(31.400364058926698 78.06696071490569) rotate(0 13.052919975281071 3.567856077843544)"><path d="M0 -0.10703998189336932 C1.1714070562240566 -0.10703998189336932, 5.354999308189397 -1.4458012996322136, 7.028442337344339 -0.10703998189336932 C8.701885366499281 1.2317213358454748, 8.869235797783569 6.921455978677942, 10.040658174929654 7.925527924539697 C11.212080552075738 8.929599870401452, 12.550868681428184 7.4234996120698264, 14.05697660022085 5.91739169327716 C15.563084519013515 4.411283774484494, 17.069161795962092 -0.776430216339207, 19.077305687685644 -1.1111195882162974 C21.085449579409197 -1.4458089600933879, 24.93441757341607 3.072526286976132, 26.105839950562157 3.909255462014618 M0 -0.10703998189336932 C1.1714070562240566 -0.10703998189336932, 5.354999308189397 -1.4458012996322136, 7.028442337344339 -0.10703998189336932 C8.701885366499281 1.2317213358454748, 8.869235797783569 6.921455978677942, 10.040658174929654 7.925527924539697 C11.212080552075738 8.929599870401452, 12.550868681428184 7.4234996120698264, 14.05697660022085 5.91739169327716 C15.563084519013515 4.411283774484494, 17.069161795962092 -0.776430216339207, 19.077305687685644 -1.1111195882162974 C21.085449579409197 -1.4458089600933879, 24.93441757341607 3.072526286976132, 26.105839950562157 3.909255462014618" stroke="#343a40" stroke-width="1.5" fill="none"></path></g></g><g><g transform="translate(47.37296781822931 72.22221374511719) rotate(0 -1.726087878711553 -34.10820309121789)"><path d="M-1.6055874787400002 -5.994192437318679 C-4.115767343394448 -9.675790848888706, -17.83808904381276 -23.39811254930703, -16.666666666666686 -28.083782906738847 C-15.49524428952061 -32.769453264170664, 0.5699374861118764 -32.100070690186044, 5.422946784136453 -34.10821458190959 C10.27595608216103 -36.11635847363314, 11.614667606903302 -38.2918489664104, 12.451389121480776 -40.132646257080154 C13.288110636058251 -41.97344354774991, 14.292213223764092 -43.31220103525838, 10.443275871601298 -45.15299832592813 C6.594338519438503 -46.99379561659788, -10.140199018565102 -48.83459673749802, -10.642234991495988 -51.17743000109865 C-11.144270964426873 -53.52026326469928, 4.418844196430657 -57.369200616862145, 7.431060034015986 -59.2099979075319 C10.443275871601315 -61.050795198201655, 7.431060034015986 -61.720177772186304, 7.431060034015986 -62.22221374511719 M-1.6055874787400002 -5.994192437318679 C-4.115767343394448 -9.675790848888706, -17.83808904381276 -23.39811254930703, -16.666666666666686 -28.083782906738847 C-15.49524428952061 -32.769453264170664, 0.5699374861118764 -32.100070690186044, 5.422946784136453 -34.10821458190959 C10.27595608216103 -36.11635847363314, 11.614667606903302 -38.2918489664104, 12.451389121480776 -40.132646257080154 C13.288110636058251 -41.97344354774991, 14.292213223764092 -43.31220103525838, 10.443275871601298 -45.15299832592813 C6.594338519438503 -46.99379561659788, -10.140199018565102 -48.83459673749802, -10.642234991495988 -51.17743000109865 C-11.144270964426873 -53.52026326469928, 4.418844196430657 -57.369200616862145, 7.431060034015986 -59.2099979075319 C10.443275871601315 -61.050795198201655, 7.431060034015986 -61.720177772186304, 7.431060034015986 -62.22221374511719" stroke="#343a40" stroke-width="1.5" fill="none"></path></g></g></svg>