<svg version="1.1" xmlns="http://www.w3.org/2000/svg" viewBox="0 0 41.70652923583987 63.410190051534926" width="41.70652923583987" height="63.410190051534926">
  <!-- svg-source:excalidraw -->
  
  <defs>
    <style>
      @font-face {
        font-family: "Virgil";
        src: url("https://excalidraw.com/Virgil.woff2");
      }
      @font-face {
        font-family: "Cascadia";
        src: url("https://excalidraw.com/Cascadia.woff2");
      }
    </style>
  </defs>
  <rect x="0" y="0" width="41.70652923583987" height="63.410190051534926" fill="#ffffff"></rect><g><g transform="translate(28.879358523824862 16.092797851562523) rotate(0 -1.0869565217391255 0)"><path d="M0 0 C-0.3623188405797085 0, -1.8115942028985426 0, -2.173913043478251 0 M0 0 C-0.3623188405797085 0, -1.8115942028985426 0, -2.173913043478251 0" stroke="#087f5b" stroke-width="1.5" fill="none"></path></g></g><g><g transform="translate(18.009793306433608 16.092797851562523) rotate(0 2.8434713114863257 3.122069035405673)"><path d="M0 0 C-0.724637681159417 0.603861048601677, -3.5024117732393356 2.6569864024286765, -4.347826086956502 3.6231662916100618 C-5.193240400673669 4.5893461807914475, -5.555575826893687 4.589346180791438, -5.072485882302999 5.797079335088313 C-4.589395937712311 7.004812489385188, -3.019338414288957 9.782608695652186, -1.449286419412374 10.869565217391312 C0.12076557546420941 11.956521739130437, 2.4154607800469607 12.439595098080815, 4.347826086956502 12.318818465523066 C6.280191393866043 12.198041832965316, 8.816406692283769 11.1110853112262, 10.144905422044872 10.144905422044815 C11.473404151805974 9.17872553286343, 12.077270728954394 7.729472284731628, 12.318818465523123 6.521739130434753 C12.560366202091851 5.314005976137878, 12.198052890058932 4.10623965056044, 11.594191841457246 2.8985064962635647 C10.99033079285556 1.6907733419666897, 10.748794113380294 -0.000022114187080091163, 8.695652173913004 -0.724659795346497 C6.642510234445714 -1.449297476505914, 1.449253248131754 -2.2947339044101036, -0.724659795346497 -1.4493195906929373 C-2.898572838824748 -0.6039052769757708, -4.4686027195142515 2.5362318840579503, -4.347826086956502 4.347826086956502 C-4.2270494543987525 6.159420289855054, -1.449275362318834 8.33328910495924, 0 9.420245626698375 C1.449275362318834 10.507202148437509, 2.4154607800469607 11.714968474014958, 4.347826086956502 10.869565217391312 C6.280191393866043 10.024161960767666, 10.144916479138393 6.521739130434762, 11.594191841457246 4.347826086956502 C13.043467203776098 2.1739130434782417, 14.613524727199453 -0.7246376811594075, 13.04347826086962 -2.173913043478251 C11.473431794539787 -3.6231884057970944, 5.193240400673687 -4.5893682949785175, 2.173913043478251 -4.347826086956559 C-0.8454143137171855 -4.1062838789346, -3.381662783415436 -2.0531585251076008, -5.072485882302999 -0.724659795346497 C-6.763308981190562 0.6038389344146065, -8.212573286415855 1.6907954561537604, -7.971025549847127 3.6231662916100618 C-7.729477813278398 5.555537127066363, -7.004840132119 10.990341849949061, -3.623199462890625 10.869565217391312 C-0.24155879366225008 10.748788584833562, 11.111090839773018 5.676291645437033, 12.318818465523123 2.8985064962635647 C13.526546091273227 0.12072134709009674, 6.400940383689942 -4.710189155910371, 3.623166291610005 -5.797145677649496 C0.8453921995300675 -6.884102199388622, -2.4154607800469803 -4.7101891559103235, -4.347826086956502 -3.6232326341711882 C-6.280191393866024 -2.536276112432053, -8.333344390426836 -1.2077773826709783, -7.971025549847127 0.7245934527853137 C-7.608706709267419 2.656964288241606, -4.347826086956502 6.763259224269689, -2.173913043478251 7.970992378566564 C0 9.178725532863439, 3.260858508123836 9.057948900305698, 5.072452711022379 7.970992378566564 C6.884046913920922 6.8840358568274285, 8.574881069902005 2.777751977892848, 8.695652173913004 1.449253248131754 C8.816423277924002 0.12075451837065998, 7.367131329964953 -1.3284987297611035, 5.79707933508837 0 C4.227027340211786 1.3284987297611035, -0.8454364279042276 8.695607945538958, -0.724659795346497 9.420245626698375 C-0.6038831627887665 10.144883307857791, 6.159420289855045 5.434782608695637, 6.521739130434753 4.347826086956502 C6.884057971014461 3.2608695652173667, 2.2946675618489203 2.173868815104148, 1.449253248131754 2.8985064962635647 C0.6038389344145875 3.6231441774229816, 0.6038389344145875 9.178736589956932, 1.449253248131754 8.695652173913004 C2.2946675618489203 8.212567757869076, 6.159420289855045 1.5700519948765834, 6.521739130434753 0 C6.884057971014461 -1.5700519948765834, 4.71012281334913 -0.724659795346497, 3.623166291610005 -0.724659795346497 C2.5362097698708794 -0.724659795346497, 0.6038610486016674 -0.12077663255774951, 0 0 M0 0 C-0.724637681159417 0.603861048601677, -3.5024117732393356 2.6569864024286765, -4.347826086956502 3.6231662916100618 C-5.193240400673669 4.5893461807914475, -5.555575826893687 4.589346180791438, -5.072485882302999 5.797079335088313 C-4.589395937712311 7.004812489385188, -3.019338414288957 9.782608695652186, -1.449286419412374 10.869565217391312 C0.12076557546420941 11.956521739130437, 2.4154607800469607 12.439595098080815, 4.347826086956502 12.318818465523066 C6.280191393866043 12.198041832965316, 8.816406692283769 11.1110853112262, 10.144905422044872 10.144905422044815 C11.473404151805974 9.17872553286343, 12.077270728954394 7.729472284731628, 12.318818465523123 6.521739130434753 C12.560366202091851 5.314005976137878, 12.198052890058932 4.10623965056044, 11.594191841457246 2.8985064962635647 C10.99033079285556 1.6907733419666897, 10.748794113380294 -0.000022114187080091163, 8.695652173913004 -0.724659795346497 C6.642510234445714 -1.449297476505914, 1.449253248131754 -2.2947339044101036, -0.724659795346497 -1.4493195906929373 C-2.898572838824748 -0.6039052769757708, -4.4686027195142515 2.5362318840579503, -4.347826086956502 4.347826086956502 C-4.2270494543987525 6.159420289855054, -1.449275362318834 8.33328910495924, 0 9.420245626698375 C1.449275362318834 10.507202148437509, 2.4154607800469607 11.714968474014958, 4.347826086956502 10.869565217391312 C6.280191393866043 10.024161960767666, 10.144916479138393 6.521739130434762, 11.594191841457246 4.347826086956502 C13.043467203776098 2.1739130434782417, 14.613524727199453 -0.7246376811594075, 13.04347826086962 -2.173913043478251 C11.473431794539787 -3.6231884057970944, 5.193240400673687 -4.5893682949785175, 2.173913043478251 -4.347826086956559 C-0.8454143137171855 -4.1062838789346, -3.381662783415436 -2.0531585251076008, -5.072485882302999 -0.724659795346497 C-6.763308981190562 0.6038389344146065, -8.212573286415855 1.6907954561537604, -7.971025549847127 3.6231662916100618 C-7.729477813278398 5.555537127066363, -7.004840132119 10.990341849949061, -3.623199462890625 10.869565217391312 C-0.24155879366225008 10.748788584833562, 11.111090839773018 5.676291645437033, 12.318818465523123 2.8985064962635647 C13.526546091273227 0.12072134709009674, 6.400940383689942 -4.710189155910371, 3.623166291610005 -5.797145677649496 C0.8453921995300675 -6.884102199388622, -2.4154607800469803 -4.7101891559103235, -4.347826086956502 -3.6232326341711882 C-6.280191393866024 -2.536276112432053, -8.333344390426836 -1.2077773826709783, -7.971025549847127 0.7245934527853137 C-7.608706709267419 2.656964288241606, -4.347826086956502 6.763259224269689, -2.173913043478251 7.970992378566564 C0 9.178725532863439, 3.260858508123836 9.057948900305698, 5.072452711022379 7.970992378566564 C6.884046913920922 6.8840358568274285, 8.574881069902005 2.777751977892848, 8.695652173913004 1.449253248131754 C8.816423277924002 0.12075451837065998, 7.367131329964953 -1.3284987297611035, 5.79707933508837 0 C4.227027340211786 1.3284987297611035, -0.8454364279042276 8.695607945538958, -0.724659795346497 9.420245626698375 C-0.6038831627887665 10.144883307857791, 6.159420289855045 5.434782608695637, 6.521739130434753 4.347826086956502 C6.884057971014461 3.2608695652173667, 2.2946675618489203 2.173868815104148, 1.449253248131754 2.8985064962635647 C0.6038389344145875 3.6231441774229816, 0.6038389344145875 9.178736589956932, 1.449253248131754 8.695652173913004 C2.2946675618489203 8.212567757869076, 6.159420289855045 1.5700519948765834, 6.521739130434753 0 C6.884057971014461 -1.5700519948765834, 4.71012281334913 -0.724659795346497, 3.623166291610005 -0.724659795346497 C2.5362097698708794 -0.724659795346497, 0.6038610486016674 -0.12077663255774951, 0 0" stroke="#c92a2a" stroke-width="1.5" fill="none"></path></g></g><g><g transform="translate(20.18370634991186 29.136276112432085) rotate(0 0.751256652500274 11.774627071878172)"><path d="M0 0 C0.241542208021959 2.1739130434782603, 1.3284821441207744 9.05797101449275, 1.449253248131754 13.043478260869563 C1.5700243521427335 17.028985507246375, 0.724626624065877 26.207733154296886, 0.724626624065877 23.913043478260875 C0.724626624065877 21.618353802224863, 1.3284821441207744 0.7246155669723464, 1.449253248131754 -0.724659795346497 C1.5700243521427335 -2.1739351576653405, 1.449253248131754 12.560382787732095, 1.449253248131754 15.217391304347814 M0 0 C0.241542208021959 2.1739130434782603, 1.3284821441207744 9.05797101449275, 1.449253248131754 13.043478260869563 C1.5700243521427335 17.028985507246375, 0.724626624065877 26.207733154296886, 0.724626624065877 23.913043478260875 C0.724626624065877 21.618353802224863, 1.3284821441207744 0.7246155669723464, 1.449253248131754 -0.724659795346497 C1.5700243521427335 -2.1739351576653405, 1.449253248131754 12.560382787732095, 1.449253248131754 15.217391304347814" stroke="#000000" stroke-width="1.5" fill="none"></path></g></g></svg>