<svg version="1.1" xmlns="http://www.w3.org/2000/svg" viewBox="0 0 182.94712329101566 160.91250801086426" width="182.94712329101566" height="160.91250801086426">
  <!-- svg-source:excalidraw -->
  
  <defs>
    <style>
      @font-face {
        font-family: "Virgil";
        src: url("https://excalidraw.com/Virgil.woff2");
      }
      @font-face {
        font-family: "Cascadia";
        src: url("https://excalidraw.com/Cascadia.woff2");
      }
    </style>
  </defs>
  <rect x="0" y="0" width="182.94712329101566" height="160.91250801086426" fill="#ffffff"></rect><g><g transform="translate(12.432423095703143 92.77032470703125) rotate(0 48.849365112304696 -3.414821166992226)"><path d="M0 0 C0.13564046223958334 -0.5426025390625, -1.3115437825520835 -0.9525553385416665, 0.8138427734375 -3.255615234375 C2.9392293294270835 -5.558675130208334, 8.565266927083332 -11.009078979492188, 12.7523193359375 -13.818359375 C16.939371744791668 -16.627639770507812, 17.539876302083336 -18.675877888997395, 25.9361572265625 -20.111297607421875 C34.332438151041664 -21.546717325846355, 53.7965087890625 -23.695292154947918, 63.1300048828125 -22.430877685546875 C72.4635009765625 -21.166463216145832, 76.11208089192708 -16.549962361653645, 81.9371337890625 -12.524810791015625 C87.76218668619792 -8.499659220377605, 95.095947265625 -1.5581766764322915, 98.080322265625 1.72003173828125 C101.064697265625 4.998240152994791, 99.95650227864583 5.5621185302734375, 99.8433837890625 7.144439697265625 C99.73026529947917 8.726760864257812, 99.01167805989583 9.884318033854166, 97.401611328125 11.213958740234375 C95.79154459635417 12.543599446614584, 97.15037027994792 14.470896402994791, 90.1829833984375 15.122283935546875 C83.21559651692708 15.773671468098959, 66.61863199869792 16.681198120117188, 55.5972900390625 15.122283935546875 C44.575948079427086 13.563369750976562, 33.456929524739586 7.4273935953776045, 24.054931640625 5.768798828125 C14.652933756510416 4.1102040608723955, 3.1944580078125 6.132181803385417, -0.814697265625 5.17071533203125 C-4.8238525390625 4.209248860677083, -0.13578287760416666 0.861785888671875, 0 0 M0 0 C0.13564046223958334 -0.5426025390625, -1.3115437825520835 -0.9525553385416665, 0.8138427734375 -3.255615234375 C2.9392293294270835 -5.558675130208334, 8.565266927083332 -11.009078979492188, 12.7523193359375 -13.818359375 C16.939371744791668 -16.627639770507812, 17.539876302083336 -18.675877888997395, 25.9361572265625 -20.111297607421875 C34.332438151041664 -21.546717325846355, 53.7965087890625 -23.695292154947918, 63.1300048828125 -22.430877685546875 C72.4635009765625 -21.166463216145832, 76.11208089192708 -16.549962361653645, 81.9371337890625 -12.524810791015625 C87.76218668619792 -8.499659220377605, 95.095947265625 -1.5581766764322915, 98.080322265625 1.72003173828125 C101.064697265625 4.998240152994791, 99.95650227864583 5.5621185302734375, 99.8433837890625 7.144439697265625 C99.73026529947917 8.726760864257812, 99.01167805989583 9.884318033854166, 97.401611328125 11.213958740234375 C95.79154459635417 12.543599446614584, 97.15037027994792 14.470896402994791, 90.1829833984375 15.122283935546875 C83.21559651692708 15.773671468098959, 66.61863199869792 16.681198120117188, 55.5972900390625 15.122283935546875 C44.575948079427086 13.563369750976562, 33.456929524739586 7.4273935953776045, 24.054931640625 5.768798828125 C14.652933756510416 4.1102040608723955, 3.1944580078125 6.132181803385417, -0.814697265625 5.17071533203125 C-4.8238525390625 4.209248860677083, -0.13578287760416666 0.861785888671875, 0 0" stroke="#000000" stroke-width="1.5" fill="none"></path></g></g><g><g transform="translate(10.623218994140643 98.34799194335938) rotate(0 63.42244338989258 24.56471347808838)"><path d="M0 0 C0.8416341145833334 1.47979736328125, 3.8731689453125 2.7714894612630205, 5.0498046875 8.8787841796875 C6.2264404296875 14.98607889811198, 5.847208658854167 30.40082295735677, 7.059814453125 36.643768310546875 C8.272420247395834 42.88671366373698, 9.48089599609375 44.042755126953125, 12.325439453125 46.336456298828125 C15.16998291015625 48.630157470703125, 7.810770670572918 49.41134134928385, 24.1270751953125 50.405975341796875 C40.44337972005208 51.4006093343099, 93.36519368489583 52.213897705078125, 110.2232666015625 52.30426025390625 C127.08133951822917 52.394622802734375, 122.73081461588542 53.35994974772135, 125.2755126953125 50.948150634765625 C127.82021077473958 48.5363515218099, 126.84383138020833 43.30259704589844, 125.491455078125 37.833465576171875 C124.13907877604167 32.36433410644531, 120.44873046875 25.011454264322918, 117.1612548828125 18.13336181640625 C113.873779296875 11.255269368489582, 107.66571044921875 0.1596527099609375, 105.7666015625 -3.435089111328125 M0 0 C0.8416341145833334 1.47979736328125, 3.8731689453125 2.7714894612630205, 5.0498046875 8.8787841796875 C6.2264404296875 14.98607889811198, 5.847208658854167 30.40082295735677, 7.059814453125 36.643768310546875 C8.272420247395834 42.88671366373698, 9.48089599609375 44.042755126953125, 12.325439453125 46.336456298828125 C15.16998291015625 48.630157470703125, 7.810770670572918 49.41134134928385, 24.1270751953125 50.405975341796875 C40.44337972005208 51.4006093343099, 93.36519368489583 52.213897705078125, 110.2232666015625 52.30426025390625 C127.08133951822917 52.394622802734375, 122.73081461588542 53.35994974772135, 125.2755126953125 50.948150634765625 C127.82021077473958 48.5363515218099, 126.84383138020833 43.30259704589844, 125.491455078125 37.833465576171875 C124.13907877604167 32.36433410644531, 120.44873046875 25.011454264322918, 117.1612548828125 18.13336181640625 C113.873779296875 11.255269368489582, 107.66571044921875 0.1596527099609375, 105.7666015625 -3.435089111328125" stroke="#000000" stroke-width="1.5" fill="none"></path></g></g><g><g transform="translate(123.20573852539064 96.097412109375) rotate(0 22.22740820312501 12.591200561523408)"><path d="M0 0 C-0.81390380859375 0.135650634765625, -4.61212158203125 1.0173797607421875, -4.8834228515625 0.81390380859375 C-5.15472412109375 0.6104278564453125, -6.599751790364583 0.06177266438802076, -1.6278076171875 -1.220855712890625 C3.344136555989583 -2.5034840901692705, 17.80670166015625 -5.938364664713542, 24.9482421875 -6.881866455078125 C32.08978271484375 -7.825368245442708, 37.356201171875 -8.3740234375, 41.221435546875 -6.881866455078125 C45.086669921875 -5.38970947265625, 47.054443359375 -1.1043548583984375, 48.1396484375 2.071075439453125 C49.224853515625 5.2465057373046875, 51.327392578125 7.299652099609375, 47.732666015625 12.17071533203125 C44.137939453125 17.041778564453125, 32.743387858072914 27.974014282226562, 26.5712890625 31.297454833984375 C20.399190266927082 34.62089538574219, 13.34527587890625 31.9757080078125, 10.7000732421875 32.111358642578125 M0 0 C-0.81390380859375 0.135650634765625, -4.61212158203125 1.0173797607421875, -4.8834228515625 0.81390380859375 C-5.15472412109375 0.6104278564453125, -6.599751790364583 0.06177266438802076, -1.6278076171875 -1.220855712890625 C3.344136555989583 -2.5034840901692705, 17.80670166015625 -5.938364664713542, 24.9482421875 -6.881866455078125 C32.08978271484375 -7.825368245442708, 37.356201171875 -8.3740234375, 41.221435546875 -6.881866455078125 C45.086669921875 -5.38970947265625, 47.054443359375 -1.1043548583984375, 48.1396484375 2.071075439453125 C49.224853515625 5.2465057373046875, 51.327392578125 7.299652099609375, 47.732666015625 12.17071533203125 C44.137939453125 17.041778564453125, 32.743387858072914 27.974014282226562, 26.5712890625 31.297454833984375 C20.399190266927082 34.62089538574219, 13.34527587890625 31.9757080078125, 10.7000732421875 32.111358642578125" stroke="#000000" stroke-width="1.5" fill="none"></path></g></g><g><g transform="translate(131.27421997070314 103.55551147460938) rotate(0 14.10059722900391 0.5809718856811514)"><path d="M0 0 C0.7460734049479166 -1.0173797607421875, 2.68524169921875 -4.61212158203125, 4.4764404296875 -6.104278564453125 C6.26763916015625 -7.596435546875, 7.232625325520834 -9.256098429361979, 10.7471923828125 -8.95294189453125 C14.261759440104166 -8.649785359700521, 22.687459309895832 -5.741526285807292, 25.5638427734375 -4.28533935546875 C28.440226236979168 -2.829152425130208, 28.412434895833332 -1.9114532470703125, 28.0054931640625 -0.2158203125 C27.598551432291668 1.4798126220703125, 26.405537923177082 4.1609751383463545, 23.1221923828125 5.888458251953125 C19.838846842447918 7.6159413655598955, 11.792256673177084 10.117228190104166, 8.305419921875 10.149078369140625 C4.818583170572916 10.180928548177084, 3.585408528645833 7.7710723876953125, 2.201171875 6.079559326171875 C0.8169352213541667 4.3880462646484375, 0.3668619791666667 1.0132598876953125, 0 0 M0 0 C0.7460734049479166 -1.0173797607421875, 2.68524169921875 -4.61212158203125, 4.4764404296875 -6.104278564453125 C6.26763916015625 -7.596435546875, 7.232625325520834 -9.256098429361979, 10.7471923828125 -8.95294189453125 C14.261759440104166 -8.649785359700521, 22.687459309895832 -5.741526285807292, 25.5638427734375 -4.28533935546875 C28.440226236979168 -2.829152425130208, 28.412434895833332 -1.9114532470703125, 28.0054931640625 -0.2158203125 C27.598551432291668 1.4798126220703125, 26.405537923177082 4.1609751383463545, 23.1221923828125 5.888458251953125 C19.838846842447918 7.6159413655598955, 11.792256673177084 10.117228190104166, 8.305419921875 10.149078369140625 C4.818583170572916 10.180928548177084, 3.585408528645833 7.7710723876953125, 2.201171875 6.079559326171875 C0.8169352213541667 4.3880462646484375, 0.3668619791666667 1.0132598876953125, 0 0" stroke="#000000" stroke-width="1.5" fill="none"></path></g></g><g><g transform="translate(51.43986938476564 60.69720458984375) rotate(0 -11.018638214111348 -8.263795043945265)"><path d="M0 0 C-1.2362263997395833 0.09967549641927083, -5.27166748046875 0.9053293863932292, -7.4173583984375 0.598052978515625 C-9.56304931640625 0.2907765706380208, -12.100321451822916 -0.622802734375, -12.8741455078125 -1.843658447265625 C-13.647969563802084 -3.06451416015625, -13.731221516927084 -5.4466400146484375, -12.060302734375 -6.727081298828125 C-10.389383951822916 -8.007522583007812, -3.6501871744791665 -9.059768676757812, -2.8486328125 -9.52630615234375 C-2.0470784505208335 -9.992843627929688, -4.74920654296875 -8.965286254882812, -7.2509765625 -9.52630615234375 C-9.75274658203125 -10.087326049804688, -16.22686767578125 -12.1279296875, -17.8592529296875 -12.892425537109375 C-19.49163818359375 -13.65692138671875, -18.112752278645832 -13.651936848958334, -17.0452880859375 -14.11328125 C-15.977823893229166 -14.574625651041666, -15.58477783203125 -15.402623494466146, -11.4544677734375 -15.660491943359375 C-7.32415771484375 -15.918360392252604, 4.266764322916666 -13.964859008789062, 7.736572265625 -15.660491943359375 C11.206380208333334 -17.356124877929688, 9.906982421875 -23.189102172851562, 9.3643798828125 -25.83428955078125 C8.82177734375 -28.479476928710938, 5.227030436197917 -30.4464111328125, 4.48095703125 -31.5316162109375 C3.7348836263020835 -32.6168212890625, 3.119893391927083 -31.952000935872395, 4.887939453125 -32.34552001953125 C6.655985514322917 -32.7390391031901, 16.653788248697918 -33.21880086263021, 15.0892333984375 -33.892730712890625 C13.524678548177084 -34.56666056315104, -0.96331787109375 -35.70173645019531, -4.4993896484375 -36.38909912109375 C-8.03546142578125 -37.07646179199219, -5.991536458333333 -37.54212951660156, -6.127197265625 -38.01690673828125 C-6.262858072916667 -38.49168395996094, -3.743387858072917 -38.34692891438802, -5.3133544921875 -39.237762451171875 C-6.883321126302083 -40.12859598795573, -14.04486083984375 -42.267598470052086, -15.5469970703125 -43.361907958984375 C-17.04913330078125 -44.456217447916664, -19.598734537760418 -45.39666748046875, -14.326171875 -45.803619384765625 C-9.053609212239582 -46.2105712890625, 12.52142333984375 -45.44195048014323, 16.08837890625 -45.803619384765625 C19.65533447265625 -46.16528828938802, 7.504842122395833 -47.6119639078776, 7.0755615234375 -47.9736328125 C6.646280924479167 -48.3353017171224, 13.716166178385416 -47.706451416015625, 13.5126953125 -47.9736328125 C13.309224446614584 -48.240814208984375, 6.32952880859375 -49.17388916015625, 5.854736328125 -49.57672119140625 C5.37994384765625 -49.97955322265625, 18.430623372395832 -50.254974365234375, 10.6639404296875 -50.390625 C2.897257486979167 -50.526275634765625, -36.641215006510414 -50.390625, -40.745361328125 -50.390625 C-44.849507649739586 -50.390625, -22.12603759765625 -50.877766927083336, -13.9609375 -50.390625 C-5.79583740234375 -49.903483072916664, 4.67987060546875 -48.36186726888021, 8.2452392578125 -47.4677734375 C11.81060791015625 -46.57367960611979, 8.938618977864584 -46.8046875, 7.4312744140625 -45.02606201171875 C5.923929850260417 -43.2474365234375, 1.4422200520833335 -38.670206705729164, -0.798828125 -36.7960205078125 C-3.0398763020833335 -34.921834309895836, -5.620442708333333 -35.1651865641276, -6.0150146484375 -33.78094482421875 C-6.409586588541667 -32.3967030843099, -3.5053914388020835 -30.553059895833332, -3.166259765625 -28.490570068359375 C-2.8271280924479165 -26.428080240885418, -4.387166341145833 -23.129369099934895, -3.980224609375 -21.406005859375 C-3.5732828776041665 -19.682642618815105, -0.99591064453125 -19.167770385742188, -0.724609375 -18.150390625 C-0.45330810546875 -17.133010864257812, -1.30731201171875 -16.3828125, -2.3524169921875 -15.301727294921875 C-3.39752197265625 -14.22064208984375, -9.390645345052084 -13.912750244140625, -6.9952392578125 -11.66387939453125 C-4.599833170572916 -9.415008544921875, 8.850809733072916 -3.654541015625, 12.02001953125 -1.808502197265625 C15.189229329427084 0.03753662109375, 12.386881510416666 -0.9586283365885417, 12.02001953125 -0.587646484375 C11.653157552083334 -0.21666463216145831, 11.851216634114584 0.014556884765625, 9.81884765625 0.417388916015625 C7.786478678385416 0.820220947265625, 0.7452392578125 0.8479410807291666, -0.1741943359375 1.829345703125 C-1.0936279296875 2.8107503255208335, 4.437906901041667 5.0849609375, 4.30224609375 6.305816650390625 C4.166585286458333 7.52667236328125, -0.848388671875 7.702412923177083, -0.9881591796875 9.15447998046875 C-1.1279296875 10.606547037760416, 2.8572998046875 13.769627888997396, 3.463623046875 15.018218994140625 C4.0699462890625 16.266810099283855, 3.6270751953125 15.935923258463541, 2.6497802734375 16.646026611328125 C1.6724853515625 17.356129964192707, -5.100931803385416 16.84161376953125, -2.400146484375 19.278839111328125 C0.3006388346354165 21.716064453125, 16.96759033203125 28.899973551432293, 18.8544921875 31.269378662109375 C20.74139404296875 33.63878377278646, 14.143758138020832 33.124287923177086, 8.9212646484375 33.495269775390625 C3.698771158854167 33.866251627604164, -4.871988932291667 34.59654744466146, -12.48046875 33.495269775390625 C-20.088948567708332 32.39399210611979, -32.688090006510414 28.124532063802082, -36.7296142578125 26.887603759765625 C-40.771138509114586 25.650675455729168, -38.627909342447914 27.147659301757812, -36.7296142578125 26.073699951171875 C-34.831319173177086 24.999740600585938, -32.740336100260414 22.303115844726562, -25.33984375 20.44384765625 C-17.939351399739582 18.584579467773438, 3.88214111328125 16.983840942382812, 7.67333984375 14.9180908203125 C11.46453857421875 12.852340698242188, -1.2803548177083333 9.896001180013021, -2.5926513671875 8.049346923828125 C-3.904947916666667 6.2026926676432295, -1.6440633138020833 5.4174346923828125, -0.200439453125 3.838165283203125 C1.2431844075520833 2.2588958740234375, 12.18963623046875 1.3526814778645835, 6.069091796875 -1.42626953125 C-0.05145263671875 -4.205220540364584, -31.792195638020832 -9.849197387695312, -36.9237060546875 -12.835540771484375 C-42.055216471354164 -15.821884155273438, -29.05377197265625 -17.669459025065105, -24.719970703125 -19.344329833984375 C-20.38616943359375 -21.019200642903645, -14.265869140625 -21.381113688151043, -10.9208984375 -22.884765625 C-7.575927734375 -24.388417561848957, -4.745707194010417 -27.113535563151043, -4.650146484375 -28.366241455078125 C-4.554585774739583 -29.618947347005207, -11.2669677734375 -29.559361775716145, -10.3475341796875 -30.4010009765625 C-9.4281005859375 -31.242640177408855, 1.3412272135416667 -32.38439432779948, 0.866455078125 -33.41607666015625 C0.3916829427083333 -34.44775899251302, -12.59112548828125 -35.79474385579427, -13.1961669921875 -36.591094970703125 C-13.80120849609375 -37.38744608561198, 1.435933430989583 -37.6257578531901, -2.7637939453125 -38.194183349609375 C-6.963521321614583 -38.76260884602865, -36.567891438802086 -38.7818349202474, -38.39453125 -40.00164794921875 C-40.221171061197914 -41.2214609781901, -14.394917805989584 -45.44849141438802, -13.7236328125 -45.5130615234375 C-13.052347819010416 -45.57763163248698, -32.96563720703125 -42.323944091796875, -34.3668212890625 -40.389068603515625 C-35.76800537109375 -38.454193115234375, -24.4691162109375 -35.58275349934896, -22.1307373046875 -33.90380859375 C-19.7923583984375 -32.22486368815104, -20.477396647135418 -32.47803243001302, -20.3365478515625 -30.315399169921875 C-20.195699055989582 -28.15276590983073, -20.49468994140625 -23.758102416992188, -21.28564453125 -20.928009033203125 C-22.07659912109375 -18.097915649414062, -23.074117024739582 -16.117457071940105, -25.082275390625 -13.3348388671875 C-27.090433756510418 -10.552220662434896, -33.682576497395836 -7.612528483072916, -33.3345947265625 -4.2322998046875 C-32.986612955729164 -0.8520711263020835, -24.618082682291668 4.3095855712890625, -22.994384765625 6.946533203125 C-21.370686848958332 9.583480834960938, -23.153605143229168 10.340799967447916, -23.5924072265625 11.589385986328125 C-24.031209309895832 12.837972005208334, -27.440714518229168 13.637578328450521, -25.627197265625 14.43804931640625 C-23.813680013020832 15.238520304361979, -14.86395263671875 16.066518147786457, -12.7113037109375 16.3922119140625 M0 0 C-1.2362263997395833 0.09967549641927083, -5.27166748046875 0.9053293863932292, -7.4173583984375 0.598052978515625 C-9.56304931640625 0.2907765706380208, -12.100321451822916 -0.622802734375, -12.8741455078125 -1.843658447265625 C-13.647969563802084 -3.06451416015625, -13.731221516927084 -5.4466400146484375, -12.060302734375 -6.727081298828125 C-10.389383951822916 -8.007522583007812, -3.6501871744791665 -9.059768676757812, -2.8486328125 -9.52630615234375 C-2.0470784505208335 -9.992843627929688, -4.74920654296875 -8.965286254882812, -7.2509765625 -9.52630615234375 C-9.75274658203125 -10.087326049804688, -16.22686767578125 -12.1279296875, -17.8592529296875 -12.892425537109375 C-19.49163818359375 -13.65692138671875, -18.112752278645832 -13.651936848958334, -17.0452880859375 -14.11328125 C-15.977823893229166 -14.574625651041666, -15.58477783203125 -15.402623494466146, -11.4544677734375 -15.660491943359375 C-7.32415771484375 -15.918360392252604, 4.266764322916666 -13.964859008789062, 7.736572265625 -15.660491943359375 C11.206380208333334 -17.356124877929688, 9.906982421875 -23.189102172851562, 9.3643798828125 -25.83428955078125 C8.82177734375 -28.479476928710938, 5.227030436197917 -30.4464111328125, 4.48095703125 -31.5316162109375 C3.7348836263020835 -32.6168212890625, 3.119893391927083 -31.952000935872395, 4.887939453125 -32.34552001953125 C6.655985514322917 -32.7390391031901, 16.653788248697918 -33.21880086263021, 15.0892333984375 -33.892730712890625 C13.524678548177084 -34.56666056315104, -0.96331787109375 -35.70173645019531, -4.4993896484375 -36.38909912109375 C-8.03546142578125 -37.07646179199219, -5.991536458333333 -37.54212951660156, -6.127197265625 -38.01690673828125 C-6.262858072916667 -38.49168395996094, -3.743387858072917 -38.34692891438802, -5.3133544921875 -39.237762451171875 C-6.883321126302083 -40.12859598795573, -14.04486083984375 -42.267598470052086, -15.5469970703125 -43.361907958984375 C-17.04913330078125 -44.456217447916664, -19.598734537760418 -45.39666748046875, -14.326171875 -45.803619384765625 C-9.053609212239582 -46.2105712890625, 12.52142333984375 -45.44195048014323, 16.08837890625 -45.803619384765625 C19.65533447265625 -46.16528828938802, 7.504842122395833 -47.6119639078776, 7.0755615234375 -47.9736328125 C6.646280924479167 -48.3353017171224, 13.716166178385416 -47.706451416015625, 13.5126953125 -47.9736328125 C13.309224446614584 -48.240814208984375, 6.32952880859375 -49.17388916015625, 5.854736328125 -49.57672119140625 C5.37994384765625 -49.97955322265625, 18.430623372395832 -50.254974365234375, 10.6639404296875 -50.390625 C2.897257486979167 -50.526275634765625, -36.641215006510414 -50.390625, -40.745361328125 -50.390625 C-44.849507649739586 -50.390625, -22.12603759765625 -50.877766927083336, -13.9609375 -50.390625 C-5.79583740234375 -49.903483072916664, 4.67987060546875 -48.36186726888021, 8.2452392578125 -47.4677734375 C11.81060791015625 -46.57367960611979, 8.938618977864584 -46.8046875, 7.4312744140625 -45.02606201171875 C5.923929850260417 -43.2474365234375, 1.4422200520833335 -38.670206705729164, -0.798828125 -36.7960205078125 C-3.0398763020833335 -34.921834309895836, -5.620442708333333 -35.1651865641276, -6.0150146484375 -33.78094482421875 C-6.409586588541667 -32.3967030843099, -3.5053914388020835 -30.553059895833332, -3.166259765625 -28.490570068359375 C-2.8271280924479165 -26.428080240885418, -4.387166341145833 -23.129369099934895, -3.980224609375 -21.406005859375 C-3.5732828776041665 -19.682642618815105, -0.99591064453125 -19.167770385742188, -0.724609375 -18.150390625 C-0.45330810546875 -17.133010864257812, -1.30731201171875 -16.3828125, -2.3524169921875 -15.301727294921875 C-3.39752197265625 -14.22064208984375, -9.390645345052084 -13.912750244140625, -6.9952392578125 -11.66387939453125 C-4.599833170572916 -9.415008544921875, 8.850809733072916 -3.654541015625, 12.02001953125 -1.808502197265625 C15.189229329427084 0.03753662109375, 12.386881510416666 -0.9586283365885417, 12.02001953125 -0.587646484375 C11.653157552083334 -0.21666463216145831, 11.851216634114584 0.014556884765625, 9.81884765625 0.417388916015625 C7.786478678385416 0.820220947265625, 0.7452392578125 0.8479410807291666, -0.1741943359375 1.829345703125 C-1.0936279296875 2.8107503255208335, 4.437906901041667 5.0849609375, 4.30224609375 6.305816650390625 C4.166585286458333 7.52667236328125, -0.848388671875 7.702412923177083, -0.9881591796875 9.15447998046875 C-1.1279296875 10.606547037760416, 2.8572998046875 13.769627888997396, 3.463623046875 15.018218994140625 C4.0699462890625 16.266810099283855, 3.6270751953125 15.935923258463541, 2.6497802734375 16.646026611328125 C1.6724853515625 17.356129964192707, -5.100931803385416 16.84161376953125, -2.400146484375 19.278839111328125 C0.3006388346354165 21.716064453125, 16.96759033203125 28.899973551432293, 18.8544921875 31.269378662109375 C20.74139404296875 33.63878377278646, 14.143758138020832 33.124287923177086, 8.9212646484375 33.495269775390625 C3.698771158854167 33.866251627604164, -4.871988932291667 34.59654744466146, -12.48046875 33.495269775390625 C-20.088948567708332 32.39399210611979, -32.688090006510414 28.124532063802082, -36.7296142578125 26.887603759765625 C-40.771138509114586 25.650675455729168, -38.627909342447914 27.147659301757812, -36.7296142578125 26.073699951171875 C-34.831319173177086 24.999740600585938, -32.740336100260414 22.303115844726562, -25.33984375 20.44384765625 C-17.939351399739582 18.584579467773438, 3.88214111328125 16.983840942382812, 7.67333984375 14.9180908203125 C11.46453857421875 12.852340698242188, -1.2803548177083333 9.896001180013021, -2.5926513671875 8.049346923828125 C-3.904947916666667 6.2026926676432295, -1.6440633138020833 5.4174346923828125, -0.200439453125 3.838165283203125 C1.2431844075520833 2.2588958740234375, 12.18963623046875 1.3526814778645835, 6.069091796875 -1.42626953125 C-0.05145263671875 -4.205220540364584, -31.792195638020832 -9.849197387695312, -36.9237060546875 -12.835540771484375 C-42.055216471354164 -15.821884155273438, -29.05377197265625 -17.669459025065105, -24.719970703125 -19.344329833984375 C-20.38616943359375 -21.019200642903645, -14.265869140625 -21.381113688151043, -10.9208984375 -22.884765625 C-7.575927734375 -24.388417561848957, -4.745707194010417 -27.113535563151043, -4.650146484375 -28.366241455078125 C-4.554585774739583 -29.618947347005207, -11.2669677734375 -29.559361775716145, -10.3475341796875 -30.4010009765625 C-9.4281005859375 -31.242640177408855, 1.3412272135416667 -32.38439432779948, 0.866455078125 -33.41607666015625 C0.3916829427083333 -34.44775899251302, -12.59112548828125 -35.79474385579427, -13.1961669921875 -36.591094970703125 C-13.80120849609375 -37.38744608561198, 1.435933430989583 -37.6257578531901, -2.7637939453125 -38.194183349609375 C-6.963521321614583 -38.76260884602865, -36.567891438802086 -38.7818349202474, -38.39453125 -40.00164794921875 C-40.221171061197914 -41.2214609781901, -14.394917805989584 -45.44849141438802, -13.7236328125 -45.5130615234375 C-13.052347819010416 -45.57763163248698, -32.96563720703125 -42.323944091796875, -34.3668212890625 -40.389068603515625 C-35.76800537109375 -38.454193115234375, -24.4691162109375 -35.58275349934896, -22.1307373046875 -33.90380859375 C-19.7923583984375 -32.22486368815104, -20.477396647135418 -32.47803243001302, -20.3365478515625 -30.315399169921875 C-20.195699055989582 -28.15276590983073, -20.49468994140625 -23.758102416992188, -21.28564453125 -20.928009033203125 C-22.07659912109375 -18.097915649414062, -23.074117024739582 -16.117457071940105, -25.082275390625 -13.3348388671875 C-27.090433756510418 -10.552220662434896, -33.682576497395836 -7.612528483072916, -33.3345947265625 -4.2322998046875 C-32.986612955729164 -0.8520711263020835, -24.618082682291668 4.3095855712890625, -22.994384765625 6.946533203125 C-21.370686848958332 9.583480834960938, -23.153605143229168 10.340799967447916, -23.5924072265625 11.589385986328125 C-24.031209309895832 12.837972005208334, -27.440714518229168 13.637578328450521, -25.627197265625 14.43804931640625 C-23.813680013020832 15.238520304361979, -14.86395263671875 16.066518147786457, -12.7113037109375 16.3922119140625" stroke="#000000" stroke-width="1.5" fill="none"></path></g></g><g><g transform="translate(80.42717407226564 86.25714111328125) rotate(0 -7.9688718566894465 -38.128570556640625)"><path d="M0 0 C-2.6759440104166665 -0.9731699625651041, -13.411580403645834 -3.6296234130859375, -16.0556640625 -5.839019775390625 C-18.699747721354168 -8.048416137695312, -16.195393880208332 -11.422083536783854, -15.864501953125 -13.256378173828125 C-15.533610026041666 -15.090672810872396, -17.072794596354168 -14.372533162434896, -14.0703125 -16.84478759765625 C-11.067830403645834 -19.317042032877605, 1.34906005859375 -25.11101786295573, 2.150390625 -28.08990478515625 C2.95172119140625 -31.06879170735677, -8.7999267578125 -31.970230102539062, -9.2623291015625 -34.718109130859375 C-9.7247314453125 -37.46598815917969, -2.131551106770833 -42.32357279459635, -0.6240234375 -44.577178955078125 C0.8835042317708333 -46.8307851155599, 2.51580810546875 -46.77857462565104, -0.2171630859375 -48.23974609375 C-2.95013427734375 -49.70091756184896, -14.655741373697916 -52.1903076171875, -17.0218505859375 -53.344207763671875 C-19.387959798177082 -54.49810791015625, -17.515218098958332 -53.98951212565104, -14.413818359375 -55.16314697265625 C-11.312418619791666 -56.33678181966146, -0.5375773111979165 -59.04076131184896, 1.5865478515625 -60.386016845703125 C3.7106730143229165 -61.73127237955729, -1.19427490234375 -62.4207763671875, -1.6690673828125 -63.23468017578125 C-2.14385986328125 -64.048583984375, -0.51611328125 -63.912933349609375, -1.26220703125 -65.26943969726562 C-2.00830078125 -66.62594604492188, -5.467386881510417 -69.54243469238281, -6.1456298828125 -71.37371826171875 C-6.823872884114583 -73.20500183105469, -5.467325846354167 -75.4432373046875, -5.3316650390625 -76.25714111328125 M0 0 C-2.6759440104166665 -0.9731699625651041, -13.411580403645834 -3.6296234130859375, -16.0556640625 -5.839019775390625 C-18.699747721354168 -8.048416137695312, -16.195393880208332 -11.422083536783854, -15.864501953125 -13.256378173828125 C-15.533610026041666 -15.090672810872396, -17.072794596354168 -14.372533162434896, -14.0703125 -16.84478759765625 C-11.067830403645834 -19.317042032877605, 1.34906005859375 -25.11101786295573, 2.150390625 -28.08990478515625 C2.95172119140625 -31.06879170735677, -8.7999267578125 -31.970230102539062, -9.2623291015625 -34.718109130859375 C-9.7247314453125 -37.46598815917969, -2.131551106770833 -42.32357279459635, -0.6240234375 -44.577178955078125 C0.8835042317708333 -46.8307851155599, 2.51580810546875 -46.77857462565104, -0.2171630859375 -48.23974609375 C-2.95013427734375 -49.70091756184896, -14.655741373697916 -52.1903076171875, -17.0218505859375 -53.344207763671875 C-19.387959798177082 -54.49810791015625, -17.515218098958332 -53.98951212565104, -14.413818359375 -55.16314697265625 C-11.312418619791666 -56.33678181966146, -0.5375773111979165 -59.04076131184896, 1.5865478515625 -60.386016845703125 C3.7106730143229165 -61.73127237955729, -1.19427490234375 -62.4207763671875, -1.6690673828125 -63.23468017578125 C-2.14385986328125 -64.048583984375, -0.51611328125 -63.912933349609375, -1.26220703125 -65.26943969726562 C-2.00830078125 -66.62594604492188, -5.467386881510417 -69.54243469238281, -6.1456298828125 -71.37371826171875 C-6.823872884114583 -73.20500183105469, -5.467325846354167 -75.4432373046875, -5.3316650390625 -76.25714111328125" stroke="#000000" stroke-width="1.5" fill="none"></path></g></g></svg>